<?xml version="1.0" standalone="no"?>
<!DOCTYPE svg PUBLIC "-//W3C//DTD SVG 20010904//EN"
 "http://www.w3.org/TR/2001/REC-SVG-20010904/DTD/svg10.dtd">
<svg version="1.0" xmlns="http://www.w3.org/2000/svg"
 width="674.000000pt" height="1000.000000pt" viewBox="0 0 674.000000 1000.000000"
 preserveAspectRatio="xMidYMid meet">
<rect width="674.000000pt" height="1000.000000pt" fill="#FBD076" />
<g transform="translate(0.000000,1000.000000) scale(0.100000,-0.100000)"
fill="#440B27" stroke="none">

<path d="M0 5000 l0 -5000 3370 0 3370 0 0 5000 0 5000 -3370 0 -3370 0 0
-5000z m3657 3854 c257 -58 456 -167 643 -354 191 -191 309 -406 359 -658 23
-117 37 -252 25 -252 -5 1 -18 8 -30 18 -15 13 -19 26 -16 57 4 49 -42 294
-54 282 -2 -2 5 -44 15 -93 28 -131 35 -200 21 -209 -21 -13 -30 9 -19 48 7
26 7 51 0 80 l-11 42 5 -42 c6 -46 -2 -76 -17 -67 -5 3 -6 19 -3 36 l7 30 -21
-21 -21 -21 24 -27 c28 -30 27 -40 -2 -24 -14 8 -25 32 -37 87 -9 41 -19 74
-21 71 -3 -2 0 -24 5 -48 6 -24 10 -53 10 -64 0 -17 -2 -16 -11 5 -5 14 -12
39 -14 55 -6 44 -32 135 -43 149 -5 6 -12 26 -16 44 -4 18 -16 42 -28 52 -11
11 -18 23 -14 26 3 3 1 18 -4 32 -8 22 -8 23 6 12 8 -7 15 -17 15 -23 0 -17
43 -76 60 -82 9 -4 8 2 -6 17 -43 49 -48 58 -31 58 9 0 29 -11 45 -25 l30 -25
7 30 c8 36 25 40 25 6 0 -14 5 -28 10 -31 7 -4 8 3 4 22 -9 37 -44 106 -51
100 -2 -3 0 -15 7 -26 8 -16 7 -27 -4 -48 l-14 -28 -10 25 c-17 46 -22 55 -18
33 2 -13 1 -23 -2 -23 -27 1 -51 16 -61 37 -7 14 -14 23 -18 20 -11 -11 -63
23 -63 42 0 10 -13 35 -30 56 -16 21 -30 41 -30 44 -1 16 -97 112 -115 115
-11 2 -21 12 -23 24 -4 23 -65 82 -86 82 -7 0 -23 11 -36 25 -13 14 -33 25
-44 25 -12 0 -27 9 -33 19 -10 17 -8 21 18 31 16 7 42 10 58 7 l30 -6 -15 34
c-16 40 -10 44 23 13 13 -12 23 -16 23 -10 0 12 -97 72 -115 72 -5 -1 2 -7 16
-15 15 -8 30 -26 33 -41 14 -55 -18 -40 -66 30 -33 49 -78 88 -78 68 0 -6 8
-13 19 -17 10 -3 34 -30 54 -60 l35 -54 -29 -6 c-15 -4 -38 -1 -50 5 -13 8
-24 8 -28 3 -13 -21 -37 -19 -64 3 -16 13 -41 24 -55 24 -15 0 -36 7 -46 15
-11 8 -32 15 -47 15 -16 0 -40 5 -54 12 -19 8 -31 8 -51 -1 -22 -10 -30 -9
-44 4 -18 16 -57 20 -78 7 -19 -12 -5 -38 30 -55 19 -9 26 -17 18 -22 -13 -8
15 -45 34 -45 6 0 2 7 -8 15 -28 21 -14 28 20 10 16 -8 35 -15 42 -15 6 0 12
-4 12 -9 0 -5 8 -7 18 -4 10 2 26 -5 36 -16 17 -19 17 -19 -26 -9 -24 6 -47
14 -53 18 -5 3 -72 6 -147 6 l-137 -1 20 21 c15 16 17 24 8 29 -7 5 -1 12 20
21 17 7 34 21 38 30 13 33 -56 47 -89 17 -14 -13 -21 -14 -30 -5 -16 16 -60
15 -83 -2 -10 -7 -27 -11 -37 -8 -10 2 -29 -3 -43 -12 -13 -9 -35 -16 -48 -16
-14 0 -36 -9 -50 -20 -28 -22 -48 -25 -63 -10 -8 8 -19 8 -38 0 -15 -5 -38 -7
-50 -4 l-24 6 35 53 c20 30 44 57 54 60 11 4 19 11 19 17 0 21 -46 -20 -83
-75 -33 -51 -67 -74 -67 -47 0 22 24 60 42 66 11 3 17 8 15 10 -12 12 -117
-50 -117 -68 0 -7 11 -1 25 12 31 29 41 21 21 -18 l-15 -29 43 4 c59 7 69 -13
14 -28 -25 -7 -36 -14 -26 -16 9 -2 30 3 47 11 39 21 44 20 29 -4 -7 -11 -22
-20 -34 -20 -12 0 -28 -7 -35 -17 -8 -9 -27 -24 -44 -35 l-30 -18 28 0 c15 0
27 -3 27 -7 -1 -15 -30 -46 -36 -40 -4 4 -13 -2 -21 -13 -16 -23 -43 -27 -43
-6 0 23 30 47 51 41 23 -8 26 10 2 19 -22 9 -63 -31 -63 -62 0 -18 -4 -23 -17
-18 -11 5 -32 -10 -70 -51 -29 -32 -56 -66 -59 -76 -3 -10 -16 -29 -30 -42
-13 -13 -24 -29 -24 -35 0 -6 13 4 28 21 17 19 34 29 40 25 18 -11 15 -22 -19
-61 -21 -24 -35 -33 -42 -26 -7 7 -19 5 -37 -4 -15 -8 -30 -12 -33 -8 -4 3
-11 -6 -18 -20 -10 -21 -46 -43 -56 -33 -7 7 -7 123 1 141 l8 20 -17 -20 c-13
-16 -16 -32 -11 -78 4 -36 1 -67 -5 -80 -11 -20 -12 -20 -26 6 -10 21 -11 32
-3 48 7 11 9 23 7 26 -7 6 -42 -63 -51 -99 -4 -17 -2 -28 4 -28 5 0 10 11 10
24 0 37 19 42 26 7 l6 -31 30 25 c48 41 65 29 27 -19 -11 -14 -16 -26 -10 -26
6 0 24 24 41 53 28 50 83 96 94 79 9 -15 -34 -74 -49 -68 -9 3 -15 0 -15 -8 0
-7 -9 -21 -20 -31 -11 -10 -20 -28 -20 -39 1 -17 4 -15 14 10 17 39 46 53 46
22 0 -25 -37 -68 -54 -62 -13 5 -46 -50 -46 -77 0 -11 -5 -30 -12 -42 -6 -12
-13 -35 -14 -52 -5 -45 -9 -64 -17 -71 -4 -4 -7 1 -7 10 0 18 35 175 46 206 3
10 2 11 -4 5 -5 -5 -20 -55 -32 -110 -17 -72 -25 -94 -31 -80 -5 14 -8 15 -9
5 0 -12 -4 -10 -17 5 -15 19 -15 19 -9 -8 8 -33 -2 -56 -15 -36 -5 8 -6 32 -4
54 l5 40 -11 -35 c-8 -26 -8 -44 2 -73 9 -29 10 -40 1 -49 -9 -9 -15 -9 -24 0
-14 14 1 129 31 236 10 36 15 66 10 66 -16 0 -53 -182 -53 -266 -1 -52 -5 -64
-24 -78 -13 -10 -26 -15 -29 -12 -10 9 16 202 38 290 61 244 169 436 345 613
322 323 779 457 1221 357z m-343 -160 c25 -10 0 -34 -35 -34 -31 0 -36 9 -17
28 13 13 28 15 52 6z m164 -6 c19 -19 14 -28 -17 -28 -32 0 -61 24 -39 33 23
9 44 7 56 -5z m107 -8 c7 0 15 -13 17 -29 l4 -30 -29 25 c-16 13 -33 24 -38
24 -6 0 -7 5 -4 11 4 6 14 8 22 5 8 -3 21 -6 28 -6z m-390 -12 c-11 -6 -27
-17 -36 -25 -15 -12 -16 -11 -16 12 0 22 4 25 36 25 32 -1 34 -2 16 -12z m-75
-8 c13 -8 13 -11 0 -23 -8 -8 -27 -17 -42 -21 -34 -8 -44 23 -13 41 24 15 35
16 55 3z m570 -25 c-5 -6 -6 -15 -2 -19 10 -11 -51 5 -65 17 -31 23 3 40 50
24 20 -7 25 -12 17 -22z m-442 16 c20 -12 -33 -51 -69 -51 -36 0 -37 12 -3 39
28 22 51 26 72 12z m324 -22 l33 -31 -43 5 c-49 6 -91 35 -70 49 24 15 48 8
80 -23z m220 -26 l23 -25 -45 7 c-62 10 -94 38 -52 47 27 6 49 -2 74 -29z
m-752 18 c0 -16 -24 -29 -67 -36 -48 -8 -56 4 -21 29 24 17 88 22 88 7z m230
-9 c0 -14 -79 -49 -155 -70 -38 -11 -79 -22 -90 -26 -17 -6 -16 -4 3 10 13 10
37 19 55 21 17 2 39 10 48 19 10 9 23 14 30 12 7 -2 31 6 53 18 46 25 56 28
56 16z m-146 -8 c26 -10 19 -24 -20 -40 -36 -15 -64 -7 -64 18 0 18 56 33 84
22z m561 -9 c17 -14 18 -17 3 -31 -14 -14 -19 -14 -53 0 -32 14 -35 18 -25 31
16 19 49 19 75 0z m-765 -5 c0 -12 -38 -33 -67 -36 -27 -3 -29 3 -6 28 17 19
73 25 73 8z m972 -7 c26 -24 22 -32 -13 -28 -35 5 -62 23 -53 36 9 15 46 10
66 -8z m-867 -17 c18 -13 17 -14 -9 -31 -26 -17 -27 -17 -41 1 -18 24 -18 31
-2 37 21 9 33 7 52 -7z m739 8 c19 -7 20 -13 1 -38 -14 -18 -16 -18 -40 -2
-21 14 -24 20 -14 32 12 15 28 18 53 8z m-820 -20 c21 -8 20 -24 -1 -40 -22
-17 -54 -17 -88 -2 -21 10 -31 9 -55 -5 -53 -32 -97 -15 -47 18 24 16 97 18
97 3 0 -5 12 0 26 11 28 22 42 25 68 15z m919 -14 c18 -15 27 -17 30 -8 2 7 8
9 13 5 19 -18 -51 -43 -91 -33 -30 8 -44 34 -24 47 22 14 44 11 72 -11z m-136
-14 c15 -8 46 -19 68 -26 22 -7 51 -23 65 -35 14 -13 36 -26 50 -30 14 -4 38
-18 53 -31 29 -25 97 -34 97 -13 0 5 4 8 10 4 5 -3 7 -11 4 -18 -2 -7 7 -30
20 -50 29 -42 18 -51 -13 -11 -12 15 -21 22 -21 15 0 -16 37 -51 55 -51 8 0
21 -15 29 -32 7 -18 25 -44 40 -57 14 -14 26 -30 26 -36 0 -7 18 -35 40 -63
22 -28 40 -61 40 -75 0 -13 9 -36 20 -50 11 -14 20 -34 20 -44 0 -10 5 -24 11
-30 6 -6 12 -26 14 -45 2 -30 16 -43 171 -160 144 -108 169 -131 171 -155 3
-51 -5 -57 -33 -24 -14 17 -86 76 -160 131 -144 108 -166 131 -163 176 1 16
-10 61 -26 99 -113 286 -304 480 -580 592 -44 18 -70 32 -58 33 12 0 34 -6 50
-14z m261 -2 c28 -20 28 -34 -1 -34 -25 0 -67 26 -67 41 0 14 43 11 68 -7z
m-1036 -39 c-157 -72 -328 -217 -419 -356 -59 -90 -137 -272 -134 -313 3 -44
-17 -66 -146 -162 -65 -49 -137 -106 -160 -127 l-41 -38 -7 31 c-4 17 -4 34 0
38 3 4 81 63 173 132 115 87 166 131 164 143 -1 9 4 30 13 46 8 17 15 37 15
46 0 9 9 28 20 44 12 15 22 38 22 52 1 13 16 42 33 64 18 22 38 51 45 65 7 14
26 40 41 58 16 18 29 39 29 47 0 8 4 15 9 15 14 0 71 50 71 62 0 6 -9 -1 -21
-16 -31 -39 -42 -31 -14 11 15 21 23 44 19 55 -3 10 -1 18 5 18 6 0 11 -4 11
-10 0 -20 68 -10 97 14 15 13 39 27 53 31 14 4 35 17 48 28 29 27 70 45 102
46 19 0 12 -6 -28 -24z m-83 6 c12 -8 12 -12 2 -25 -15 -18 -58 -21 -81 -6
-13 8 -12 11 5 24 23 17 53 20 74 7z m1075 -6 c21 -16 21 -17 -9 -33 -14 -8
-27 -7 -47 4 -30 16 -36 29 -15 37 23 10 52 6 71 -8z m-539 -82 l30 -88 89 -2
c49 -2 91 -5 93 -7 3 -2 -26 -26 -64 -52 -37 -27 -71 -52 -74 -57 -3 -5 7 -47
22 -95 16 -47 27 -87 25 -90 -3 -2 -39 21 -80 52 l-76 56 -76 -56 c-41 -31
-77 -54 -80 -52 -2 3 10 44 26 93 17 49 26 91 22 94 -43 29 -142 106 -142 110
0 3 42 5 93 3 l93 -3 29 90 c16 50 31 91 34 91 4 0 20 -39 36 -87z m643 59
c-11 -13 -10 -14 9 -8 23 7 53 -15 53 -40 0 -20 -28 -17 -42 5 -6 10 -17 17
-23 15 -12 -5 -38 40 -29 49 3 3 14 3 25 0 16 -5 17 -8 7 -21z m-1288 8 c0 -5
-4 -10 -10 -10 -5 0 -10 5 -10 10 0 6 5 10 10 10 6 0 10 -4 10 -10z m1240 0
c0 -5 -4 -10 -10 -10 -5 0 -10 5 -10 10 0 6 5 10 10 10 6 0 10 -4 10 -10z
m-1210 -35 c0 -15 -49 -45 -75 -45 -20 0 -19 19 2 42 20 22 73 25 73 3z m1232
-2 c20 -18 24 -43 8 -43 -26 0 -80 30 -80 44 0 22 48 21 72 -1z m-1440 -88
c-15 -32 -18 -34 -32 -19 -13 14 -13 17 9 35 34 28 41 23 23 -16z m68 16 c0
-20 -43 -71 -61 -71 -15 0 -3 49 18 73 21 22 43 22 43 -2z m1536 -2 c12 -12
10 -18 -10 -42 -27 -31 -46 -28 -70 8 -28 42 -21 55 25 51 22 -2 47 -10 55
-17z m-1636 -62 c-1 -7 -10 -23 -21 -36 -18 -22 -22 -23 -35 -9 -13 13 -12 18
11 42 24 26 45 28 45 3z m1697 -17 c9 -12 9 -18 -2 -29 -12 -12 -17 -11 -34
10 -21 25 -26 41 -14 52 7 7 30 -8 50 -33z m-1657 -15 c0 -15 -31 -64 -42 -68
-37 -12 -42 18 -10 56 14 16 52 24 52 12z m1619 -21 c25 -32 26 -40 6 -47 -18
-7 -51 21 -60 51 -9 32 28 30 54 -4z m74 -22 c21 -23 38 -70 28 -76 -8 -5 -71
60 -71 73 0 24 22 26 43 3z m-1761 -58 c-6 -33 -24 -45 -45 -29 -18 13 -18 14
3 35 25 25 46 22 42 -6z m1739 7 c24 -19 24 -20 4 -34 -23 -17 -33 -14 -45 17
-15 39 4 47 41 17z m103 -53 c19 -27 21 -58 4 -58 -7 -1 -1 -11 14 -23 34 -28
55 -77 33 -77 -18 0 -57 59 -48 73 4 6 1 7 -6 2 -9 -5 -12 -1 -10 11 2 11 -4
33 -14 50 -24 45 -1 63 27 22z m-1892 -19 c-3 -31 -20 -47 -60 -58 -36 -11
-41 -1 -14 29 9 11 25 29 35 41 23 25 43 19 39 -12z m438 -10 c13 -30 15 -31
59 -25 l45 6 -29 -30 c-29 -30 -29 -30 -12 -65 22 -47 22 -48 -13 -30 -40 21
-55 19 -78 -10 -11 -14 -22 -25 -25 -25 -2 0 -2 19 0 43 5 41 3 44 -26 57 -39
16 -40 30 -1 30 33 0 50 22 50 65 0 32 13 26 30 -16z m1389 31 c20 -10 47 -67
37 -77 -19 -19 -86 54 -71 78 8 11 12 11 34 -1z m-439 -28 c0 -35 16 -52 51
-52 42 0 43 -15 2 -29 -35 -13 -35 -14 -30 -58 l5 -45 -27 26 c-31 30 -41 31
-81 11 -26 -14 -45 -5 -21 9 5 3 12 18 15 32 6 21 1 33 -20 55 l-26 27 41 -5
c37 -5 42 -3 58 26 22 38 33 39 33 3z m-1420 -79 c0 -23 -29 -53 -52 -53 -24
0 -23 25 2 50 24 24 50 26 50 3z m1910 -3 c24 -24 26 -50 3 -50 -23 0 -53 29
-53 52 0 24 25 23 50 -2z m-1950 -79 c0 -21 -10 -33 -37 -49 -20 -10 -23 -10
-23 4 0 8 5 25 11 36 8 15 8 19 0 14 -6 -4 -11 -3 -11 2 0 5 14 9 30 9 21 0
30 -5 30 -16z m1970 9 c9 -5 17 -5 20 0 3 5 6 -8 7 -30 2 -38 1 -39 -20 -27
-28 15 -37 27 -37 50 0 19 8 21 30 7z m-2040 -31 c0 -18 -4 -28 -10 -24 -6 4
-17 1 -25 -5 -21 -17 -20 8 1 38 21 31 34 28 34 -9z m2116 6 c9 -14 14 -31 11
-38 -3 -7 1 -21 9 -32 8 -10 14 -27 14 -37 0 -30 -30 -20 -45 15 -12 28 -12
33 3 45 15 12 15 13 -6 18 -15 4 -22 14 -22 30 0 31 15 31 36 -1z m-2140 -94
c-18 -34 -46 -42 -46 -13 0 10 10 28 21 41 30 32 46 13 25 -28z m64 28 c0 -20
-70 -93 -80 -83 -3 3 5 14 18 24 12 10 22 24 22 31 0 11 28 49 37 49 1 0 3 -9
3 -21z m863 -24 c-5 -43 -5 -45 32 -62 l37 -18 -43 -10 c-41 -10 -44 -13 -47
-48 -4 -46 -14 -47 -35 -1 -12 25 -22 34 -35 30 -9 -2 -27 -7 -39 -11 -30 -8
-29 3 4 37 26 28 26 28 10 63 -19 40 -18 41 25 19 30 -16 31 -15 62 15 17 17
31 31 32 31 1 0 -1 -20 -3 -45z m1177 -2 c0 -8 10 -23 23 -33 12 -10 20 -21
17 -24 -11 -10 -80 63 -80 85 0 21 1 22 20 4 11 -10 20 -25 20 -32z m-869 11
c26 -25 28 -25 59 -9 40 21 45 16 23 -23 -18 -31 -18 -31 10 -60 36 -37 34
-42 -10 -32 -44 10 -47 9 -63 -30 -17 -40 -28 -38 -32 7 -3 35 -6 38 -47 48
l-43 10 37 18 c35 17 37 20 33 57 -2 22 -1 40 1 40 3 0 17 -12 32 -26z m-1271
-84 c-6 -11 -15 -20 -21 -20 -6 0 -6 7 1 20 6 11 15 20 21 20 6 0 6 -7 -1 -20z
m2225 -18 c-8 -9 -35 20 -28 31 4 6 11 3 19 -8 8 -10 12 -21 9 -23z m-2112
-30 c-5 -29 -26 -50 -162 -158 -86 -68 -159 -124 -163 -124 -5 0 -8 10 -8 23
0 31 59 87 211 201 68 51 125 93 125 92 1 0 -1 -16 -3 -34z m2091 -54 c148
-110 216 -175 216 -204 0 -13 -3 -24 -7 -24 -5 0 -78 56 -164 125 -131 103
-157 129 -161 154 -3 17 -2 31 0 31 3 0 55 -37 116 -82z m-2274 58 c0 -16 -28
-42 -36 -33 -7 6 18 47 28 47 5 0 8 -6 8 -14z m166 -184 c1 -80 6 -133 18
-167 l16 -49 -20 22 c-11 11 -20 29 -20 39 0 11 -9 36 -20 58 -21 42 -20 55 5
35 10 -8 15 -9 15 -2 0 19 -35 33 -48 20 -9 -9 -12 -8 -12 4 0 9 -8 26 -19 39
-16 20 -21 21 -35 10 -20 -17 -21 -50 -1 -78 12 -18 13 -27 3 -48 -9 -21 -8
-32 5 -61 10 -19 15 -40 11 -45 -3 -5 2 -23 10 -41 9 -17 16 -41 16 -54 0 -12
10 -35 23 -51 16 -20 21 -38 19 -63 l-4 -35 -29 64 c-16 35 -32 62 -35 59 -7
-8 59 -137 71 -139 6 -1 18 -7 28 -14 15 -11 16 -18 6 -64 -12 -59 -33 -71
-24 -13 4 20 9 44 11 53 2 9 -3 22 -13 30 -15 12 -16 12 -10 -3 3 -10 2 -18
-4 -18 -6 0 -6 -7 -1 -17 5 -10 6 -29 2 -43 -6 -22 -8 -23 -15 -7 -4 9 -5 31
-3 49 4 22 -2 41 -17 64 -13 18 -29 54 -36 79 -7 25 -17 45 -21 45 -4 0 -8 -2
-8 -4 0 -8 40 -101 56 -128 8 -16 11 -28 5 -28 -7 0 -7 -8 -1 -26 8 -20 7 -25
-2 -22 -7 3 -14 18 -14 34 -1 30 -64 188 -71 180 -3 -2 9 -37 26 -77 17 -41
31 -80 31 -87 0 -30 -21 4 -52 84 -18 48 -34 82 -36 76 -4 -14 42 -134 70
-178 23 -37 44 -94 34 -94 -8 0 -83 143 -101 193 -10 26 -20 45 -23 43 -11
-12 56 -155 114 -242 62 -93 73 -117 56 -128 -11 -7 -103 142 -151 244 -68
146 -122 376 -92 394 6 4 12 0 13 -11 0 -10 2 -22 3 -28 1 -5 5 -37 9 -70 8
-61 34 -140 44 -131 2 3 -3 23 -12 46 -19 47 -20 53 -6 45 14 -9 13 8 -2 23
-6 6 -14 34 -18 62 -6 46 -5 49 11 34 9 -8 19 -36 21 -65 5 -46 32 -94 48 -84
4 3 10 23 14 45 9 55 24 50 32 -11 4 -28 10 -45 14 -39 8 13 -2 69 -15 90 -5
7 -10 29 -12 49 -5 48 -13 53 -13 8 0 -41 -21 -117 -32 -117 -27 0 -29 68 -4
129 13 31 26 73 30 93 6 31 20 48 79 97 40 33 74 60 77 60 3 1 5 -52 6 -117z
m2087 59 l72 -59 34 -106 c28 -89 32 -111 23 -131 -6 -14 -15 -25 -20 -25 -12
0 -36 104 -29 129 3 12 1 21 -4 21 -5 0 -9 -14 -9 -30 0 -17 -6 -43 -14 -58
-16 -33 -28 -102 -17 -102 5 0 11 23 15 50 8 59 22 65 32 13 9 -51 13 -57 32
-40 18 15 52 29 52 22 0 -3 -7 -23 -16 -45 -9 -23 -14 -43 -12 -46 11 -10 36
74 48 159 11 75 15 86 27 74 12 -12 11 -25 -2 -91 -35 -170 -111 -353 -203
-490 -35 -50 -41 -55 -46 -38 -5 15 5 38 39 84 50 69 120 205 130 253 5 29 5
30 -6 5 -68 -145 -90 -188 -103 -205 -16 -19 -16 -19 -10 10 4 17 18 46 30 65
27 40 76 168 72 182 -2 6 -19 -29 -37 -77 -18 -47 -39 -89 -47 -92 -8 -3 -14
-11 -14 -18 0 -8 -5 -17 -11 -21 -8 -5 -10 1 -7 20 3 14 1 26 -5 26 -5 0 -2
11 7 25 22 33 58 126 52 133 -3 3 -9 -4 -12 -14 -4 -10 -20 -48 -37 -84 -20
-43 -30 -78 -28 -101 1 -21 -2 -40 -7 -43 -12 -7 -21 39 -11 56 4 7 3 16 -3
19 -9 6 -9 11 -1 21 7 8 9 28 4 54 -7 35 -4 45 16 68 12 15 23 37 23 50 0 13
7 37 16 54 8 18 13 36 9 42 -3 5 2 24 11 42 14 27 15 37 5 65 -10 28 -10 36 3
49 21 20 20 58 0 75 -14 11 -19 10 -35 -10 -11 -13 -19 -30 -19 -39 0 -12 -3
-13 -12 -4 -9 9 -16 8 -32 -7 l-21 -20 0 95 c0 51 1 94 3 94 2 0 36 -27 75
-59z m-2163 -100 c0 -3 -5 -13 -10 -21 -8 -13 -11 -13 -26 2 -12 12 -15 24 -9
45 l7 28 19 -24 c10 -13 19 -26 19 -30z m2204 -9 c-6 -9 -15 -17 -21 -19 -19
-7 -24 30 -7 56 l17 25 11 -23 c6 -15 7 -28 0 -39z m-2297 21 c-2 -5 -12 -34
-22 -65 -17 -57 -35 -76 -35 -39 0 28 37 111 50 111 6 0 9 -3 7 -7z m2387 -45
c22 -48 25 -91 5 -71 -15 15 -48 123 -38 123 5 0 20 -23 33 -52z m-2447 -17
c-12 -28 -15 -30 -27 -17 -10 13 -9 19 11 35 30 24 33 22 16 -18z m2283 36 c0
-1 -9 -20 -20 -42 -11 -22 -20 -47 -20 -57 0 -9 -4 -20 -10 -23 -5 -3 -10 -11
-10 -17 0 -6 6 -5 16 3 13 10 17 10 25 -2 13 -21 10 -51 -6 -73 -12 -16 -17
-17 -30 -6 -11 9 -14 26 -11 69 5 59 38 151 56 151 5 0 10 -1 10 -3z m220 -37
c0 -4 -7 -13 -15 -20 -13 -10 -15 -9 -15 8 0 12 -4 24 -10 27 -5 3 -10 11 -10
16 0 5 11 2 25 -7 14 -9 25 -20 25 -24z m-2320 8 c20 -21 29 -88 12 -88 -25 0
-56 62 -47 91 8 24 10 24 35 -3z m2134 -31 c-7 -25 -33 -57 -46 -57 -22 0 -1
85 26 102 15 10 28 -18 20 -45z m-2166 -33 l22 -31 -25 0 c-22 0 -25 4 -25 35
0 19 1 33 3 31 2 -2 13 -18 25 -35z m1083 -4 c275 0 281 0 286 20 l6 21 18
-20 c22 -24 26 -100 7 -120 -11 -11 -7 -13 19 -8 31 6 61 -12 35 -21 -22 -7
-13 -32 11 -32 33 0 40 -11 17 -27 -14 -10 -20 -26 -20 -53 l0 -38 200 -4
c185 -3 200 -4 215 -23 28 -38 28 -62 0 -99 -27 -36 -28 -36 -102 -36 -56 0
-75 -4 -79 -15 -5 -12 -29 -15 -125 -15 l-119 0 0 28 c0 36 -14 56 -34 49 -10
-4 -16 -19 -16 -42 0 -24 -5 -35 -15 -35 -20 0 -28 38 -22 109 4 57 3 59 -17
51 -19 -6 -21 -14 -18 -63 4 -64 -4 -97 -23 -97 -9 0 -15 14 -17 38 -2 29 -7
37 -23 37 -16 0 -21 -8 -23 -37 l-3 -38 -159 0 -159 0 -3 38 c-2 29 -7 37 -23
37 -16 0 -21 -8 -23 -37 -2 -24 -8 -38 -17 -38 -19 0 -27 33 -23 97 3 49 1 57
-18 63 -20 8 -21 6 -17 -51 6 -71 -2 -109 -22 -109 -10 0 -15 11 -15 34 0 19
-5 38 -10 41 -18 11 -40 -15 -40 -46 l0 -29 -119 0 c-99 0 -120 3 -125 16 -5
12 -19 15 -69 14 -87 -3 -84 -4 -112 39 -26 38 -26 39 -9 75 l18 36 177 0 c97
0 190 3 205 6 27 5 29 8 26 45 -3 24 -11 45 -23 53 -22 15 -15 26 18 26 24 0
33 25 11 32 -25 9 4 27 35 23 18 -3 26 -3 20 1 -20 9 -17 104 4 126 17 19 17
19 25 -1 7 -21 14 -21 289 -21z m1112 -16 c-2 -6 -15 -11 -27 -11 l-23 0 21
32 c20 30 21 31 27 11 3 -12 4 -26 2 -32z m147 -1 c-8 -54 -18 -83 -30 -83
-12 0 0 82 16 108 8 12 16 22 17 22 2 0 0 -21 -3 -47z m-2254 -38 c14 -21 15
-31 6 -50 -7 -14 -16 -25 -21 -25 -14 0 -33 57 -26 79 9 28 21 26 41 -4z m-69
3 c15 -19 26 -71 13 -63 -18 11 -11 -6 10 -23 21 -18 40 -102 22 -102 -16 0
-42 47 -42 78 0 16 -7 35 -15 42 -8 7 -15 28 -15 46 0 35 10 43 27 22z m2151
-25 c-2 -31 -7 -39 -26 -41 -20 -3 -22 -1 -16 25 15 60 47 73 42 16z m-2040
-71 c-4 -2 -5 -15 -2 -29 5 -17 3 -24 -4 -19 -6 3 -13 2 -17 -4 -19 -31 -43
17 -25 50 9 17 14 19 26 9 12 -10 13 -6 9 22 l-6 34 14 -30 c8 -16 10 -31 5
-33z m1920 21 c-14 -18 -19 -12 -11 16 4 16 8 19 14 10 4 -7 3 -19 -3 -26z
m36 -57 c-9 -29 -12 -30 -27 -18 -8 7 -17 9 -20 5 -16 -15 -6 32 10 49 16 18
18 18 30 2 7 -10 10 -27 7 -38z m57 37 c2 -35 -3 -48 -28 -73 l-25 -25 7 45
c7 45 20 70 36 70 5 0 10 -8 10 -17z m-1965 -48 c8 -34 -1 -95 -41 -255 -18
-74 -36 -154 -40 -177 -4 -24 -10 -43 -14 -43 -15 0 -38 65 -30 86 4 12 9 34
12 50 2 16 14 61 24 99 50 175 63 225 63 244 0 29 18 26 26 -4z m1908 -289
c15 -55 29 -103 32 -107 6 -10 -25 -79 -35 -79 -8 0 -93 361 -99 423 -2 30 1
53 9 63 10 13 17 -2 40 -93 15 -59 39 -153 53 -207z m-1954 265 c0 -24 -14
-71 -21 -71 -12 0 -21 38 -14 60 6 19 35 29 35 11z m1935 -11 c7 -23 -2 -60
-16 -60 -5 0 -9 4 -9 9 0 5 -3 23 -6 40 -5 24 -3 31 9 31 9 0 19 -9 22 -20z
m-1845 -59 c12 -36 10 -49 -23 -168 -19 -70 -41 -153 -47 -183 -20 -89 -19
-88 -36 -66 -19 27 -19 30 26 214 21 90 42 183 46 208 7 51 15 50 34 -5z
m1814 -260 c28 -119 30 -156 8 -156 -9 0 -26 50 -52 150 -21 83 -43 163 -49
178 -15 38 -14 58 5 103 l17 39 22 -100 c12 -55 34 -151 49 -214z m-1939 248
c9 -39 0 -47 -25 -24 -30 27 -25 90 6 64 7 -6 16 -24 19 -40z m2015 23 c0 -21
-27 -62 -41 -62 -14 0 -11 27 6 61 16 31 35 31 35 1z m-15 -78 c-9 -15 -12
-23 -6 -20 7 5 11 -2 12 -16 0 -13 2 -33 5 -45 2 -13 -1 -23 -6 -23 -5 0 -12
10 -14 23 -3 12 -7 35 -11 51 -4 20 -1 32 12 42 26 19 27 17 8 -12z m-1823
-47 c26 -40 123 -140 193 -197 24 -20 31 -34 33 -68 3 -49 -1 -52 -24 -17 -12
19 -14 28 -5 39 9 11 4 20 -24 45 -20 17 -42 31 -50 31 -7 0 -16 9 -20 20 -7
21 -60 70 -77 70 -6 0 4 -10 22 -22 19 -13 36 -29 38 -37 3 -10 -5 -7 -23 7
-15 12 -33 22 -40 22 -16 0 -25 22 -25 59 0 16 -9 40 -20 54 -21 27 -25 37
-12 37 4 0 19 -19 34 -43z m1639 7 c-11 -15 -21 -39 -21 -55 0 -37 -9 -59 -25
-59 -7 0 -25 -10 -40 -22 -18 -14 -26 -17 -23 -7 2 8 19 24 38 37 18 12 28 22
22 22 -17 0 -72 -50 -72 -66 0 -8 -12 -19 -27 -25 -16 -6 -43 -24 -60 -41 -18
-18 -36 -28 -40 -24 -4 4 8 19 27 34 64 49 152 136 192 190 22 30 42 51 45 48
3 -3 -4 -17 -16 -32z m-1663 -19 c18 -39 15 -58 -8 -52 -10 3 -21 0 -24 -7 -2
-6 -3 3 -1 19 1 17 3 38 4 48 2 25 16 21 29 -8z m1693 8 c1 -10 3 -29 6 -43
12 -67 9 -85 -14 -88 -27 -4 -31 19 -8 38 21 18 19 39 -3 33 -14 -3 -18 1 -17
14 4 50 33 87 36 46z m-1883 -77 c6 -29 -27 -17 -48 17 -11 17 -20 36 -20 41
0 14 65 -40 68 -58z m2112 57 c-1 -5 -7 -19 -14 -32 -8 -14 -12 -30 -10 -36 3
-6 -4 -20 -16 -30 -25 -22 -27 -9 -2 18 16 19 16 19 -5 13 -32 -10 -30 12 5
46 27 27 42 34 42 21z m-2120 -102 c0 -11 -5 -10 -20 4 -11 10 -20 22 -20 27
0 4 9 3 20 -4 11 -7 20 -19 20 -27z m188 27 c20 -20 14 -40 -10 -36 -15 2 -24
11 -26 26 -4 24 16 30 36 10z m32 2 c0 -5 -4 -10 -10 -10 -5 0 -10 5 -10 10 0
6 5 10 10 10 6 0 10 -4 10 -10z m1640 0 c0 -5 -4 -10 -10 -10 -5 0 -10 5 -10
10 0 6 5 10 10 10 6 0 10 -4 10 -10z m-1576 -45 c29 -27 34 -45 10 -45 -19 0
-56 19 -66 34 -27 40 16 49 56 11z m1566 21 c0 -28 -49 -66 -85 -66 -23 0 -18
18 11 45 23 21 74 35 74 21z m-1573 -146 c5 0 18 -9 29 -21 10 -12 32 -28 49
-36 16 -9 37 -26 47 -39 10 -12 35 -28 54 -34 20 -7 58 -26 85 -42 63 -39 137
-56 279 -64 63 -3 121 -7 128 -10 23 -7 -15 -62 -57 -84 -51 -25 -171 -44
-238 -36 -127 15 -212 71 -268 176 -41 78 -47 57 -7 -24 16 -31 25 -56 21 -56
-14 0 -69 81 -95 139 -33 74 -41 58 -10 -20 14 -34 24 -64 22 -66 -9 -9 -78
85 -95 131 -11 28 -20 43 -20 33 -1 -10 6 -34 14 -54 19 -46 19 -59 -1 -42
-22 18 -45 65 -65 134 -13 45 -18 52 -18 30 0 -16 6 -48 14 -70 8 -22 15 -42
15 -44 0 -11 -50 44 -55 60 -5 15 14 112 31 159 4 11 23 -4 68 -52 34 -38 67
-68 73 -68z m1667 51 c19 -84 16 -100 -23 -135 -25 -23 -25 -22 -6 29 8 22 14
56 14 75 -1 30 -3 27 -15 -22 -15 -65 -45 -128 -68 -147 -20 -16 -20 -14 -1
39 22 63 17 72 -9 14 -22 -47 -84 -129 -92 -121 -3 2 3 21 12 43 20 47 34 94
29 94 -3 0 -15 -24 -29 -52 -26 -58 -81 -138 -95 -138 -4 0 5 25 21 56 40 81
34 102 -7 25 -45 -84 -67 -106 -140 -141 -78 -39 -180 -48 -282 -27 -82 18
-118 38 -139 79 -18 36 -21 35 126 42 140 7 216 24 279 64 27 16 65 35 85 42
19 6 44 22 54 34 10 13 31 30 47 39 17 8 39 24 49 36 11 12 24 21 30 21 6 0
37 29 69 65 32 36 61 65 65 65 4 0 16 -36 26 -79z m-1725 50 c15 -11 40 -23
55 -27 27 -6 27 -6 6 -21 -20 -14 -24 -13 -61 26 -43 44 -43 52 0 22z m1622
-22 c-37 -39 -41 -40 -61 -26 l-22 15 29 6 c15 4 39 15 53 26 42 33 43 22 1
-21z m-1449 -20 c16 -19 15 -49 -2 -49 -18 0 -60 43 -60 61 0 16 4 19 23 14
12 -4 30 -16 39 -26z m1338 12 c0 -18 -43 -61 -60 -61 -21 0 -17 33 7 56 31
29 53 31 53 5z m-680 -25 c0 -19 6 -25 31 -28 22 -4 34 0 42 14 13 20 25 22
46 9 10 -6 10 -13 2 -29 -9 -17 -7 -23 15 -37 24 -16 27 -16 44 0 17 16 21 16
35 2 19 -19 19 -31 0 -47 -23 -19 9 -61 44 -58 20 2 27 -2 29 -19 3 -21 22
-33 22 -14 0 4 25 17 55 28 68 25 79 5 13 -22 -64 -26 -99 -35 -93 -24 4 5 -1
9 -9 9 -10 0 -16 -9 -16 -25 0 -21 -5 -25 -28 -25 -22 0 -30 6 -40 33 -18 49
-67 103 -115 126 -116 56 -268 -6 -308 -126 -9 -27 -16 -33 -40 -33 -22 0 -29
5 -29 20 0 10 -9 24 -20 30 -29 16 -9 53 24 44 17 -4 27 1 39 19 14 22 14 27
2 37 -20 17 -19 37 4 49 14 8 22 7 31 -4 16 -19 20 -19 50 4 21 17 22 21 10
36 -12 14 -12 18 1 26 22 14 37 11 49 -10 14 -27 64 -14 68 17 5 32 42 30 42
-2z m-540 -95 c5 -78 4 -82 -15 -77 -11 3 -23 6 -27 6 -5 0 -8 41 -8 91 l0 91
23 -14 c19 -13 23 -26 27 -97z m1088 -66 c-2 -2 -14 -6 -28 -10 l-25 -6 3 80
c3 70 7 83 25 96 l22 15 3 -86 c2 -48 1 -88 0 -89z m-1259 144 c17 -14 21 -23
13 -31 -6 -6 -8 -18 -5 -27 3 -9 -10 0 -29 20 -19 19 -41 33 -49 31 -8 -2 -5
3 6 12 26 20 35 19 64 -5z m1446 5 c11 -9 14 -14 6 -12 -8 2 -30 -12 -50 -31
-19 -20 -32 -28 -29 -19 4 8 2 20 -4 26 -8 8 -4 17 13 31 29 24 38 25 64 5z
m-144 -43 c-7 -12 -16 -21 -21 -21 -15 0 -12 48 3 53 20 7 30 -9 18 -32z
m-1078 5 c9 -7 17 -26 17 -43 0 -19 5 -30 13 -30 24 3 117 -38 117 -51 0 -15
-19 -11 -87 18 -23 10 -44 16 -47 12 -3 -3 -6 -20 -6 -39 0 -18 -4 -33 -9 -33
-19 0 -29 29 -34 103 -6 81 -1 90 36 63z m972 -63 c-8 -83 -17 -103 -45 -103
-10 0 -20 -4 -22 -10 -4 -11 -138 -41 -138 -30 0 10 120 54 143 52 12 0 17 7
17 27 0 32 -9 44 -24 32 -9 -7 -103 -41 -113 -41 -2 0 -3 6 -3 13 0 13 95 53
121 50 12 -2 14 5 11 28 -3 21 1 34 14 44 40 30 46 20 39 -62z m-1117 39 c36
-32 40 -42 15 -42 -15 0 -14 -2 3 -14 10 -8 16 -18 11 -22 -7 -8 -87 70 -87
85 0 9 11 21 20 21 3 0 21 -13 38 -28z m1282 13 c0 -23 -37 -55 -65 -55 -31 0
-31 7 -1 35 38 36 66 44 66 20z m-1049 -49 c30 -13 69 -27 87 -31 17 -3 32
-10 32 -15 0 -11 -31 -3 -112 28 -38 14 -68 29 -68 34 0 11 1 11 61 -16z m819
16 c0 -9 -113 -55 -157 -65 -42 -9 -24 10 20 22 23 6 60 20 82 30 46 22 55 24
55 13z m-362 -18 c47 -19 88 -58 113 -106 10 -21 19 -40 19 -43 0 -3 -20 -5
-43 -5 -37 0 -46 4 -55 25 -14 31 -68 65 -103 65 -45 0 -87 -20 -114 -56 -22
-29 -32 -34 -66 -34 l-39 0 15 38 c18 45 86 109 129 121 48 14 103 12 144 -5z
m-963 -44 c55 -56 52 -37 39 -256 l-6 -101 -67 -6 c-36 -3 -68 -3 -70 -1 -5 4
25 317 36 382 3 17 8 32 12 32 4 0 29 -22 56 -50z m1840 8 c11 -82 35 -320 35
-348 l0 -28 -67 5 c-38 3 -69 6 -70 7 -1 1 -6 69 -11 151 l-9 150 51 53 c28
28 54 52 58 52 4 0 9 -19 13 -42z m-348 5 c-9 -9 -19 -14 -23 -11 -10 10 6 28
24 28 15 0 15 -1 -1 -17z m-925 -75 c19 -19 19 -21 2 -14 -10 4 -43 17 -71 28
-29 11 -53 25 -53 33 0 18 92 -17 122 -47z m362 18 c33 -14 69 -53 61 -66 -4
-7 -203 -5 -210 2 -9 9 29 51 59 64 40 17 49 17 90 0z m-340 -57 c-4 -7 -104
12 -136 26 -9 3 -14 13 -12 20 4 10 22 7 79 -13 40 -15 71 -30 69 -33z m-483
12 c24 -19 24 -21 21 -183 -2 -89 -5 -164 -6 -165 -1 -1 -35 -6 -74 -9 -78 -7
-95 4 -41 26 39 16 49 44 49 129 0 96 12 221 20 221 4 0 18 -9 31 -19z m1603
-42 c3 -34 6 -94 6 -134 0 -110 7 -133 46 -151 56 -27 42 -38 -38 -30 -39 3
-73 8 -74 9 -1 1 -4 77 -6 168 l-4 167 25 16 c14 8 29 16 32 16 3 0 9 -28 13
-61z m-1516 -16 l35 -26 -7 -166 c-4 -91 -8 -166 -9 -168 -6 -5 -137 -7 -142
-1 -3 3 11 14 32 24 l38 19 3 173 c1 94 5 172 9 172 3 0 22 -12 41 -27z m752
-2 c0 -27 -21 -41 -60 -41 -39 0 -60 14 -60 41 0 14 10 19 48 21 59 4 72 0 72
-21z m681 -128 c1 -87 2 -165 3 -173 0 -8 19 -24 40 -34 34 -17 37 -20 20 -26
-15 -6 -122 -2 -131 4 -1 1 -5 76 -9 167 l-7 165 34 27 c19 15 37 27 42 27 4
0 8 -71 8 -157z m-1320 32 c0 -16 2 -101 3 -187 l3 -158 -68 0 c-78 0 -95 13
-44 34 l35 15 1 165 c1 92 3 171 4 176 1 6 3 13 4 16 0 3 15 -3 31 -13 22 -13
30 -25 31 -48z m1229 -114 c0 -179 2 -186 53 -204 36 -13 4 -27 -62 -27 l-68
0 3 188 c2 103 8 188 13 190 4 1 17 9 27 16 10 8 22 12 26 10 5 -3 8 -81 8
-173z m-560 143 c17 -20 -2 -40 -56 -59 -33 -11 -44 -11 -74 1 -80 34 -78 69
4 61 28 -2 62 -1 76 3 36 12 36 11 50 -6z m-635 -14 c3 -5 1 -10 -4 -10 -6 0
-11 5 -11 10 0 6 2 10 4 10 3 0 8 -4 11 -10z m1105 0 c0 -5 -5 -10 -11 -10 -5
0 -7 5 -4 10 3 6 8 10 11 10 2 0 4 -4 4 -10z m-650 -25 c49 -52 125 -52 180 0
l26 25 38 -20 c22 -11 65 -22 98 -26 37 -4 57 -11 55 -18 -2 -6 -15 -10 -28
-8 -15 2 -30 -6 -41 -20 -15 -21 -15 -24 -1 -41 15 -16 15 -19 0 -34 -15 -15
-18 -15 -35 0 -16 15 -20 15 -46 -7 -20 -15 -27 -27 -21 -36 7 -11 10 -9 16 6
7 16 8 17 8 2 1 -20 -43 -53 -59 -43 -5 3 -10 13 -10 21 0 15 -12 17 -47 8
-16 -4 -23 -14 -23 -30 0 -17 -6 -24 -20 -24 -14 0 -20 7 -20 24 0 16 -7 26
-22 30 -36 9 -48 7 -48 -8 0 -8 -5 -18 -10 -21 -16 -10 -60 23 -59 43 0 15 1
14 8 -2 6 -15 9 -17 16 -6 5 9 0 19 -15 32 -24 20 -50 24 -50 8 0 -15 -26 -12
-40 5 -10 13 -10 19 3 33 14 16 14 19 -1 40 -11 14 -26 22 -41 20 -13 -2 -26
2 -28 8 -2 7 18 14 54 18 32 4 74 15 93 26 46 24 43 24 70 -5z m-396 6 c24 -9
13 -16 -36 -25 -30 -5 -38 -4 -38 8 0 23 36 32 74 17z m1020 -1 c41 -15 32
-33 -11 -25 -61 11 -63 16 -16 34 1 1 13 -3 27 -9z m-924 -25 c0 -2 -17 -9
-37 -15 -21 -5 -60 -17 -86 -25 -44 -13 -48 -13 -45 2 2 9 21 22 43 29 39 12
125 18 125 9z m890 -7 c46 -11 72 -30 58 -43 -6 -6 -150 36 -162 47 -14 12 44
10 104 -4z m-820 -7 c0 -4 -33 -18 -72 -30 -40 -12 -94 -28 -120 -36 -39 -11
-48 -11 -48 -1 0 7 40 25 98 43 101 32 142 39 142 24z m777 -26 c60 -17 103
-35 103 -42 0 -17 3 -18 -126 23 -66 20 -112 39 -108 45 3 6 11 9 17 7 7 -2
58 -16 114 -33z m-763 -4 c4 -5 -15 -17 -41 -27 -27 -10 -82 -30 -123 -46 -88
-33 -90 -33 -90 -10 0 15 23 26 118 55 134 41 129 40 136 28z m591 -1 c3 -5 2
-10 -4 -10 -5 0 -13 5 -16 10 -3 6 -2 10 4 10 5 0 13 -4 16 -10z m218 -47 c44
-13 57 -21 57 -36 0 -24 -13 -22 -130 23 -47 17 -95 34 -107 37 -23 5 -29 14
-17 25 3 4 36 -3 72 -13 37 -11 93 -27 125 -36z m-743 28 c0 -4 -30 -21 -67
-36 -38 -15 -104 -43 -148 -62 -44 -19 -86 -37 -93 -40 -10 -4 -13 1 -10 17 3
20 25 31 153 80 143 54 165 59 165 41z m581 -21 c203 -74 219 -81 219 -101 0
-10 -3 -19 -7 -19 -19 0 -308 130 -311 139 -5 16 6 14 99 -19z m-575 -59 c21
-21 24 -33 24 -99 l0 -75 -56 6 c-31 3 -61 10 -67 16 -5 5 -6 41 -2 91 7 80 8
82 39 95 23 10 32 11 35 2 2 -7 15 -23 27 -36z m-641 21 c-23 -14 -31 -16 -33
-6 -2 7 -15 15 -30 17 -15 2 0 5 33 5 l60 2 -30 -18z m1188 6 c19 -15 37 -171
20 -181 -6 -4 -36 -10 -67 -13 l-57 -7 2 74 c1 68 4 77 32 107 34 35 45 38 70
20z m625 5 c-15 -2 -28 -10 -30 -17 -2 -10 -10 -8 -33 6 l-30 18 60 -2 c33 0
48 -3 33 -5z m-1109 -124 c-3 -95 -1 -113 14 -124 32 -23 17 -25 -60 -9 -28 5
-30 30 -3 37 21 5 23 17 20 129 -1 59 4 78 21 78 7 0 9 -42 8 -111z m369 7 c2
-88 5 -99 22 -103 11 -3 20 -11 20 -18 0 -16 -22 -25 -60 -25 -28 0 -29 1 -14
28 11 21 13 49 8 126 -5 81 -4 98 7 94 10 -3 15 -30 17 -102z m-545 14 c-5
-75 -4 -82 17 -105 l23 -25 -56 0 c-62 0 -79 11 -42 28 24 11 25 16 25 90 0
80 3 92 26 92 9 0 11 -20 7 -80z m725 -7 c2 -58 7 -85 18 -94 13 -11 15 -10
12 6 -2 13 4 21 17 23 16 4 17 2 7 -11 -7 -8 -11 -21 -10 -28 2 -10 -12 -15
-49 -17 -54 -3 -65 5 -37 29 13 10 15 29 12 96 -2 70 -1 83 12 81 12 -3 16
-22 18 -85z m-768 3 l0 -65 -37 5 c-81 11 -83 12 -83 48 0 30 4 35 48 54 71
31 72 30 72 -42z m844 39 c50 -22 56 -28 56 -54 0 -37 -3 -38 -65 -42 l-49 -3
-4 62 c-2 34 -2 62 1 62 2 0 30 -11 61 -25z m-1225 -9 c-12 -10 -49 -16 -49
-7 0 5 10 11 23 13 22 4 34 1 26 -6z m731 -66 c0 -67 0 -69 -27 -72 -16 -2
-43 -1 -60 1 l-33 3 0 60 0 60 31 -7 c24 -6 34 -3 45 14 27 38 44 15 44 -59z
m171 47 l29 11 0 -64 0 -64 -60 0 -60 0 0 69 c0 76 13 93 43 58 16 -18 22 -19
48 -10z m687 23 c10 0 13 -3 6 -10 -11 -11 -54 -2 -54 12 0 6 7 7 16 4 9 -3
23 -6 32 -6z m-788 -105 c0 -54 0 -55 -30 -55 -30 0 -30 1 -30 55 0 54 0 55
30 55 30 0 30 -1 30 -55z m-700 35 c0 -5 -4 -10 -9 -10 -5 0 -16 -3 -25 -6 -9
-3 -16 -1 -16 4 0 9 16 17 43 21 4 0 7 -3 7 -9z m1385 -1 c4 -6 5 -12 3 -14
-7 -7 -48 7 -48 16 0 13 37 11 45 -2z m-1120 -39 c8 -13 -5 -13 -25 0 -13 8
-13 10 2 10 9 0 20 -4 23 -10z m270 -50 c3 -5 2 -10 -4 -10 -5 0 -13 5 -16 10
-3 6 -2 10 4 10 5 0 13 -4 16 -10z m295 6 c0 -3 -4 -8 -10 -11 -5 -3 -10 -1
-10 4 0 6 5 11 10 11 6 0 10 -2 10 -4z m-200 -16 c0 -5 18 -10 40 -10 22 0 40
5 40 10 0 6 18 10 40 10 35 0 40 -3 40 -23 0 -23 -1 -23 -120 -23 -118 1 -120
1 -120 24 0 19 5 22 40 22 22 0 40 -4 40 -10z m-1975 -699 c18 -7 20 -16 17
-75 l-4 -66 88 0 c62 0 92 4 103 14 14 13 19 13 35 0 16 -11 17 -17 8 -26 -8
-8 -12 -49 -12 -119 0 -84 -3 -108 -14 -112 -10 -4 -16 2 -18 16 -3 21 -9 22
-95 25 l-93 3 0 -120 c0 -118 -3 -129 -36 -131 -4 0 -5 56 -5 125 l2 125 -88
0 c-81 0 -89 -2 -98 -22 -6 -12 -16 -23 -22 -26 -10 -3 -13 28 -13 133 0 131
1 135 19 125 11 -5 61 -10 111 -10 l92 0 -4 75 c-2 41 -1 75 2 74 3 0 14 -4
25 -8z m574 -18 c1 -1 -11 -20 -29 -42 -18 -22 -29 -45 -25 -51 12 -20 5 -224
-8 -232 -24 -15 -27 -6 -27 94 l0 102 -43 -42 c-23 -23 -46 -42 -49 -42 -4 0
17 33 46 74 29 40 62 94 75 120 19 42 24 46 39 35 9 -7 19 -14 21 -16z m131
17 c11 -7 14 -27 11 -91 l-3 -81 48 33 c27 18 65 48 86 67 l38 34 19 -23 c18
-22 18 -24 3 -28 -9 -2 -57 -28 -105 -59 l-88 -55 3 -41 3 -41 95 0 95 0 9 55
9 55 10 -45 c5 -25 13 -50 17 -55 5 -6 5 -17 0 -25 -7 -12 -37 -16 -128 -18
-135 -4 -152 3 -152 64 0 19 -3 34 -7 34 -5 0 -32 -9 -62 -20 -76 -29 -74 -18
4 18 l65 31 0 100 c0 56 3 101 8 101 4 0 14 -4 22 -10z m629 -11 c32 -11 39
-23 20 -34 -11 -7 -8 -44 11 -130 24 -113 90 -238 153 -291 18 -15 55 -37 82
-50 28 -13 43 -23 34 -23 -9 -1 -28 -10 -41 -21 l-25 -19 -41 35 c-86 73 -153
205 -177 344 -12 73 -12 74 -19 35 -31 -180 -59 -247 -133 -321 -47 -47 -149
-111 -160 -101 -2 3 6 11 19 18 48 26 141 125 169 181 35 70 56 164 65 293 4
52 8 95 9 95 1 0 16 -5 34 -11z m1261 -23 c-5 -5 -10 -29 -10 -53 l0 -43 86 0
86 0 -4 65 c-2 36 -1 65 2 65 3 -1 16 -7 29 -14 15 -8 20 -16 12 -20 -6 -4
-11 -27 -11 -52 l0 -44 47 0 c27 0 53 6 63 15 15 13 19 12 40 -10 l23 -25 -86
0 -87 0 0 -100 0 -100 47 0 c34 0 53 6 70 22 l23 21 25 -23 c14 -13 25 -26 25
-29 0 -8 -598 -6 -606 2 -4 4 36 7 89 7 l97 0 0 101 0 101 -72 -4 c-52 -2 -73
1 -76 10 -2 7 2 13 9 11 8 -1 42 -1 77 0 l63 1 -1 58 c-1 31 -1 60 -1 64 1 4
12 2 26 -4 18 -8 22 -15 15 -22z m705 -20 l-55 -9 0 -64 0 -63 34 0 c18 0 39
7 46 15 12 14 15 13 31 -4 11 -11 19 -23 19 -25 0 -3 -29 -3 -65 -1 l-65 5 0
-29 c0 -26 7 -33 55 -55 49 -22 55 -28 55 -55 0 -17 -3 -31 -6 -31 -3 0 -27
21 -52 47 l-47 46 -3 -146 c-2 -134 -4 -147 -22 -157 -20 -10 -20 -7 -20 142
l0 153 -34 -51 c-38 -57 -115 -138 -123 -130 -3 3 11 24 30 46 37 44 103 161
109 194 3 18 -3 20 -55 19 -31 -1 -60 3 -63 8 -3 5 26 9 65 9 l71 0 0 59 0 59
-67 -4 -68 -3 67 14 c37 8 93 25 125 38 l58 24 17 -21 c17 -21 16 -21 -37 -30z
m700 36 c141 -2 206 1 222 9 18 9 26 9 38 -1 11 -9 13 -16 5 -24 -6 -6 -10
-104 -10 -273 0 -169 -4 -263 -10 -263 -5 0 -13 0 -17 0 -5 1 -7 10 -5 20 3
19 -4 20 -207 20 l-211 0 0 -25 c0 -14 -2 -25 -4 -25 -2 0 -10 -2 -18 -5 -11
-4 -13 48 -13 290 0 259 2 294 15 288 8 -5 105 -9 215 -11z m-2020 -21 c134 0
162 2 177 16 18 16 20 15 41 -5 12 -12 16 -22 9 -22 -8 0 -12 -21 -12 -70 0
-59 -3 -71 -20 -80 -16 -9 -20 -8 -20 5 0 12 -14 15 -70 15 l-70 0 0 -32 c0
-76 3 -78 103 -78 66 0 95 4 107 15 15 13 19 12 40 -10 l23 -25 -131 0 -132 0
19 -50 c25 -66 73 -124 128 -157 40 -23 46 -24 60 -11 8 8 17 34 20 57 8 62
23 49 21 -19 -1 -35 3 -65 10 -72 24 -24 12 -31 -40 -25 -102 12 -197 103
-235 224 l-17 53 -88 0 -88 0 0 -100 c0 -55 4 -100 9 -100 5 0 39 14 77 30 37
17 68 29 70 27 2 -2 -36 -31 -85 -64 -81 -56 -90 -60 -103 -45 -10 14 -12 73
-10 285 l3 267 22 -14 c17 -11 60 -15 182 -15z m1517 -51 c47 0 69 4 78 15 12
14 15 14 32 -2 12 -11 15 -20 8 -27 -6 -6 -10 -83 -10 -198 0 -103 -2 -188 -4
-188 -2 0 -11 -3 -20 -6 -12 -5 -16 0 -16 19 0 24 -3 25 -65 29 -64 3 -65 3
-65 -23 0 -24 -16 -49 -32 -49 -4 0 -8 104 -8 232 0 223 1 231 18 215 13 -12
37 -17 84 -17z m-2821 -230 c14 -8 17 -16 11 -28 -4 -9 -7 -26 -7 -37 0 -18 8
-20 99 -23 88 -2 101 -1 121 18 l21 20 24 -25 23 -24 -144 -3 -144 -3 3 -77
c2 -69 0 -78 -18 -88 -19 -10 -20 -8 -20 80 l0 91 -135 -2 c-75 -1 -138 1
-142 5 -3 3 57 6 135 6 l142 0 0 50 c0 54 1 55 31 40z m1939 -85 c13 -14 18
-25 11 -25 -6 0 -40 -23 -74 -52 -77 -64 -167 -122 -175 -113 -4 4 1 11 10 16
51 29 188 168 188 191 0 15 17 8 40 -17z m183 -28 c89 -42 137 -81 137 -112 0
-42 -19 -37 -71 19 -28 31 -73 70 -100 87 -46 29 -57 39 -43 39 3 0 38 -15 77
-33z m-2183 -532 c0 -111 3 -137 15 -141 28 -11 15 -20 -35 -22 -48 -2 -67 10
-35 22 12 4 15 28 15 125 0 104 -2 120 -17 126 -17 7 -16 8 2 15 54 23 55 21
55 -125z m1572 79 l-4 -56 40 7 c33 5 44 2 68 -18 23 -20 29 -33 29 -66 0 -75
-60 -122 -139 -107 l-36 7 0 128 c0 113 -2 130 -17 136 -17 7 -16 8 2 15 11 5
29 9 40 9 18 1 20 -4 17 -55z m228 -79 c0 -111 3 -137 15 -141 30 -12 14 -20
-32 -17 -27 1 -50 2 -53 3 -3 0 3 5 13 11 15 9 17 26 17 128 0 104 -2 120 -17
126 -17 7 -16 8 2 15 54 23 55 21 55 -125z m816 124 c11 -18 -13 -34 -30 -19
-27 21 -46 5 -46 -40 0 -36 2 -40 26 -40 14 0 23 -4 19 -10 -3 -5 -15 -10 -26
-10 -17 0 -19 -7 -19 -70 0 -64 2 -72 23 -80 26 -10 19 -12 -45 -14 -27 0 -48
2 -48 7 0 4 4 7 9 7 5 0 11 34 13 75 2 55 0 75 -9 75 -18 0 -16 17 2 24 8 3
15 14 15 25 0 33 48 81 80 81 16 0 32 -5 36 -11z m424 -50 c0 -54 2 -60 18
-54 72 31 95 10 100 -89 2 -42 8 -76 13 -76 5 0 9 -3 9 -7 0 -5 -20 -8 -45 -8
-25 0 -45 3 -45 8 0 4 5 7 10 7 13 0 13 137 -1 145 -5 4 -21 4 -35 1 -22 -6
-24 -11 -24 -71 0 -35 5 -67 10 -70 21 -13 8 -21 -35 -20 -45 0 -58 8 -30 19
22 8 22 212 0 243 -14 20 -13 22 2 26 50 13 53 10 53 -54z m-126 41 c20 -7 26
-16 26 -41 l0 -31 -29 31 c-89 95 -200 -46 -135 -171 30 -58 97 -66 139 -17
29 36 39 34 29 -6 -8 -31 -38 -45 -95 -45 -125 0 -193 138 -116 233 36 46 125
69 181 47z m-3679 -12 c45 -20 48 -98 4 -131 -15 -10 -42 -19 -63 -19 l-36 0
0 -45 c0 -36 4 -46 20 -50 37 -10 20 -18 -40 -19 -33 0 -60 1 -60 3 0 2 9 12
20 23 17 17 20 33 20 119 0 92 -2 101 -22 115 -21 15 -18 16 54 16 43 0 89 -5
103 -12z m1555 -8 c28 -28 26 -76 -4 -103 l-25 -23 28 -44 c15 -25 35 -51 44
-59 42 -34 -4 -44 -47 -10 -15 11 -35 38 -46 59 -19 36 -42 55 -54 43 -3 -4
-6 -26 -6 -50 0 -36 4 -45 23 -53 27 -11 26 -11 -45 -14 -62 -3 -67 0 -41 19
15 11 18 30 18 120 0 94 -2 108 -19 121 -18 12 -10 14 67 14 74 0 90 -3 107
-20z m1133 6 c7 -19 -18 -40 -38 -32 -15 6 -20 28 -8 39 12 12 41 7 46 -7z
m1355 -9 c4 -20 -25 -34 -40 -19 -15 15 -1 44 19 40 10 -2 19 -11 21 -21z
m-2985 -22 c-6 -81 -26 -95 -38 -25 -8 45 0 63 23 58 12 -3 16 -13 15 -33z
m-855 -51 c16 -11 22 -24 20 -42 -3 -25 -7 -27 -55 -30 -43 -2 -53 -6 -53 -21
0 -32 35 -54 75 -48 41 7 45 -4 10 -27 -33 -22 -67 -20 -98 4 -48 38 -43 113
11 157 32 27 59 29 90 7z m221 -20 c32 -38 25 -108 -14 -141 -61 -53 -155 -7
-155 74 1 92 109 135 169 67z m123 25 c3 -9 9 -9 26 0 53 28 110 -28 98 -95
-8 -38 -55 -82 -97 -91 -24 -5 -29 -10 -29 -36 0 -17 8 -36 18 -43 15 -12 9
-13 -43 -13 -52 0 -58 1 -42 13 14 11 17 30 17 130 0 71 -4 116 -10 116 -23 0
-8 19 18 23 15 2 30 5 34 6 3 0 8 -4 10 -10z m408 -9 c24 -24 26 -56 4 -64 -9
-3 -33 -6 -55 -6 -31 0 -39 -4 -39 -17 0 -39 48 -70 79 -53 42 22 43 2 2 -23
-38 -22 -63 -21 -94 3 -34 27 -44 78 -23 118 31 60 89 79 126 42z m271 -6 c13
-35 3 -44 -17 -16 -16 23 -48 29 -59 11 -8 -11 22 -49 38 -49 21 0 47 -34 47
-61 0 -32 -32 -59 -70 -59 -34 0 -47 10 -55 43 -8 31 10 38 20 7 7 -23 51 -38
67 -22 14 14 3 28 -43 58 -31 19 -39 30 -39 54 0 57 91 85 111 34z m548 0 c38
-48 24 -64 -55 -64 -42 0 -45 -2 -39 -22 14 -46 43 -59 95 -44 l25 7 -28 -25
c-44 -40 -97 -34 -122 15 -25 48 -19 87 19 125 42 42 76 44 105 8z m113 16 c2
-7 14 -6 35 2 29 11 36 10 60 -8 21 -16 29 -31 31 -62 2 -23 -2 -51 -8 -62
-14 -27 -68 -60 -97 -60 -19 0 -23 -5 -23 -33 0 -25 6 -37 23 -45 19 -9 13
-11 -37 -11 -57 -1 -58 0 -43 17 24 26 25 230 2 238 -24 9 -18 22 13 27 15 2
30 5 34 6 3 0 8 -4 10 -9z m340 -69 c-2 -53 1 -73 14 -85 20 -20 18 -22 -23
-31 -27 -5 -33 -3 -33 10 0 15 -2 15 -22 1 -28 -20 -62 -20 -78 -1 -6 8 -13
45 -14 82 -1 41 -7 68 -14 71 -25 8 -10 22 23 22 l35 0 0 -69 c0 -75 13 -98
50 -86 17 6 20 15 20 71 0 50 -3 64 -15 64 -8 0 -15 4 -15 9 0 9 59 20 70 13
2 -2 3 -34 2 -71z m459 -5 c1 -50 7 -82 15 -91 20 -20 19 -20 -36 -20 -49 -1
-64 7 -35 19 23 9 21 132 -2 145 -15 8 -16 10 -3 15 17 5 54 13 57 11 1 0 3
-36 4 -79z m198 75 c8 -5 11 -16 8 -25 -6 -15 -9 -15 -38 -1 -29 15 -32 15
-50 -1 -28 -25 -25 -79 6 -110 15 -15 32 -23 40 -20 8 3 22 9 30 12 23 9 18
-13 -7 -30 -45 -32 -101 -15 -123 38 -22 52 -6 93 50 128 33 19 62 23 84 9z
m294 -22 c53 -66 21 -155 -60 -166 -37 -5 -46 -2 -73 25 -32 32 -40 84 -20
122 27 51 118 62 153 19z m883 -145 c12 -10 5 -13 -35 -15 -28 -2 -51 -1 -51
4 0 4 5 7 10 7 6 0 10 32 10 75 0 52 -4 75 -12 75 -21 0 6 18 32 22 25 3 25 2
28 -77 2 -58 7 -83 18 -91z m131 161 c33 22 71 12 83 -21 6 -14 10 -52 10 -85
0 -33 4 -59 10 -59 6 0 10 -4 10 -8 0 -9 -77 -8 -87 2 -3 3 -1 6 5 6 8 0 12
23 12 70 0 75 -14 95 -49 73 -19 -12 -28 -120 -12 -136 19 -19 12 -25 -34 -24
-45 0 -58 10 -30 21 23 9 21 132 -2 145 -15 8 -16 10 -3 15 34 11 55 11 58 -2
3 -10 9 -10 29 3z m261 -1 c19 -13 22 -24 22 -79 0 -49 4 -66 17 -73 14 -9 14
-11 -5 -21 -16 -9 -26 -8 -42 1 -15 10 -22 10 -32 0 -29 -29 -78 -1 -78 45 0
20 9 28 50 46 52 22 63 44 35 67 -12 10 -18 10 -30 0 -8 -7 -15 -19 -15 -27 0
-17 -31 -14 -37 4 -5 14 53 53 77 53 9 0 26 -7 38 -16z m-3240 -865 c2 -14 -3
-31 -11 -38 -12 -10 -21 0 -51 54 -20 36 -36 68 -36 71 0 3 21 -9 48 -28 31
-23 48 -43 50 -59z m-339 67 c15 -8 20 -16 12 -20 -6 -4 -11 -36 -11 -77 0
-77 13 -88 55 -49 l21 20 24 -25 23 -25 -61 0 -62 0 0 -75 0 -74 46 19 c72 31
85 23 19 -13 l-60 -32 -5 -151 c-4 -131 -8 -155 -24 -173 -24 -26 -38 -26 -60
-2 -10 11 -31 25 -47 31 -16 7 -29 16 -29 21 0 8 22 6 71 -7 9 -3 24 3 33 11
13 13 16 39 16 131 0 63 -4 114 -8 114 -4 0 -29 -13 -55 -30 l-46 -29 -16 22
c-19 27 -19 37 -1 37 8 0 40 10 71 22 l56 21 -3 76 -3 76 -55 1 c-78 2 -80 3
-80 15 0 6 22 10 58 9 31 -1 63 -1 71 -1 11 1 13 17 8 86 -6 91 -4 96 42 71z
m2725 -11 c14 -10 16 -18 9 -27 -6 -7 -15 -36 -21 -63 -16 -77 -29 -104 -55
-116 -21 -9 -28 -7 -50 15 -14 14 -31 26 -37 26 -5 0 -10 3 -10 8 0 4 20 6 45
4 50 -4 57 4 68 86 l5 42 -68 0 -67 0 -13 -45 c-18 -64 -62 -129 -111 -165
-60 -43 -68 -37 -19 16 38 42 77 112 95 173 7 23 6 24 -39 19 -32 -4 -49 -1
-57 8 -10 12 12 14 134 14 86 0 148 4 152 10 8 13 16 12 39 -5z m-491 -25 c42
0 59 4 63 15 8 20 27 19 48 -4 15 -17 15 -19 0 -32 -14 -11 -15 -38 -13 -209
l4 -195 -23 -3 c-17 -3 -22 2 -22 17 0 19 -6 21 -60 21 -57 0 -60 -1 -60 -25
0 -14 -8 -29 -20 -35 -20 -11 -20 -8 -20 235 l0 246 22 -15 c14 -10 44 -16 81
-16z m-1728 -116 c-14 -10 -16 -29 -14 -110 3 -91 2 -98 -19 -112 -21 -14 -22
-13 -22 12 l0 26 -130 0 -130 0 0 -32 c0 -90 -58 -217 -131 -290 -60 -60 -76
-57 -26 4 88 107 112 193 112 395 0 112 3 153 12 153 6 0 15 -4 18 -10 4 -6
61 -10 139 -10 108 0 136 3 146 15 12 14 16 13 37 -7 22 -20 23 -24 8 -34z
m2209 -103 c11 -12 14 -21 7 -26 -6 -3 -11 -40 -11 -85 0 -64 -3 -79 -17 -84
-10 -4 -20 -1 -25 9 -7 12 -28 15 -93 15 -46 0 -87 -4 -90 -10 -3 -5 -15 -15
-26 -20 -18 -10 -19 -7 -19 100 0 106 1 110 19 100 11 -5 63 -10 116 -10 76 0
97 3 101 15 8 20 17 19 38 -4z m-154 -356 c0 -29 -15 -55 -31 -55 -4 0 -12 21
-18 48 -7 26 -21 61 -31 79 -28 48 -11 48 37 1 32 -32 43 -50 43 -73z m148 67
c58 -47 69 -70 48 -111 -19 -36 -31 -34 -40 6 -4 16 -23 53 -42 85 -50 82 -46
85 34 20z m-535 -90 c-12 -24 -26 -38 -42 -40 -40 -6 -47 13 -16 50 15 18 37
53 49 78 l21 45 3 -48 c2 -32 -3 -61 -15 -85z m171 86 c41 -47 46 -86 16 -113
-18 -17 -19 -16 -25 11 -3 16 -13 55 -24 87 -10 31 -15 57 -10 57 4 0 24 -19
43 -42z m-1529 -424 c11 -5 15 -22 15 -60 0 -64 -19 -73 -39 -19 -24 68 -131
65 -131 -3 0 -40 18 -57 80 -77 30 -10 68 -31 84 -47 26 -26 28 -34 24 -80 -9
-93 -87 -135 -198 -107 l-55 14 -3 58 c-4 69 17 78 40 18 13 -33 23 -41 56
-50 65 -18 102 5 102 63 0 30 -24 50 -87 70 -72 24 -103 57 -103 112 0 34 7
51 30 78 17 19 41 37 53 39 25 6 109 -1 132 -9z m311 5 l45 -12 -3 -51 c-4
-61 -20 -67 -46 -17 -29 58 -114 62 -128 6 -10 -39 17 -69 85 -94 94 -34 125
-82 101 -156 -22 -68 -100 -98 -195 -75 -58 14 -65 23 -65 93 0 49 24 50 45 2
29 -70 124 -83 154 -21 12 25 11 31 -6 55 -12 16 -41 33 -74 44 -30 10 -64 28
-76 40 -51 51 -31 145 37 179 41 21 65 22 126 7z m751 -25 c46 -35 73 -95 73
-164 0 -72 -15 -122 -47 -160 -73 -87 -220 -74 -278 24 -28 49 -33 171 -7 228
19 45 68 91 107 101 43 12 117 -2 152 -29z m-1791 7 c52 -24 71 -68 55 -129
-17 -61 -52 -87 -117 -87 l-54 0 0 -62 c0 -58 2 -63 25 -69 14 -3 25 -12 25
-20 0 -11 -18 -14 -80 -14 -62 0 -80 3 -80 14 0 8 11 17 25 20 l25 6 0 160 0
160 -25 6 c-14 3 -25 12 -25 20 0 23 174 19 226 -5z m362 -163 c47 -127 70
-179 84 -184 10 -3 18 -12 18 -20 0 -12 -14 -14 -72 -12 -46 2 -73 7 -76 16
-2 7 5 12 18 12 19 0 22 4 17 28 -15 76 -22 82 -85 82 l-59 0 -17 -45 c-18
-47 -15 -65 10 -65 9 0 14 -6 12 -12 -5 -14 -90 -23 -116 -13 -13 5 -12 10 10
28 19 16 42 65 82 176 31 84 61 162 67 173 23 43 42 15 107 -164z m1015 168
c61 -26 84 -74 66 -139 -15 -56 -52 -82 -115 -82 l-54 0 0 -62 c0 -58 2 -63
25 -69 14 -3 25 -12 25 -20 0 -11 -18 -14 -80 -14 -62 0 -80 3 -80 14 0 8 11
17 25 20 l25 6 0 159 0 159 -25 6 c-14 4 -25 13 -25 21 0 20 166 21 213 1z
m771 0 c80 -34 89 -123 18 -183 l-26 -22 49 -71 c29 -42 58 -73 72 -76 42 -11
27 -34 -21 -34 -51 0 -56 4 -121 99 -64 94 -85 96 -85 7 0 -63 1 -64 32 -75
51 -18 20 -32 -62 -29 -75 3 -104 20 -55 32 l25 6 0 160 0 160 -25 6 c-25 6
-31 15 -18 27 12 13 183 7 217 -7z m486 -41 c0 -65 -22 -76 -40 -20 -11 32
-15 35 -51 35 l-39 0 0 -160 0 -160 25 -6 c14 -3 25 -13 25 -20 0 -12 -16 -14
-82 -12 -85 3 -108 16 -61 34 l28 10 0 155 -1 154 -41 3 c-39 3 -41 2 -47 -32
-10 -55 -33 -46 -38 15 -1 28 -1 53 1 55 2 2 76 4 163 4 l158 0 0 -55z m-1002
-1112 l-3 -128 -143 -3 -143 -3 -14 33 c-20 46 -35 62 -72 81 -71 37 -151 7
-188 -70 l-20 -43 -135 3 -135 2 -3 114 c-1 63 0 121 2 128 4 10 89 13 431 13
l426 0 -3 -127z m-362 -67 c74 -74 25 -186 -81 -186 -55 0 -105 52 -105 110 0
34 6 48 34 76 28 28 42 34 76 34 34 0 48 -6 76 -34z m-216 -97 c0 -27 35 -80
65 -99 42 -26 110 -26 149 -1 33 22 66 68 66 94 0 15 14 17 150 17 l150 0 0
-125 0 -125 -430 0 -430 0 0 118 c0 65 3 122 7 125 12 12 273 8 273 -4z"/>
<path d="M3240 8843 c-96 -7 -149 -23 -171 -51 -20 -26 -55 -51 -72 -52 -16 0
14 40 41 54 17 10 21 15 11 16 -9 0 -33 -18 -52 -39 -37 -41 -75 -67 -84 -57
-9 9 26 50 54 62 21 9 23 13 9 13 -10 1 -45 -27 -80 -63 l-61 -64 35 -6 c55
-9 98 -7 106 5 4 8 -1 9 -16 4 -12 -4 -37 -4 -57 0 -28 5 -32 9 -23 20 12 15
57 17 75 4 19 -13 80 -19 95 -9 11 7 6 10 -20 10 -57 0 -82 10 -69 26 14 18
34 17 84 -1 42 -15 104 -20 91 -8 -4 4 -19 8 -34 10 -75 9 -76 10 -35 52 44
44 98 61 197 61 37 0 66 4 66 10 0 6 -10 9 -22 8 -13 -1 -43 -3 -68 -5z"/>
<path d="M3415 8840 c-4 -6 18 -10 59 -10 86 0 160 -17 182 -41 28 -31 8 -34
-47 -6 -28 15 -58 27 -67 26 -10 -1 -7 -4 7 -8 68 -19 -15 -51 -94 -37 -22 4
-35 3 -35 -4 0 -6 25 -10 59 -10 33 0 62 -4 65 -8 3 -5 -21 -7 -52 -4 -79 6
-61 -6 20 -14 58 -6 70 -4 93 14 27 22 78 23 98 3 9 -9 -11 -15 -75 -25 -10
-1 -21 -5 -24 -9 -13 -12 38 -7 98 9 54 16 61 16 75 1 14 -14 13 -16 -21 -22
-20 -4 -45 -5 -56 -2 -11 3 -20 1 -20 -4 0 -14 85 -14 105 0 18 13 63 11 75
-4 9 -11 5 -15 -23 -20 -20 -4 -45 -4 -57 0 -15 5 -20 4 -16 -4 8 -12 51 -14
106 -5 l35 5 -60 65 c-37 39 -68 64 -80 63 -15 0 -12 -4 12 -15 41 -17 70 -64
40 -64 -7 0 -35 23 -62 50 -27 28 -56 50 -65 50 -8 -1 -3 -7 12 -16 25 -13 57
-54 43 -54 -16 0 -52 25 -75 51 -19 22 -38 31 -80 38 -102 17 -169 21 -175 11z
m195 -78 c0 -14 -39 -32 -46 -21 -4 6 0 15 7 20 17 11 39 12 39 1z"/>
<path d="M3263 8813 c15 -2 39 -2 55 0 15 2 2 4 -28 4 -30 0 -43 -2 -27 -4z"/>
<path d="M3423 8813 c15 -2 39 -2 55 0 15 2 2 4 -28 4 -30 0 -43 -2 -27 -4z"/>
<path d="M3150 8790 c-14 -11 -35 -20 -48 -20 -13 0 -20 -4 -17 -10 3 -5 14
-10 24 -10 10 0 24 -7 31 -15 14 -16 83 -19 135 -4 23 6 18 7 -27 5 -53 -2
-56 -1 -48 18 6 18 17 21 74 24 36 2 66 7 66 12 0 11 -118 2 -142 -11 -24 -13
-40 -11 -36 3 3 7 15 15 29 19 20 6 20 7 4 8 -11 0 -31 -8 -45 -19z m29 -36
c1 -1 0 -7 -3 -13 -8 -12 -46 7 -46 22 0 7 38 0 49 -9z"/>
<path d="M3405 8792 c11 -12 135 -21 135 -9 0 4 -24 7 -54 7 -30 0 -63 3 -73
6 -12 5 -15 4 -8 -4z"/>
<path d="M3250 8760 l-45 -7 58 -1 c32 -1 57 2 57 8 0 11 -1 11 -70 0z"/>
<path d="M2565 8560 c-112 -92 -155 -143 -155 -185 0 -39 -15 -75 -30 -75 -14
0 -12 31 4 63 17 30 10 36 -10 10 -7 -10 -14 -39 -14 -64 0 -31 -6 -55 -20
-70 l-19 -24 -1 33 c0 18 7 45 16 60 l16 27 -21 -24 c-15 -17 -21 -36 -21 -74
0 -48 1 -49 18 -34 10 9 38 23 62 32 45 16 80 41 80 57 0 6 -13 -2 -30 -15
-31 -27 -68 -43 -77 -34 -14 15 23 47 72 62 30 10 60 25 67 33 7 8 9 13 3 11
-101 -47 -121 -46 -67 2 24 21 42 29 62 27 22 -2 43 10 96 57 95 81 107 93 52
55 -26 -18 -57 -43 -69 -56 -12 -13 -27 -24 -32 -24 -15 0 29 45 91 93 30 22
49 43 43 45 -6 2 -9 8 -5 13 12 20 -12 6 -82 -47 -41 -30 -74 -61 -74 -69 0
-16 -18 -30 -27 -21 -11 11 27 54 96 107 39 29 71 58 71 62 0 5 -18 -6 -40
-23 -52 -41 -64 -33 -14 9 21 17 36 32 33 34 -2 2 -36 -22 -74 -53z m105 -14
c0 -2 -31 -29 -70 -60 -38 -31 -70 -51 -70 -46 0 5 28 32 63 59 56 45 77 58
77 47z m-141 -49 c-26 -23 -49 -54 -53 -69 -6 -26 -5 -27 18 -18 24 9 36 5 36
-12 0 -5 -16 -8 -35 -7 -19 2 -40 -2 -47 -9 -19 -19 -26 -14 -20 16 5 27 116
142 136 142 6 -1 -10 -20 -35 -43z"/>
<path d="M4100 8613 c0 -4 16 -21 36 -36 19 -16 33 -31 30 -34 -3 -3 -23 9
-46 27 -23 18 -43 30 -46 28 -2 -3 29 -30 69 -61 95 -73 114 -94 99 -109 -8
-8 -14 -5 -21 13 -5 14 -40 48 -79 77 -68 50 -90 62 -78 43 4 -5 1 -11 -5 -13
-5 -2 20 -27 56 -57 37 -29 64 -55 61 -58 -3 -3 -27 12 -53 34 -56 46 -92 67
-48 28 128 -114 140 -122 170 -118 24 4 36 -2 59 -26 47 -49 32 -49 -69 -2 -5
2 -4 -3 4 -12 7 -10 38 -24 67 -33 30 -8 58 -23 64 -32 7 -13 9 -7 10 25 0 46
-14 93 -29 93 -5 0 -3 -12 5 -27 16 -33 18 -63 4 -63 -14 0 -30 44 -30 81 0
21 -12 43 -42 76 -49 52 -188 168 -188 156z m49 -115 c34 -27 61 -53 61 -58 0
-6 -31 15 -70 46 -65 53 -83 70 -61 62 5 -1 37 -24 70 -50z m99 -18 c44 -44
62 -68 62 -87 0 -22 -2 -24 -16 -12 -9 7 -31 12 -50 10 -21 -1 -34 2 -34 9 0
8 11 11 30 8 27 -4 29 -3 24 21 -4 14 -27 45 -53 68 -25 23 -41 42 -36 43 6 0
39 -27 73 -60z m-53 -60 c3 -5 1 -10 -4 -10 -6 0 -11 5 -11 10 0 6 2 10 4 10
3 0 8 -4 11 -10z"/>
<path d="M3936 8580 c5 -5 25 -12 44 -15 l35 -5 -35 14 c-42 18 -58 20 -44 6z"/>
<path d="M4399 8318 c7 -10 15 -36 17 -59 3 -36 2 -40 -12 -28 -8 7 -27 14
-41 15 -15 2 -39 12 -54 24 -36 26 -47 26 -24 0 10 -11 37 -25 59 -32 23 -6
49 -18 59 -26 17 -15 24 -42 10 -42 -15 0 -73 40 -73 50 0 5 -5 10 -10 10 -20
0 14 -39 50 -57 19 -10 44 -25 54 -33 18 -14 19 -14 11 5 -5 11 -11 50 -13 87
-3 53 -8 70 -25 85 -18 15 -19 15 -8 1z"/>
<path d="M4450 8232 c6 -13 15 -42 20 -65 l8 -42 1 41 c1 29 -5 49 -20 65
l-20 24 11 -23z"/>
<path d="M2399 8214 c-17 -21 -68 -46 -79 -39 -8 5 -30 -24 -30 -39 0 -11 112
60 121 77 12 21 6 22 -12 1z"/>
<path d="M2187 7953 c-4 -3 -7 -11 -7 -17 0 -6 5 -5 12 2 6 6 9 14 7 17 -3 3
-9 2 -12 -2z"/>
<path d="M4536 7934 c-4 -15 -5 -29 -1 -32 3 -3 5 2 5 11 0 34 18 16 25 -25 8
-45 24 -85 25 -60 0 22 -31 121 -40 127 -4 3 -11 -7 -14 -21z"/>
<path d="M4517 7868 c9 -46 19 -87 23 -91 3 -4 0 30 -9 77 -9 46 -19 87 -22
91 -4 3 0 -31 8 -77z"/>
<path d="M2202 7910 c0 -14 4 -38 8 -55 7 -27 8 -27 8 -5 0 14 -4 39 -8 55 -7
27 -8 27 -8 5z"/>
<path d="M2221 7914 c0 -11 3 -14 6 -6 3 7 2 16 -1 19 -3 4 -6 -2 -5 -13z"/>
<path d="M4483 7890 c6 -22 13 -38 15 -36 6 7 -10 76 -18 76 -4 0 -2 -18 3
-40z"/>
<path d="M2158 7865 c-8 -30 -12 -55 -7 -55 8 0 32 100 26 106 -2 2 -11 -21
-19 -51z"/>
<path d="M4540 7885 c0 -5 7 -32 15 -60 l15 -50 -6 45 c-6 40 -23 90 -24 65z"/>
<path d="M2175 7835 c-3 -26 -4 -49 -2 -51 3 -3 8 16 12 41 3 26 4 49 2 51 -3
3 -8 -16 -12 -41z"/>
<path d="M2202 7800 c0 -14 2 -19 5 -12 2 6 2 18 0 25 -3 6 -5 1 -5 -13z"/>
<path d="M4140 8364 c0 -5 7 -19 15 -30 8 -10 15 -14 15 -8 0 5 -7 19 -15 30
-8 10 -15 14 -15 8z"/>
<path d="M4530 7188 c0 -4 -16 -43 -35 -87 -19 -45 -31 -81 -26 -81 10 0 74
161 66 168 -3 3 -5 3 -5 0z"/>
<path d="M4443 7123 c-30 -75 -21 -81 12 -8 28 64 28 65 18 65 -5 0 -18 -26
-30 -57z"/>
<path d="M3023 7162 c-7 -4 -14 -19 -15 -32 -3 -21 2 -26 25 -28 21 -3 27 1
27 15 0 27 -23 54 -37 45z"/>
<path d="M3090 7151 c-17 -33 -12 -51 14 -51 32 0 39 12 26 44 -11 31 -25 33
-40 7z"/>
<path d="M3160 7144 c-13 -32 -6 -44 26 -44 26 0 31 18 14 51 -15 26 -29 24
-40 -7z"/>
<path d="M3240 7151 c-17 -33 -12 -48 19 -53 17 -2 30 -2 29 1 -2 20 4 22 21
7 25 -23 109 -19 125 7 19 30 -4 52 -58 54 -36 1 -52 -3 -68 -19 -16 -16 -22
-18 -29 -7 -5 8 -9 17 -9 22 0 14 -20 7 -30 -12z"/>
<path d="M3461 7139 c-6 -18 -11 -34 -11 -35 0 -2 14 -4 30 -4 32 0 38 16 20
51 -15 27 -26 24 -39 -12z"/>
<path d="M3541 7153 c-19 -37 -14 -53 19 -53 35 0 39 17 11 51 l-18 23 -12
-21z"/>
<path d="M3610 7144 c-15 -39 -13 -44 20 -44 32 0 38 16 20 51 -15 26 -29 24
-40 -7z"/>
<path d="M3692 7158 c-7 -7 -12 -22 -12 -35 0 -18 6 -23 24 -23 32 0 39 13 25
44 -14 29 -20 31 -37 14z"/>
<path d="M2836 6508 c43 -74 106 -113 206 -127 58 -8 171 -2 182 10 3 3 -43 5
-102 4 -98 0 -112 2 -165 28 -31 16 -69 44 -83 63 -25 32 -54 49 -38 22z"/>
<path d="M3055 6435 c34 -16 172 -20 195 -5 10 6 -11 9 -65 9 -44 -1 -98 2
-120 5 l-40 6 30 -15z"/>
<path d="M3856 6478 c-63 -66 -113 -83 -238 -83 -59 0 -105 -1 -103 -4 13 -13
118 -19 177 -11 101 15 175 55 204 112 20 39 6 34 -40 -14z"/>
<path d="M3677 6444 c-3 -4 -52 -6 -109 -6 -64 0 -95 -3 -83 -8 31 -13 155
-10 200 5 25 8 32 13 19 14 -11 1 -23 -2 -27 -5z"/>
<path d="M3180 6312 c0 -16 76 -81 112 -97 75 -31 159 -13 224 47 24 22 44 45
44 50 0 6 -18 -8 -40 -30 -28 -29 -55 -46 -95 -57 -51 -15 -59 -15 -110 0 -38
11 -68 28 -95 55 -22 22 -40 36 -40 32z"/>
<path d="M1150 5021 l0 -91 90 0 91 0 -3 88 -3 87 -87 3 -88 3 0 -90z"/>
<path d="M1370 5020 l0 -91 93 3 92 3 0 85 0 85 -92 3 -93 3 0 -91z"/>
<path d="M3940 5010 l0 -101 83 3 82 3 3 98 3 97 -86 0 -85 0 0 -100z"/>
<path d="M5160 4990 l0 -240 207 2 207 3 -2 200 c-1 110 -2 217 -2 238 l0 37
-205 0 -205 0 0 -240z m373 180 c23 -27 22 -30 -15 -28 -18 1 -57 1 -86 0
l-53 -2 3 -57 c3 -58 3 -58 36 -61 21 -2 41 3 51 12 16 15 19 14 36 -4 18 -20
18 -20 -21 -21 -21 0 -52 -2 -69 -2 l-30 -2 0 -85 0 -85 39 -3 c28 -3 44 2 60
17 l22 21 23 -24 23 -25 -173 -3 c-184 -3 -249 4 -114 12 l80 5 0 85 0 85 -56
0 c-32 0 -60 3 -65 8 -4 4 23 7 59 7 l67 0 0 60 0 60 -69 0 c-39 0 -73 5 -76
10 -4 6 43 10 133 10 112 0 142 3 152 15 16 20 22 19 43 -5z m-72 -213 c19
-13 35 -33 37 -46 7 -46 -14 -40 -51 14 -40 60 -38 67 14 32z"/>
<path d="M3170 5155 l0 -55 170 0 170 0 0 55 0 55 -170 0 -170 0 0 -55z"/>
<path d="M3170 5025 l0 -55 85 0 c94 0 94 0 79 79 l-6 31 -79 0 -79 0 0 -55z"/>
<path d="M4790 4995 l0 -165 65 0 65 0 0 165 0 165 -65 0 -65 0 0 -165z"/>
<path d="M3547 4293 c-11 -10 -8 -102 3 -124 24 -44 80 -5 80 56 0 17 -7 41
-16 53 -14 21 -53 30 -67 15z"/>
<path d="M1123 4393 c-16 -6 -18 -119 -3 -128 5 -3 22 0 37 7 22 10 29 21 31
51 4 51 -26 83 -65 70z"/>
<path d="M2663 4393 c-9 -3 -13 -25 -13 -64 0 -55 1 -59 23 -59 32 0 57 30 57
67 0 39 -35 67 -67 56z"/>
<path d="M1330 4291 c-15 -29 -13 -31 25 -31 35 0 40 5 29 34 -8 22 -41 20
-54 -3z"/>
<path d="M1519 4289 c-13 -26 -7 -103 11 -124 18 -22 47 -18 61 6 13 26 7 103
-11 124 -18 22 -47 18 -61 -6z"/>
<path d="M1757 4293 c-4 -3 -7 -35 -7 -69 0 -56 2 -63 22 -70 48 -15 81 92 40
129 -19 18 -44 22 -55 10z"/>
<path d="M2080 4291 c-15 -29 -13 -31 25 -31 36 0 46 15 23 38 -18 18 -36 15
-48 -7z"/>
<path d="M2902 4298 c-22 -22 -14 -38 19 -38 26 0 30 3 27 22 -3 26 -28 34
-46 16z"/>
<path d="M3102 4288 c-17 -17 -15 -113 3 -128 39 -32 87 38 65 96 -17 43 -44
56 -68 32z"/>
<path d="M4280 4291 c-27 -51 -1 -141 41 -141 38 0 51 106 19 145 -17 21 -47
19 -60 -4z"/>
<path d="M5604 4222 c-19 -13 -23 -40 -9 -52 23 -19 45 -4 45 30 0 29 -13 38
-36 22z"/>
<path d="M4260 3462 c-6 -2 -10 -39 -10 -83 l0 -79 60 0 60 0 0 83 0 82 -50 0
c-27 0 -54 -1 -60 -3z"/>
<path d="M4250 3195 l0 -85 60 0 60 0 0 85 0 85 -60 0 -60 0 0 -85z"/>
<path d="M2277 3363 c-4 -3 -7 -42 -7 -85 l0 -78 130 0 130 0 0 85 0 85 -123
0 c-68 0 -127 -3 -130 -7z"/>
<path d="M4562 3168 l3 -63 90 0 90 0 3 63 3 62 -96 0 -96 0 3 -62z"/>
<path d="M3801 2504 c-34 -24 -51 -75 -51 -151 1 -111 39 -173 107 -173 66 0
103 59 103 167 0 133 -80 212 -159 157z"/>
<path d="M2050 2430 l0 -80 33 0 c38 0 50 7 66 37 29 55 -8 123 -69 123 l-30
0 0 -80z"/>
<path d="M2407 2393 c-9 -27 -17 -51 -17 -55 0 -5 18 -8 41 -8 35 0 40 3 34
18 -3 9 -12 34 -18 55 -7 20 -14 37 -17 37 -4 0 -14 -21 -23 -47z"/>
<path d="M3440 2430 l0 -80 33 0 c46 0 72 30 72 82 0 47 -30 78 -76 78 l-29 0
0 -80z"/>
<path d="M4202 2438 c3 -72 3 -73 32 -76 39 -5 76 31 76 75 0 44 -30 73 -75
73 l-36 0 3 -72z"/>
</g>


</svg>

