<?xml version="1.0" standalone="no"?>
<!DOCTYPE svg PUBLIC "-//W3C//DTD SVG 20010904//EN"
 "http://www.w3.org/TR/2001/REC-SVG-20010904/DTD/svg10.dtd">
<svg version="1.0" xmlns="http://www.w3.org/2000/svg"
 width="674.000000pt" height="1000.000000pt" viewBox="0 0 674.000000 1000.000000"
 preserveAspectRatio="xMidYMid meet">
<rect width="674.000000pt" height="1000.000000pt" fill="#F9C769" />
<g transform="translate(0.000000,1000.000000) scale(0.100000,-0.100000)"
fill="#0F1839" stroke="none">
<path d="M0 5000 l0 -5000 3370 0 3370 0 0 5000 0 5000 -3370 0 -3370 0 0
-5000z m4195 4060 c52 -22 111 -88 126 -142 7 -24 13 -74 12 -113 -1 -171
-117 -285 -288 -285 -181 0 -286 118 -272 306 13 179 133 274 322 256 33 -3
78 -13 100 -22z m-2537 -14 c47 -24 66 -60 66 -122 -2 -105 -72 -164 -197
-164 l-67 0 0 -94 0 -94 35 -12 c19 -6 33 -16 30 -21 -7 -10 -228 -12 -239 -2
-4 4 8 14 26 23 l33 15 2 228 2 228 -37 17 -37 17 125 5 c143 6 213 -1 258
-24z m476 -169 c107 -314 103 -304 136 -316 60 -21 32 -31 -84 -31 -117 0
-150 10 -96 29 36 12 36 14 9 84 -21 55 -22 56 -70 62 -84 12 -105 2 -129 -61
-25 -69 -25 -73 5 -84 49 -19 26 -30 -60 -30 -88 0 -110 12 -56 31 31 11 44
39 177 374 80 202 79 202 168 -58z m546 187 c13 -13 -10 -130 -25 -127 -5 1
-16 24 -23 52 -12 42 -19 51 -42 56 -35 8 -95 -16 -109 -43 -16 -30 -13 -67 7
-91 9 -12 53 -41 97 -64 68 -36 83 -49 103 -87 77 -153 -69 -274 -277 -229
l-50 11 6 46 c15 114 31 125 53 37 l15 -60 53 -3 c47 -3 56 0 82 27 34 33 39
74 15 108 -8 11 -45 38 -82 58 -87 47 -121 80 -134 128 -20 74 11 140 83 177
37 18 56 21 131 18 48 -3 92 -9 97 -14z m439 0 c11 -11 -10 -124 -23 -127 -5
-1 -15 20 -22 47 -7 27 -19 53 -26 57 -39 25 -123 -11 -134 -57 -15 -58 4 -79
135 -153 77 -44 107 -96 96 -169 -16 -108 -141 -164 -295 -131 l-50 11 6 51
c8 62 22 102 32 93 4 -4 14 -33 22 -64 l15 -57 53 -3 c47 -3 56 0 82 27 59 58
33 118 -72 168 -35 17 -73 40 -85 52 -83 79 -62 204 41 253 33 15 58 18 129
15 48 -2 91 -7 96 -13z m474 -8 c81 -34 109 -121 65 -206 -32 -62 -88 -90
-180 -90 l-68 0 0 -94 0 -94 35 -12 c63 -21 37 -30 -86 -30 -91 0 -120 3 -117
12 3 7 15 15 29 18 l24 6 3 233 2 233 -30 11 c-16 6 -30 15 -30 19 0 15 318 9
353 -6z m1201 0 c50 -21 76 -60 76 -115 0 -58 -26 -102 -74 -125 -20 -9 -36
-20 -35 -24 0 -4 31 -54 67 -112 48 -76 76 -109 99 -120 18 -8 33 -18 33 -22
0 -15 -145 -9 -167 7 -12 9 -45 57 -74 108 -57 102 -76 127 -96 127 -10 0 -13
-24 -13 -105 0 -103 1 -106 25 -115 53 -20 25 -30 -85 -30 -112 0 -140 11 -80
31 l30 11 0 230 0 230 -30 11 c-16 6 -30 15 -30 19 0 15 318 9 354 -6z m652
-53 c-6 -36 -16 -68 -22 -70 -7 -2 -17 18 -24 47 l-12 50 -54 0 -54 0 0 -229
0 -229 35 -12 c66 -22 37 -31 -92 -28 -126 3 -159 14 -94 31 l31 8 0 229 0
230 -54 0 -53 0 -13 -45 c-12 -41 -26 -63 -35 -54 -2 2 -6 34 -10 72 l-7 67
234 0 235 0 -11 -67z m-2048 -1688 c29 -24 30 -24 47 -5 42 46 127 30 164 -31
11 -18 22 -26 25 -20 11 17 88 13 112 -7 26 -21 44 -54 44 -81 0 -17 6 -21 36
-21 28 0 44 -8 71 -35 33 -33 35 -39 30 -80 -3 -33 -1 -45 8 -45 8 0 27 -12
44 -26 38 -32 49 -81 27 -125 -15 -30 -15 -33 9 -61 14 -16 28 -41 31 -54 8
-31 -12 -79 -42 -103 -21 -16 -22 -20 -9 -37 35 -47 6 -135 -53 -156 -28 -11
-32 -16 -27 -38 3 -15 1 -39 -4 -53 -6 -15 -9 -27 -7 -27 2 0 29 16 61 35 49
29 139 68 208 89 13 4 17 16 17 55 0 55 10 67 113 125 42 24 47 31 47 61 0 19
-4 37 -10 40 -17 10 -11 51 9 69 11 10 31 16 46 14 24 -3 30 -12 61 -103 46
-136 45 -148 -16 -206 -48 -45 -50 -49 -50 -102 l0 -54 125 62 c139 70 278
118 326 113 l32 -3 -28 -33 c-16 -19 -65 -58 -109 -88 -79 -53 -80 -54 -46
-54 19 0 42 -5 50 -10 22 -13 -11 -53 -87 -106 -63 -42 -68 -54 -27 -54 13 0
26 -5 30 -11 8 -14 -50 -74 -87 -90 -30 -12 -39 -29 -16 -29 8 0 22 -9 31 -19
17 -19 17 -21 -8 -45 -14 -14 -30 -26 -36 -26 -18 0 -11 -20 8 -20 9 0 26 -7
36 -15 19 -15 19 -16 -14 -50 -21 -22 -28 -35 -19 -35 7 0 25 -9 38 -19 l25
-19 -30 -29 c-28 -29 -29 -30 -10 -45 25 -19 16 -45 -20 -59 l-27 -10 24 -16
c13 -9 26 -18 28 -20 9 -7 -44 -53 -61 -53 -23 0 -23 -6 2 -37 28 -35 26 -41
-19 -61 -38 -18 -39 -18 -24 -46 20 -38 11 -55 -35 -62 -39 -6 -39 -7 -28 -36
12 -32 -1 -48 -39 -48 -18 0 -20 -5 -17 -41 l4 -41 -35 4 c-36 4 -36 3 -39
-37 -2 -22 -7 -39 -13 -39 -5 1 -25 5 -44 9 -30 6 -33 5 -27 -10 3 -10 4 -27
0 -38 -5 -16 -12 -18 -45 -13 -36 6 -39 4 -39 -16 0 -37 -14 -50 -44 -42 -14
3 -29 10 -32 15 -11 18 -22 8 -28 -26 -8 -41 -25 -45 -73 -16 l-31 20 -6 -35
c-8 -42 -25 -43 -69 -5 l-33 30 -11 -40 c-10 -37 -9 -41 11 -49 109 -41 146
-57 179 -78 20 -14 37 -28 37 -32 0 -4 20 -28 45 -53 25 -26 45 -54 45 -64 1
-42 23 -53 109 -53 l81 0 -6 25 c-8 33 19 75 49 75 12 0 40 -12 60 -26 21 -14
41 -23 44 -21 3 3 17 71 32 151 l27 145 -22 3 c-22 3 -21 4 14 65 21 35 42 61
48 59 6 -2 26 20 44 50 19 31 38 53 45 50 7 -2 29 20 50 50 21 30 42 54 47 54
6 0 7 -23 2 -57 -6 -53 -6 -57 10 -44 22 19 29 10 17 -23 -19 -48 -2 -27 33
42 30 59 32 69 19 78 -13 8 -7 18 32 62 26 29 50 51 52 48 3 -3 0 -35 -7 -71
-10 -55 -16 -66 -30 -62 -13 3 -23 -8 -39 -40 -28 -58 -26 -65 5 -25 31 40 49
42 39 5 -18 -76 -17 -78 16 -30 27 40 30 50 18 58 -11 6 -3 18 36 53 28 24 53
42 57 40 6 -4 -28 -122 -39 -134 -2 -2 -8 2 -13 10 -5 8 -11 12 -13 10 -24
-28 -147 -223 -143 -227 2 -3 29 21 60 53 44 46 53 61 44 72 -13 15 -14 14 60
59 24 14 45 23 49 20 3 -3 -6 -26 -20 -51 -27 -48 -26 -57 5 -29 34 30 33 2
-2 -63 -34 -65 -44 -74 -53 -51 -3 7 -30 -13 -68 -51 l-64 -64 58 32 c31 18
57 28 57 22 0 -16 -158 -220 -172 -221 -3 -1 -8 6 -10 14 -2 11 -26 1 -93 -42
-49 -31 -91 -57 -92 -58 -2 -1 6 -19 17 -40 21 -41 16 -63 -19 -87 -10 -8 -21
-25 -23 -38 -1 -14 -13 -29 -25 -35 -13 -5 -23 -16 -23 -24 0 -19 -29 -51 -46
-51 -8 0 -16 -12 -20 -27 -3 -16 -7 -33 -9 -39 -1 -5 3 -20 9 -33 10 -18 10
-36 0 -87 -6 -36 -14 -67 -17 -70 -3 -3 -13 6 -23 20 -16 25 -18 26 -41 11
-21 -14 -24 -14 -30 0 -4 13 -8 14 -14 4 -13 -22 -50 -18 -59 7 -8 19 -15 22
-44 19 -30 -4 -35 -1 -40 20 -6 25 -30 34 -41 15 -10 -16 -25 -1 -25 25 0 18
-7 25 -31 30 l-31 7 22 23 c24 25 20 45 -9 45 -35 0 -30 14 19 47 33 22 61 33
85 33 24 0 56 13 100 41 36 22 65 45 65 50 0 5 -30 9 -67 9 -53 0 -75 -5 -111
-26 -39 -23 -49 -25 -78 -16 -20 6 -36 6 -40 1 -10 -17 -59 -8 -112 20 -29 16
-66 32 -82 36 -16 4 -52 26 -79 51 -39 35 -56 44 -85 44 l-36 0 20 -32 c11
-18 20 -42 20 -53 0 -12 29 -50 71 -90 84 -83 117 -135 125 -198 6 -42 5 -47
-13 -47 -10 0 -28 7 -39 15 -31 23 -34 18 -27 -50 4 -46 3 -65 -6 -65 -16 0
-91 51 -91 61 0 5 -3 9 -8 9 -4 0 -6 -34 -4 -76 6 -110 -11 -116 -75 -29 l-22
30 -1 -32 c0 -18 -5 -55 -11 -83 -12 -56 -26 -56 -49 0 -7 17 -15 30 -19 30
-3 0 -15 -28 -26 -61 -11 -34 -24 -61 -30 -61 -5 0 -19 30 -31 67 l-21 67 -28
-48 -29 -49 -12 30 c-7 17 -13 55 -14 85 l0 55 -41 -47 c-22 -27 -44 -48 -49
-48 -15 0 -22 82 -12 128 11 47 5 52 -24 21 -18 -20 -65 -49 -80 -49 -4 0 -4
29 -2 65 3 36 3 65 -1 65 -3 -1 -17 -7 -31 -15 -14 -8 -33 -14 -43 -15 -15 0
-17 6 -11 38 11 65 44 118 125 198 59 59 79 85 79 105 0 14 9 38 21 53 l20 26
-37 0 c-28 0 -46 -8 -76 -35 -21 -20 -56 -43 -76 -51 -20 -9 -62 -29 -93 -45
-56 -29 -112 -38 -123 -20 -4 5 -18 5 -34 -1 -24 -9 -35 -7 -74 16 -36 21 -57
26 -111 26 -36 0 -68 -4 -71 -9 -3 -5 14 -38 38 -74 52 -77 81 -150 97 -242
14 -82 7 -91 -50 -74 -52 16 -71 48 -71 122 0 57 -17 118 -45 161 l-17 26 -35
-30 c-18 -16 -38 -30 -44 -30 -25 0 -49 22 -49 45 0 15 -6 25 -14 25 -18 0
-37 23 -39 48 0 10 -14 26 -29 35 -27 16 -28 15 -28 -6 -1 -36 -35 -99 -74
-136 -19 -19 -38 -32 -41 -30 -3 3 -8 33 -11 66 l-7 61 -40 -18 c-23 -10 -45
-16 -49 -14 -14 9 -8 68 12 113 l20 43 -34 -6 c-19 -4 -52 -4 -74 0 -44 7 -47
24 -10 64 11 12 18 22 17 24 -2 1 -18 8 -36 15 -46 18 -62 40 -40 53 13 7 15
14 8 26 -6 10 -5 24 1 36 8 15 8 21 -2 24 -18 6 -90 72 -90 83 0 5 11 12 26
15 l25 6 -33 23 c-18 12 -43 36 -55 53 l-22 30 22 6 c12 3 44 6 71 6 34 0 55
6 66 18 16 16 14 18 -41 44 -69 31 -109 84 -117 154 l-5 47 33 -7 c18 -3 47
-13 63 -21 17 -8 31 -15 31 -15 1 0 0 33 -2 74 -3 70 7 134 27 166 8 12 12 12
29 -3 11 -10 27 -35 37 -57 l18 -40 44 41 c24 22 48 37 53 34 15 -9 23 -110
12 -159 -11 -51 -8 -54 21 -28 20 17 20 16 14 -66 -3 -54 -12 -97 -26 -125
-12 -24 -17 -43 -11 -45 6 -2 16 -10 23 -17 11 -11 20 -5 48 30 19 24 39 46
45 49 15 6 38 -100 32 -148 -4 -38 6 -49 16 -18 4 10 28 41 53 68 l48 49 7
-40 c4 -22 7 -55 7 -72 1 -18 2 -33 4 -33 1 0 20 9 42 20 39 20 85 27 85 13 0
-4 -12 -39 -26 -77 -18 -45 -40 -82 -66 -107 -31 -30 -37 -42 -30 -55 5 -9 7
-25 5 -35 -7 -26 9 -24 53 6 64 43 108 27 108 -41 l0 -34 79 0 c86 0 106 11
107 56 0 12 15 35 34 52 19 16 39 40 46 52 17 31 94 77 173 102 67 22 68 23
63 51 -3 16 -6 36 -6 44 0 10 -11 5 -35 -16 -51 -44 -75 -38 -75 19 0 17 -2
17 -38 -3 -48 -26 -72 -18 -72 23 0 35 -1 35 -41 14 -40 -20 -59 -12 -59 25 0
30 0 31 -45 24 l-45 -6 0 37 c0 35 -1 36 -27 30 -16 -4 -32 -7 -38 -8 -5 0
-11 17 -13 39 -3 40 -4 41 -37 37 -35 -4 -35 -4 -35 35 0 35 -3 40 -32 49 -34
9 -35 13 -24 50 6 19 2 23 -29 28 -44 9 -54 30 -32 68 15 26 15 28 -1 28 -23
0 -62 28 -62 44 0 7 9 22 21 35 12 12 19 23 18 25 -2 1 -17 6 -33 11 -16 6
-34 18 -40 28 -9 14 -7 21 12 35 l23 18 -32 23 -31 23 21 21 21 21 -28 29 -27
29 23 18 c12 10 27 20 34 22 6 2 0 16 -16 31 -33 33 -30 49 12 62 18 5 32 12
32 15 -1 3 -15 14 -33 25 -43 27 -46 50 -8 66 32 14 41 29 19 29 -7 0 -34 16
-60 35 -68 50 -63 85 10 76 21 -3 14 5 -43 44 -30 20 -69 54 -86 73 -29 33
-30 36 -13 43 11 4 34 8 53 8 l34 1 -61 40 c-66 42 -152 117 -152 131 0 39
255 -46 413 -137 32 -19 60 -34 63 -34 3 0 3 28 1 62 -3 56 -6 64 -33 80 -73
44 -80 95 -31 233 31 86 33 90 64 93 25 3 35 -2 49 -23 14 -22 15 -31 6 -46
-7 -10 -12 -35 -12 -54 0 -32 5 -38 46 -63 111 -65 109 -63 109 -120 l0 -52
82 -29 c79 -27 160 -68 196 -99 21 -19 22 -9 1 24 -11 17 -15 37 -11 64 4 33
2 40 -11 40 -21 1 -56 29 -71 57 -16 31 -14 75 5 101 15 22 14 24 -10 49 -48
48 -40 134 14 163 19 10 19 13 5 33 -8 12 -15 40 -15 62 0 32 6 47 28 67 15
14 37 29 49 32 18 6 20 12 16 44 -6 51 24 98 72 111 20 5 42 8 49 5 9 -3 16 6
20 26 9 48 57 90 101 90 20 0 45 -4 55 -10 15 -8 20 -6 25 11 9 28 63 59 102
59 19 0 43 -10 61 -25z m-11 -4202 c-23 -44 -90 -253 -83 -260 3 -3 12 0 20 6
8 7 17 8 20 3 7 -12 -64 -62 -88 -62 -15 0 -17 5 -12 32 l6 32 -33 -32 c-62
-60 -117 -30 -101 54 14 73 93 149 147 141 30 -4 39 6 51 56 5 23 3 27 -15 27
-31 0 -17 11 39 30 56 19 69 12 49 -27z m369 26 c34 -9 43 -15 40 -28 -3 -9
-8 -28 -12 -43 -8 -37 -34 -37 -34 0 0 15 -5 33 -12 40 -20 20 -65 14 -82 -10
-19 -26 -11 -43 50 -108 35 -37 44 -54 44 -83 0 -48 -39 -93 -93 -108 -42 -11
-124 -6 -140 10 -12 12 13 101 29 101 8 0 14 -11 14 -27 0 -57 60 -83 100 -43
34 34 24 68 -43 137 -62 64 -51 124 28 159 37 16 55 17 111 3z m-1566 -9 c0
-5 -9 -10 -20 -10 -26 0 -44 -30 -68 -115 -34 -118 -35 -128 -12 -153 26 -28
69 -28 104 -1 19 15 35 49 62 136 37 118 37 132 -4 133 -7 0 -10 5 -7 10 3 6
35 10 71 10 36 0 64 -4 64 -10 0 -5 -8 -10 -19 -10 -27 0 -35 -14 -71 -130
-17 -58 -40 -119 -51 -136 -57 -94 -239 -76 -239 24 0 15 13 72 29 127 l29
100 -24 9 c-45 18 -24 26 66 26 53 0 90 -4 90 -10z m558 -20 c4 -27 -21 -52
-44 -43 -17 6 -18 45 -2 61 19 19 43 10 46 -18z m139 -32 c-20 -55 -20 -58 14
-58 25 0 29 -3 20 -14 -6 -7 -22 -11 -35 -9 -23 5 -26 0 -47 -66 -23 -77 -20
-93 12 -72 18 10 40 9 28 -3 -25 -23 -87 -56 -105 -56 -30 0 -31 18 -6 91 32
93 34 107 15 112 -15 3 -14 6 7 14 14 6 38 25 54 42 30 32 52 41 43 19z m1038
-5 c-19 -47 -18 -53 10 -53 16 0 25 -5 23 -12 -3 -7 -17 -12 -33 -13 -26 0
-30 -5 -47 -60 -23 -77 -23 -89 0 -80 46 19 47 18 27 -4 -41 -47 -115 -68
-115 -33 0 9 11 53 25 97 14 44 25 81 25 82 0 1 -8 3 -17 5 -14 3 -12 7 12 20
17 9 41 28 54 42 28 30 47 34 36 9z m409 -18 l-14 -35 32 0 c37 0 28 -16 -12
-22 -21 -2 -29 -14 -48 -72 -24 -73 -23 -87 8 -68 23 14 30 15 30 3 0 -15 -79
-61 -105 -61 -31 0 -31 6 0 103 30 92 30 97 8 97 -9 0 4 14 29 30 26 17 49 37
52 45 3 8 12 15 20 15 13 0 13 -4 0 -35z m-1891 -31 c3 -4 0 -22 -8 -41 -21
-50 -20 -50 29 -5 91 84 122 67 84 -48 -14 -44 -22 -80 -18 -80 5 0 12 5 15
10 8 13 25 13 25 0 0 -15 -72 -60 -97 -60 -29 0 -29 3 2 88 29 81 29 82 11 82
-21 0 -64 -59 -86 -117 -15 -41 -22 -48 -49 -51 l-30 -3 24 72 c28 82 32 110
13 91 -14 -14 -28 -16 -28 -3 0 9 87 71 100 71 4 0 9 -3 13 -6z m277 -13 c0
-10 -11 -49 -25 -86 -26 -69 -27 -87 -1 -66 9 8 16 8 20 2 9 -13 -63 -61 -91
-61 -29 0 -29 2 2 86 30 84 30 83 3 77 -21 -4 -20 -2 7 22 28 25 60 43 78 44
4 1 7 -7 7 -18z m374 13 c47 -18 -7 -93 -82 -115 -38 -11 -43 -16 -40 -38 3
-22 8 -26 33 -25 17 0 38 4 48 8 31 14 19 -13 -15 -34 -37 -22 -98 -26 -116
-8 -21 21 -14 88 14 136 34 58 110 95 158 76z m1086 -3 c0 -3 -12 -41 -26 -84
-27 -80 -26 -100 1 -77 24 20 17 -4 -7 -28 -29 -26 -75 -44 -83 -32 -3 5 -1
18 5 29 18 34 11 36 -22 4 -42 -39 -64 -46 -83 -27 -19 19 -20 86 -1 122 33
63 100 103 169 100 26 -1 47 -4 47 -7z m378 -24 c4 -37 -19 -62 -77 -83 -58
-22 -64 -27 -57 -52 9 -28 29 -33 61 -16 45 23 49 0 5 -25 -55 -31 -111 -26
-124 10 -29 84 67 204 159 196 25 -2 31 -7 33 -30z m178 20 c3 -2 0 -17 -7
-33 l-11 -29 -14 28 c-9 15 -23 27 -35 27 -37 0 -33 -29 10 -75 22 -24 41 -53
41 -64 0 -33 -56 -71 -105 -71 -65 0 -76 7 -63 36 14 29 19 30 41 3 21 -24 60
-22 65 4 2 10 -12 35 -32 57 -50 56 -45 100 14 123 16 7 88 2 96 -6z m-2070
-410 c6 -6 -17 -57 -26 -57 -4 0 -12 11 -18 25 -19 41 -42 30 -71 -35 -23 -51
-20 -60 17 -60 32 0 18 -17 -18 -22 -22 -3 -28 -13 -51 -99 -34 -120 -51 -155
-92 -179 -33 -20 -92 -27 -101 -11 -3 4 1 17 9 27 11 15 16 17 26 7 21 -20 45
-15 57 12 12 26 62 215 62 234 0 5 -8 11 -17 14 -14 3 -12 6 10 15 15 6 27 18
27 26 0 31 23 64 63 90 33 22 50 26 80 23 21 -3 41 -7 43 -10z m450 -29 c-3
-18 -8 -90 -12 -160 l-7 -127 27 -7 c54 -13 23 -24 -69 -24 -52 0 -95 2 -95 6
0 3 13 10 29 15 21 8 32 19 36 40 9 39 4 43 -47 42 -32 -1 -45 -7 -64 -29 -27
-33 -30 -54 -9 -54 8 0 15 -4 15 -10 0 -6 -28 -10 -65 -10 -68 0 -82 9 -41 26
25 9 122 118 226 252 61 79 86 91 76 40z m1009 11 c4 -5 4 -21 1 -35 -5 -19
-12 -25 -29 -22 -12 2 -23 11 -25 21 -7 33 37 63 53 36z m-1751 -121 c51 -73
-30 -208 -125 -208 -46 0 -68 17 -75 60 -16 103 147 223 200 148z m923 -5 c-3
-16 -9 -37 -12 -48 -5 -15 -1 -13 15 7 25 32 80 68 105 68 13 0 16 -6 13 -27
-3 -16 -9 -37 -13 -48 -5 -12 9 -4 36 22 51 49 109 68 109 36 0 -11 -11 -52
-24 -91 -14 -40 -21 -72 -16 -72 5 0 12 5 15 10 8 13 25 13 25 0 0 -15 -72
-60 -97 -60 -13 0 -23 2 -23 5 0 3 12 39 26 80 14 41 24 80 22 86 -8 23 -74
-58 -94 -112 -17 -48 -22 -54 -51 -57 l-31 -3 28 83 c17 53 24 84 17 87 -18 7
-75 -68 -92 -120 -15 -44 -20 -49 -47 -49 -25 0 -29 3 -23 18 11 28 45 136 45
145 0 4 -9 3 -20 -3 -37 -20 -22 9 22 40 53 39 72 39 65 3z m481 -5 c4 -36
-33 -71 -93 -88 -45 -13 -55 -29 -36 -59 9 -13 36 -12 74 4 30 13 19 -14 -15
-35 -43 -26 -104 -27 -118 -1 -26 49 3 134 60 179 30 23 54 31 95 29 25 -2 31
-7 33 -29z m122 12 c0 -12 -7 -35 -15 -53 l-16 -32 20 25 c11 14 30 37 41 53
12 15 30 27 41 27 21 0 23 -8 10 -44 -7 -17 -15 -23 -29 -20 -21 6 -58 -41
-92 -118 -18 -41 -25 -48 -50 -48 l-29 0 30 81 c30 83 31 102 4 79 -9 -7 -15
-8 -15 -2 0 14 71 72 87 72 7 0 13 -9 13 -20z m203 14 c3 -3 -8 -42 -24 -86
-29 -79 -31 -104 -7 -80 14 14 28 16 28 3 0 -14 -75 -61 -98 -61 -19 0 -21 4
-16 28 4 15 15 49 25 75 24 60 24 66 -1 60 -33 -9 -23 6 27 37 49 31 56 34 66
24z m225 -3 c10 -6 11 -13 1 -34 -15 -32 -25 -34 -32 -7 -14 53 -65 28 -93
-46 -29 -76 5 -121 60 -79 10 8 23 12 28 9 5 -3 -9 -19 -31 -36 -53 -38 -111
-37 -125 3 -20 59 21 147 84 180 36 20 86 24 108 10z m235 2 c4 -3 3 -11 -2
-17 -12 -15 -52 -148 -46 -154 2 -3 11 1 20 8 9 8 15 9 15 2 0 -15 -63 -62
-82 -62 -23 0 -28 10 -17 37 9 25 9 25 -26 -6 -58 -51 -95 -38 -95 34 0 62 40
120 105 150 31 15 117 20 128 8z m-823 -1003 l0 -110 -125 0 -125 0 -14 35
c-41 97 -180 99 -224 3 l-17 -37 -117 -1 -118 0 0 110 0 110 370 0 370 0 0
-110z m-307 -61 c31 -34 34 -68 10 -110 -21 -35 -62 -53 -101 -44 -92 20 -100
152 -12 182 45 15 68 9 103 -28z m-184 -104 c16 -46 60 -76 112 -77 50 -1 87
24 112 75 l19 37 124 0 124 0 0 -110 0 -110 -370 0 -370 0 0 110 0 110 118 0
118 0 13 -35z"/>
<path d="M3969 9027 c-49 -33 -68 -90 -68 -213 -1 -122 16 -181 65 -224 29
-25 43 -30 85 -30 116 0 154 60 154 240 0 104 -3 121 -25 164 -43 83 -139 112
-211 63z"/>
<path d="M1462 8918 l3 -123 43 1 c65 1 85 27 90 114 4 66 3 71 -26 100 -24
24 -39 30 -72 30 l-41 0 3 -122z"/>
<path d="M1972 8837 c-18 -46 -32 -87 -32 -91 0 -3 27 -6 60 -6 33 0 60 4 60
8 0 4 -13 45 -28 91 l-28 83 -32 -85z"/>
<path d="M3417 9033 c-4 -3 -7 -57 -7 -120 0 -127 3 -133 68 -117 51 13 77 53
77 118 0 61 -17 99 -52 115 -27 12 -76 15 -86 4z"/>
<path d="M4610 8930 c0 -98 2 -110 18 -111 85 -6 122 29 122 116 0 63 -39 105
-99 105 l-41 0 0 -110z"/>
<path d="M3269 7291 c-16 -16 -29 -37 -29 -45 0 -20 -14 -20 -30 -1 -13 15
-65 20 -95 9 -21 -8 -45 -56 -45 -89 0 -24 -2 -25 -40 -19 -35 6 -43 3 -70
-24 -22 -22 -30 -40 -30 -66 0 -19 5 -38 10 -41 19 -12 10 -25 -19 -25 -37 0
-77 -32 -84 -67 -6 -31 16 -93 32 -93 6 0 11 -4 11 -10 0 -5 -6 -10 -14 -10
-7 0 -25 -12 -40 -26 -44 -45 -28 -122 30 -144 l24 -9 -25 -27 c-35 -38 -34
-87 4 -125 18 -17 40 -29 56 -29 22 0 24 -3 15 -19 -17 -33 -11 -78 14 -108
21 -24 31 -28 69 -26 45 1 45 1 44 -33 -2 -64 67 -108 125 -80 33 17 48 14 48
-10 0 -8 11 -26 25 -39 36 -37 88 -34 125 5 29 31 29 31 40 10 16 -30 73 -52
102 -41 28 10 53 38 62 67 6 21 7 21 44 3 32 -16 44 -17 70 -8 35 12 62 53 62
93 0 22 3 24 40 19 34 -5 43 -2 71 26 32 32 36 64 14 114 -6 14 -2 17 20 17
37 0 62 16 80 50 18 34 12 71 -16 96 -22 20 -25 34 -6 34 20 0 56 37 63 65 9
36 -14 83 -48 101 l-29 15 25 26 c34 34 35 81 1 117 -13 14 -31 27 -40 27 -35
3 -40 6 -36 19 11 40 12 80 1 100 -15 27 -67 50 -102 43 -24 -5 -26 -3 -25 31
2 71 -91 118 -143 71 -17 -15 -19 -14 -30 20 -22 66 -102 86 -149 36 l-26 -28
-27 28 c-36 40 -88 40 -129 0z m179 -121 c20 -33 59 -43 95 -25 41 21 45 20
61 -19 18 -42 45 -58 94 -54 36 3 37 2 34 -27 -4 -39 30 -85 63 -85 26 0 52
-25 35 -35 -5 -3 -10 -24 -10 -45 0 -37 25 -70 63 -83 7 -2 2 -16 -16 -36 -33
-40 -34 -58 -3 -104 l25 -36 -34 -20 c-39 -23 -53 -60 -36 -97 17 -37 14 -44
-19 -44 -43 0 -80 -39 -80 -85 l0 -35 -40 6 c-35 6 -43 3 -70 -24 -16 -17 -30
-38 -30 -46 0 -20 -24 -21 -40 -1 -21 26 -73 18 -105 -15 l-28 -29 -27 29
c-31 34 -81 40 -114 15 -22 -17 -36 -11 -36 14 0 11 -8 29 -19 42 -15 18 -29
23 -67 24 -48 0 -49 0 -46 30 4 42 -30 85 -68 85 -37 0 -42 10 -28 48 15 39 2
82 -30 98 -36 18 -37 23 -12 49 30 32 30 78 1 109 -23 25 -21 46 4 46 7 0 23
12 35 27 21 27 22 46 5 101 -7 20 -4 22 24 22 45 0 83 40 79 83 l-3 32 46 -3
c41 -3 49 0 73 28 14 17 26 38 26 46 0 18 11 18 36 -1 30 -23 77 -19 104 10
28 30 41 31 58 5z"/>
<path d="M3428 7111 c2 -30 0 -51 -7 -55 -7 -5 -11 9 -11 44 0 51 0 51 -22 36
-12 -9 -33 -16 -45 -16 -27 0 -27 -2 -9 -63 8 -26 10 -49 6 -52 -8 -5 -40 88
-40 113 0 9 -31 27 -34 20 -1 -2 -11 -17 -23 -35 l-23 -32 52 -86 c28 -47 47
-89 43 -93 -4 -4 -9 -2 -11 3 -2 6 -25 45 -52 89 -44 74 -49 79 -84 81 -56 3
-56 -28 1 -87 57 -61 45 -76 -14 -18 -25 24 -45 39 -45 33 0 -6 -16 -18 -36
-28 l-37 -17 49 -31 c27 -17 43 -32 37 -34 -7 -3 -25 4 -40 15 -52 35 -56 36
-48 13 3 -12 0 -34 -8 -50 l-14 -28 61 -18 c76 -22 59 -32 -19 -11 -53 13 -91
12 -82 -3 2 -3 11 -23 20 -43 l17 -36 90 5 c63 4 90 2 90 -6 0 -7 -31 -11 -94
-11 -80 0 -95 -2 -100 -17 -3 -10 -11 -26 -18 -35 -10 -15 -9 -20 7 -32 16
-12 26 -12 68 1 27 8 56 13 65 11 9 -3 -8 -12 -38 -21 l-55 -16 0 -50 0 -49
42 25 c24 14 48 23 55 20 7 -2 -6 -14 -29 -26 -24 -12 -43 -24 -43 -26 0 -3
15 -18 33 -35 l32 -29 43 42 c55 54 55 26 0 -30 -57 -58 -57 -69 1 -71 l46 -1
39 74 c22 41 43 72 48 69 4 -3 -11 -39 -33 -80 l-41 -75 17 -34 c16 -29 21
-32 41 -23 17 8 26 25 35 65 7 30 17 57 22 60 6 4 8 -6 4 -25 -4 -18 -10 -45
-13 -62 -5 -23 -3 -30 8 -30 9 0 27 -9 42 -21 l26 -20 0 55 c0 31 5 56 10 56
6 0 10 -22 10 -49 l0 -50 28 15 c15 7 35 14 45 14 21 0 21 2 2 62 -7 26 -10
50 -6 53 5 3 17 -25 27 -61 10 -40 24 -69 36 -75 13 -7 18 -6 18 4 0 8 9 25
19 39 l20 25 -39 64 c-40 65 -46 79 -32 79 4 0 25 -31 46 -68 37 -65 40 -67
77 -67 35 0 39 2 39 25 0 17 -14 39 -40 65 -22 21 -37 41 -35 44 3 2 23 -13
45 -34 l40 -39 23 22 c13 12 29 22 35 22 24 0 11 20 -28 42 -22 13 -40 26 -40
31 0 13 14 8 52 -18 20 -14 39 -25 41 -25 2 0 3 15 3 33 0 17 3 39 8 48 6 14
-2 19 -43 29 -28 7 -54 16 -57 21 -7 13 4 11 65 -7 48 -14 97 -12 88 4 -2 4
-10 22 -17 40 l-14 32 -93 0 c-55 0 -93 4 -93 10 0 6 38 10 95 10 66 0 95 4
95 12 0 6 8 20 17 30 15 17 15 20 0 35 -14 14 -23 15 -64 5 -26 -6 -56 -14
-65 -17 -10 -4 -18 -3 -18 3 0 5 23 16 52 24 l52 14 1 47 c0 26 -1 47 -3 47
-1 0 -21 -9 -43 -21 -22 -11 -46 -18 -52 -16 -7 2 10 15 38 29 l49 25 -31 16
c-17 9 -34 24 -37 33 -6 15 -14 10 -51 -26 -25 -24 -47 -41 -51 -38 -3 4 15
25 39 47 25 23 47 52 49 66 5 23 3 24 -40 22 l-45 -2 -49 -82 c-27 -46 -54
-83 -60 -83 -6 0 -5 9 4 23 8 12 32 53 53 90 l37 68 -18 34 c-15 29 -20 32
-40 23 -17 -8 -26 -25 -35 -65 -7 -30 -17 -57 -22 -60 -10 -6 -7 17 9 90 5 23
3 27 -15 27 -11 0 -30 9 -41 20 -11 11 -22 20 -24 20 -1 0 -1 -22 2 -49z m39
-121 c14 0 14 -2 -2 -20 -10 -11 -15 -28 -12 -40 5 -21 -7 -28 -19 -9 -3 6
-17 8 -30 5 -18 -5 -24 -2 -24 11 0 9 -7 25 -17 35 -15 17 -15 18 1 18 9 0 24
9 33 20 17 19 17 19 35 0 11 -11 26 -20 35 -20z m-239 -110 c7 -11 19 -20 27
-20 17 0 20 -16 5 -25 -5 -3 -10 -17 -10 -31 0 -22 -3 -23 -20 -14 -14 8 -26
7 -41 -1 -20 -10 -21 -9 -16 12 4 15 0 30 -10 41 -15 17 -15 18 6 18 14 0 25
7 28 20 3 11 8 20 12 20 3 0 12 -9 19 -20z m140 0 c7 -11 19 -20 27 -20 8 0
15 -4 15 -10 0 -5 -4 -10 -10 -10 -5 0 -10 -14 -10 -30 0 -28 -2 -30 -20 -20
-14 8 -26 8 -40 0 -18 -10 -20 -8 -20 18 0 15 -5 33 -12 40 -9 9 -7 12 9 12
13 0 24 8 28 20 3 11 9 20 13 20 4 0 13 -9 20 -20z m140 0 c7 -11 20 -20 29
-20 15 0 15 -1 0 -18 -10 -11 -14 -26 -10 -41 5 -21 4 -22 -16 -12 -15 8 -27
9 -41 1 -17 -9 -20 -8 -20 11 0 12 -7 31 -17 41 -15 17 -15 18 5 18 12 0 27 9
34 20 7 11 15 20 18 20 3 0 11 -9 18 -20z m165 -20 c19 0 19 -1 3 -19 -11 -13
-15 -27 -11 -40 7 -23 -4 -28 -22 -10 -8 8 -17 8 -31 0 -28 -15 -31 -14 -25 9
3 12 -2 29 -12 40 -17 19 -17 20 3 20 12 0 27 10 33 22 l12 22 15 -22 c8 -12
24 -22 35 -22z m-383 -100 c0 -5 12 -16 26 -23 17 -9 23 -17 15 -21 -6 -4 -11
-21 -11 -37 0 -27 -2 -29 -20 -19 -14 8 -26 8 -41 0 -19 -10 -20 -9 -17 13 1
13 -3 31 -10 39 -10 12 -7 17 13 26 14 6 25 16 25 22 0 5 5 10 10 10 6 0 10
-4 10 -10z m140 0 c0 -6 11 -16 25 -22 20 -9 23 -14 13 -26 -7 -8 -11 -25 -10
-39 3 -22 2 -22 -22 -12 -20 9 -29 9 -41 -1 -13 -11 -15 -8 -15 18 0 17 -5 34
-11 38 -8 4 -2 12 15 21 14 7 26 18 26 23 0 6 5 10 10 10 6 0 10 -5 10 -10z
m168 -24 c22 -7 22 -9 7 -26 -11 -12 -14 -26 -10 -40 6 -20 5 -21 -14 -10 -12
6 -31 8 -41 5 -16 -5 -20 -2 -20 19 0 14 -4 26 -10 26 -17 0 -11 20 8 27 9 4
21 13 26 21 8 14 10 14 20 0 6 -8 22 -18 34 -22z m-346 -136 c19 0 24 -15 8
-25 -5 -3 -10 -17 -10 -31 0 -21 -3 -23 -18 -15 -11 6 -24 6 -33 0 -24 -15
-31 -10 -25 16 5 18 2 27 -9 31 -21 9 -19 24 5 24 10 0 25 10 31 22 l12 23 10
-23 c6 -12 18 -22 29 -22z m111 20 c3 -12 14 -20 26 -20 24 0 27 -12 7 -29 -8
-7 -12 -21 -9 -31 6 -22 -7 -26 -25 -8 -9 9 -15 9 -24 0 -18 -18 -31 -14 -25
8 3 10 -1 24 -9 31 -20 17 -17 29 7 29 12 0 23 8 26 20 3 11 9 20 13 20 4 0
10 -9 13 -20z m168 -20 c22 0 25 -13 5 -29 -8 -7 -12 -21 -9 -31 6 -22 -3 -25
-26 -11 -9 6 -22 6 -33 0 -15 -8 -18 -6 -18 15 0 14 -4 28 -10 31 -17 10 -11
25 9 25 12 0 23 9 27 22 l7 23 15 -23 c8 -12 23 -22 33 -22z m140 0 c23 0 25
-18 3 -27 -11 -4 -14 -13 -10 -29 7 -25 0 -29 -23 -15 -9 6 -22 6 -33 0 -15
-8 -18 -6 -18 15 0 14 -4 28 -10 31 -17 10 -11 25 9 25 12 0 23 9 27 22 l7 23
15 -23 c8 -12 23 -22 33 -22z m-208 -130 c19 0 19 -1 2 -20 -10 -11 -15 -28
-12 -40 6 -22 -3 -26 -20 -9 -8 8 -17 8 -31 0 -28 -15 -31 -14 -25 9 3 12 -2
29 -12 40 -17 19 -17 20 3 20 12 0 27 10 33 22 l12 22 15 -22 c8 -12 24 -22
35 -22z"/>
<path d="M3396 6985 c-11 -9 -13 -15 -6 -20 5 -3 8 -10 5 -14 -2 -5 6 -8 19
-8 29 0 40 29 17 44 -12 8 -22 7 -35 -2z"/>
<path d="M3199 6856 c-20 -15 -12 -45 11 -43 25 2 34 25 17 42 -10 9 -17 10
-28 1z"/>
<path d="M3335 6857 c-15 -18 -6 -47 15 -47 22 0 31 31 14 48 -16 14 -16 14
-29 -1z"/>
<path d="M3474 6856 c-6 -7 -8 -18 -5 -26 9 -22 38 -23 43 -2 7 24 -22 44 -38
28z"/>
<path d="M3612 6854 c-16 -18 -6 -39 19 -41 12 -1 19 1 15 4 -3 3 -2 11 4 17
14 18 -22 37 -38 20z"/>
<path d="M3264 6727 c-14 -16 -4 -42 16 -42 21 0 30 27 14 42 -15 16 -16 16
-30 0z"/>
<path d="M3402 6728 c-12 -17 -1 -43 18 -43 21 0 30 27 14 42 -16 16 -19 16
-32 1z"/>
<path d="M3542 6727 c-12 -16 -1 -41 19 -45 24 -3 30 32 9 46 -14 8 -21 8 -28
-1z"/>
<path d="M3197 6595 c-21 -15 -12 -45 13 -45 23 0 34 28 17 45 -11 10 -16 10
-30 0z"/>
<path d="M3332 6592 c-17 -12 -4 -42 18 -42 22 0 35 30 18 42 -7 4 -15 8 -18
8 -3 0 -11 -4 -18 -8z"/>
<path d="M3472 6592 c-17 -12 -4 -42 18 -42 22 0 35 30 18 42 -7 4 -15 8 -18
8 -3 0 -11 -4 -18 -8z"/>
<path d="M3612 6594 c-16 -18 -4 -44 21 -44 11 0 17 3 14 7 -4 3 -3 11 3 17
14 18 -22 37 -38 20z"/>
<path d="M3404 6466 c-19 -21 -12 -43 13 -43 13 0 21 2 19 5 -3 3 -2 10 4 16
13 17 -21 37 -36 22z"/>
<path d="M2422 6778 c-13 -13 -17 -82 -4 -76 69 34 76 48 36 74 -15 11 -23 11
-32 2z"/>
<path d="M4360 6770 c-12 -12 -18 -25 -15 -30 5 -8 62 -40 72 -40 9 0 1 68 -9
78 -17 17 -25 15 -48 -8z"/>
<path d="M2374 6652 c-26 -69 -23 -106 11 -142 32 -33 50 -38 58 -15 5 10 27
15 88 17 47 2 84 8 86 14 2 6 -38 35 -88 64 -50 30 -101 67 -114 82 l-23 27
-18 -47z"/>
<path d="M2440 6680 c0 -11 5 -20 10 -20 6 0 10 9 10 20 0 11 -4 20 -10 20 -5
0 -10 -9 -10 -20z"/>
<path d="M4363 6680 c2 -24 21 -21 25 3 2 10 -3 17 -12 17 -9 0 -14 -8 -13
-20z"/>
<path d="M4404 6665 c-17 -16 -68 -52 -113 -78 -45 -27 -80 -54 -78 -60 2 -8
34 -13 83 -15 57 -2 82 -7 91 -18 9 -12 16 -13 32 -5 51 28 62 81 33 161 l-17
45 -31 -30z"/>
<path d="M1990 6490 c0 -28 215 -165 530 -339 68 -37 103 -63 122 -92 24 -33
33 -39 65 -39 l36 0 -23 -24 c-28 -31 -21 -54 20 -62 33 -7 51 -24 25 -24 -28
0 -30 -31 -4 -52 l24 -19 -26 7 c-31 7 -46 -9 -26 -28 12 -10 11 -15 -7 -29
-18 -15 -19 -19 -6 -34 12 -15 12 -18 -4 -27 -13 -7 -14 -13 -6 -23 8 -10 7
-16 -7 -24 -14 -7 -15 -13 -6 -22 9 -9 9 -16 0 -29 -8 -14 -8 -22 1 -32 6 -8
9 -24 5 -36 -3 -15 0 -24 11 -28 11 -4 15 -13 10 -26 -4 -14 0 -21 14 -25 14
-3 18 -11 15 -24 -4 -14 0 -19 15 -19 14 0 22 -8 24 -22 2 -17 9 -22 26 -21
14 2 22 -2 21 -10 -4 -32 2 -39 26 -35 16 3 25 1 25 -7 0 -7 7 -18 15 -25 12
-10 20 -9 41 5 25 16 26 16 19 -6 -7 -20 -5 -21 24 -16 26 6 31 4 31 -13 0
-11 5 -20 10 -20 6 0 10 32 10 75 0 66 -2 75 -18 75 -40 0 -124 33 -156 60
-50 44 -80 121 -73 191 5 55 35 118 71 148 34 28 20 76 -43 148 -198 228 -390
369 -635 467 -101 41 -196 68 -196 56z"/>
<path d="M2488 6493 c-21 -2 -38 -8 -38 -12 0 -9 30 -16 118 -27 51 -6 52 -6
52 20 0 25 -2 26 -47 24 -27 -1 -65 -3 -85 -5z"/>
<path d="M4210 6475 c0 -27 0 -28 53 -21 141 18 149 32 24 42 l-77 7 0 -28z"/>
<path d="M4739 6471 c-47 -15 -141 -55 -210 -88 -193 -94 -340 -208 -495 -383
-100 -112 -105 -134 -49 -207 47 -62 61 -113 47 -181 -22 -106 -82 -164 -191
-185 l-61 -12 0 -72 c0 -46 4 -73 11 -73 6 0 13 9 16 20 4 15 9 17 23 10 20
-11 30 -4 30 22 0 17 2 17 23 4 23 -16 41 -11 49 14 2 8 15 15 28 15 15 0 26
7 30 20 3 12 13 20 25 20 13 0 21 8 23 21 2 12 12 24 24 27 13 4 19 11 15 21
-4 9 1 17 14 21 13 5 18 12 15 22 -4 9 1 21 11 29 14 10 15 15 6 25 -10 10 -9
16 4 31 12 13 13 21 5 31 -6 7 -9 22 -6 34 3 11 1 24 -5 27 -5 4 -7 14 -4 22
3 9 0 20 -7 24 -11 7 -11 11 -1 24 10 12 9 18 -7 34 -14 14 -17 23 -10 30 15
15 -1 35 -24 29 -20 -6 -20 -5 1 17 27 28 26 35 -1 45 -22 8 -21 9 13 24 48
20 54 32 29 57 -26 26 -25 30 9 30 22 0 39 11 68 44 26 31 73 63 153 106 220
119 397 229 463 287 59 52 55 53 -64 14z"/>
<path d="M2450 6395 l0 -54 38 -7 c198 -34 360 -121 502 -271 l71 -74 39 31
40 32 -17 30 c-29 49 -153 170 -222 217 -88 60 -207 110 -315 132 -138 29
-136 29 -136 -36z m203 -12 c-10 -27 -33 -59 -33 -46 0 22 19 63 29 63 6 0 8
-8 4 -17z m26 -19 c-15 -18 -22 -13 -13 10 3 9 10 13 16 10 5 -3 4 -12 -3 -20z
m36 -17 c-19 -27 -19 -37 1 -37 8 0 12 -4 9 -10 -4 -6 -13 -5 -24 2 -18 11
-18 14 -3 44 8 18 19 31 24 28 4 -3 1 -15 -7 -27z m59 -22 c-9 -14 -13 -32 -9
-42 6 -16 11 -13 36 17 16 19 29 30 29 25 0 -6 -11 -23 -25 -38 -21 -22 -30
-25 -45 -17 -11 6 -20 13 -20 16 0 14 32 64 40 64 6 0 3 -11 -6 -25z m102 -61
c-9 -6 -16 -19 -16 -28 0 -9 -4 -16 -10 -16 -15 0 -12 21 7 42 9 10 13 21 9
25 -4 5 -12 1 -16 -7 -22 -36 -29 -44 -35 -38 -4 4 3 20 16 37 22 29 24 30 41
14 17 -16 18 -18 4 -29z m54 -11 c0 -10 -42 -53 -52 -53 -5 0 1 14 14 30 20
28 38 39 38 23z m44 -31 c15 -18 15 -21 -9 -48 -23 -27 -26 -28 -41 -12 -16
15 -15 19 7 47 13 16 24 30 25 30 0 1 8 -7 18 -17z m25 -68 c-14 -15 -19 -29
-15 -41 7 -17 6 -17 -10 -1 -16 15 -15 18 7 46 13 16 28 27 32 25 5 -3 -1 -16
-14 -29z m51 -13 c0 -5 -12 -17 -27 -26 l-28 -18 24 27 c26 28 31 31 31 17z
m23 -28 c-7 -2 -13 -15 -13 -28 0 -13 -5 -27 -10 -30 -13 -8 -40 12 -40 29 0
6 5 3 11 -7 6 -9 15 -15 20 -12 5 4 7 11 3 16 -10 16 4 39 23 38 11 0 13 -3 6
-6z"/>
<path d="M2940 6195 c-16 -17 -19 -25 -9 -25 14 0 44 38 36 46 -2 2 -14 -7
-27 -21z"/>
<path d="M4256 6434 c-224 -44 -404 -156 -541 -337 l-28 -38 36 -37 36 -36 78
80 c43 44 117 105 164 137 108 72 177 98 347 133 20 4 22 10 22 59 0 63 3 63
-114 39z m-80 -74 c6 -22 9 -42 6 -45 -8 -8 -43 66 -36 76 11 18 20 8 30 -31z
m-53 -16 c15 -14 25 -30 21 -35 -3 -5 -14 1 -24 13 -21 25 -26 18 -10 -13 6
-11 7 -19 1 -19 -8 0 -31 52 -31 71 0 15 14 10 43 -17z m-63 -25 c15 -36 4
-64 -25 -64 -21 0 -62 51 -51 62 7 8 16 -2 42 -44 10 -14 15 -16 25 -6 10 11
10 19 -4 48 -9 19 -13 35 -8 35 5 0 14 -14 21 -31z m-73 -95 c-2 -3 -16 0 -31
6 -43 16 -51 12 -28 -13 12 -13 19 -26 16 -30 -6 -6 -54 56 -54 69 0 3 19 3
43 -1 41 -7 42 -7 24 12 -9 11 -14 23 -10 27 4 4 16 -10 26 -30 10 -20 16 -38
14 -40z m-97 -26 c18 -30 18 -34 3 -50 -9 -10 -21 -18 -28 -18 -16 0 -60 48
-51 57 4 4 18 -5 32 -20 20 -22 29 -26 40 -16 14 11 6 41 -16 54 -10 6 -14 25
-5 25 3 0 14 -14 25 -32z"/>
<path d="M2465 6313 c6 -5 39 -30 75 -55 92 -65 170 -138 272 -252 102 -115
109 -141 59 -205 -45 -58 -61 -96 -61 -152 0 -112 97 -209 207 -209 18 0 23 6
23 25 0 23 4 25 43 25 40 0 44 2 56 35 6 19 27 56 45 82 28 41 34 60 39 128 4
44 10 101 13 127 5 39 4 49 -10 54 -22 9 -62 -29 -69 -65 -7 -34 -75 -84 -109
-79 -18 2 -24 11 -29 40 -7 48 -33 85 -75 110 -55 32 -38 67 38 77 l39 6 -38
44 c-45 54 -177 152 -253 191 -86 43 -295 101 -265 73z"/>
<path d="M4265 6300 c-38 -10 -93 -27 -120 -37 -108 -41 -325 -212 -325 -256
0 -14 4 -17 18 -12 44 18 52 17 62 -10 5 -14 10 -54 10 -88 0 -59 -2 -63 -35
-90 -41 -33 -64 -73 -73 -130 -6 -34 -14 -45 -43 -62 l-36 -20 17 -49 c10 -27
25 -53 34 -58 11 -6 15 -16 11 -29 -5 -16 -1 -19 23 -19 79 0 159 52 193 125
35 76 21 158 -40 227 -24 27 -31 45 -31 75 0 35 9 50 63 114 90 104 221 227
307 287 80 57 75 61 -35 32z"/>
<path d="M2100 6307 c0 -22 138 -121 238 -171 48 -24 52 -25 43 -7 -16 30 -14
38 15 48 25 8 21 12 -77 67 -83 47 -115 59 -161 64 -32 2 -58 2 -58 -1z"/>
<path d="M4605 6296 c-16 -8 -70 -36 -118 -64 -87 -49 -88 -50 -58 -57 30 -6
41 -28 21 -40 -5 -3 -10 -11 -10 -16 0 -24 227 117 274 170 l19 21 -49 0 c-27
-1 -62 -7 -79 -14z"/>
<path d="M3014 6230 c68 -64 146 -160 146 -179 0 -6 -6 -14 -13 -18 -8 -4 -33
-24 -56 -45 -39 -33 -41 -38 -29 -57 16 -26 28 -27 28 -1 0 10 12 27 26 37 15
10 38 30 53 46 22 24 33 27 88 27 55 0 65 3 87 27 21 23 33 27 71 25 l46 -2
-28 24 -28 25 -23 -22 c-17 -16 -36 -22 -69 -22 -38 0 -49 5 -76 35 -29 33
-35 35 -83 32 -46 -3 -54 -1 -82 28 -21 21 -32 41 -32 61 0 25 -4 29 -29 29
-16 0 -38 3 -48 7 -10 4 13 -22 51 -57z"/>
<path d="M3771 6228 c-6 -20 -23 -46 -38 -57 -27 -22 -87 -28 -112 -12 -10 7
-20 0 -35 -22 -12 -18 -36 -37 -54 -43 -31 -10 -34 -24 -4 -24 20 0 80 -29
131 -63 35 -24 41 -31 28 -39 -11 -6 -14 -18 -10 -42 3 -22 -1 -46 -11 -67
-16 -33 -16 -33 17 -67 l34 -34 26 44 c14 23 46 63 71 88 52 50 56 59 22 53
-13 -3 -35 1 -48 9 -35 18 -118 93 -118 106 0 15 70 101 129 159 l50 49 -34 0
c-30 -1 -35 -5 -44 -38z"/>
<path d="M2390 6153 c0 -6 11 -22 25 -37 33 -35 252 -140 274 -131 14 6 13 8
-5 15 -12 5 -39 29 -59 53 -21 25 -62 57 -91 72 -56 28 -144 45 -144 28z"/>
<path d="M4349 6150 c-46 -14 -118 -61 -140 -92 -12 -16 -35 -38 -51 -48 -18
-11 -25 -20 -19 -25 17 -10 232 92 269 127 17 18 32 36 32 40 0 10 -56 9 -91
-2z"/>
<path d="M2190 6143 c0 -20 53 -57 147 -104 53 -26 99 -46 101 -44 2 2 -1 12
-7 24 -9 16 -8 22 6 29 14 8 1 18 -66 52 -80 40 -181 64 -181 43z"/>
<path d="M4469 6104 c-52 -26 -88 -49 -81 -51 6 -3 12 -12 12 -22 0 -9 -6 -23
-12 -30 -11 -10 -8 -10 12 -3 121 47 247 123 235 142 -13 22 -76 8 -166 -36z"/>
<path d="M3351 6048 c-37 -39 -40 -77 -10 -119 19 -27 19 -29 2 -29 -15 0 -14
-3 6 -19 24 -18 24 -21 13 -72 -7 -29 -19 -61 -28 -70 -11 -12 -12 -22 -4 -43
10 -28 18 -28 52 1 15 13 18 11 34 -18 l17 -33 27 33 c26 30 29 31 34 13 4
-11 13 -25 21 -32 11 -9 17 -5 30 20 l16 31 21 -26 c19 -25 22 -25 37 -10 12
11 16 36 17 88 0 41 8 89 17 112 14 36 14 42 0 64 -13 20 -13 25 -2 32 11 8
10 12 -6 25 -46 37 -183 84 -245 84 -10 0 -33 -15 -49 -32z m154 -48 c20 -8
19 -9 -1 -9 -12 -1 -27 -8 -34 -16 -17 -21 -36 -19 -58 5 -12 13 -25 18 -35
14 -10 -3 -17 -1 -17 5 0 13 115 14 145 1z"/>
<path d="M3420 5990 c0 -5 9 -10 20 -10 11 0 20 5 20 10 0 6 -9 10 -20 10 -11
0 -20 -4 -20 -10z"/>
<path d="M2450 6025 c0 -8 14 -24 31 -34 40 -24 239 -95 246 -87 11 11 -43 48
-134 92 -97 46 -143 55 -143 29z"/>
<path d="M4239 6000 c-76 -34 -148 -85 -136 -96 5 -5 195 59 234 79 26 14 43
35 43 53 0 14 -67 -3 -141 -36z"/>
<path d="M3196 6014 c-9 -8 -16 -32 -16 -52 l0 -36 20 22 c15 16 28 20 49 16
16 -4 32 -1 35 5 4 6 12 9 17 6 5 -4 9 8 9 24 0 30 -1 31 -49 31 -32 0 -55 -6
-65 -16z"/>
<path d="M2268 6009 c-10 -5 -18 -14 -18 -19 0 -20 94 -63 185 -84 28 -7 29
-7 12 11 -15 17 -15 21 -1 35 14 14 9 18 -50 42 -71 28 -101 31 -128 15z"/>
<path d="M4450 6003 c-19 -8 -46 -19 -59 -24 -20 -8 -21 -12 -10 -25 10 -12
10 -20 1 -35 -14 -23 -11 -23 48 -5 71 22 114 43 133 64 16 18 16 19 -8 30
-33 15 -62 14 -105 -5z"/>
<path d="M3022 5981 c4 -13 18 -16 19 -4 0 4 -5 9 -11 12 -7 2 -11 -2 -8 -8z"/>
<path d="M3785 5981 c-12 -11 11 -21 50 -21 25 0 46 -5 49 -12 3 -7 4 -2 3 11
-2 22 -7 25 -50 26 -26 0 -50 -1 -52 -4z"/>
<path d="M2940 5965 c-7 -9 -11 -17 -9 -18 2 -1 17 -9 32 -17 34 -17 66 -67
74 -115 6 -39 11 -41 38 -21 17 12 18 18 7 53 -14 47 -58 107 -90 122 -30 14
-37 14 -52 -4z"/>
<path d="M3120 5948 c-15 -16 -20 -35 -20 -75 0 -29 4 -53 8 -53 21 0 40 39
46 93 7 62 -1 70 -34 35z"/>
<path d="M2467 5943 c-15 -14 -5 -25 36 -43 58 -25 207 -54 219 -42 14 14 -7
25 -109 60 -90 31 -133 39 -146 25z"/>
<path d="M3215 5940 c-3 -5 -1 -10 4 -10 6 0 11 5 11 10 0 6 -2 10 -4 10 -3 0
-8 -4 -11 -10z"/>
<path d="M3247 5838 c-4 -62 -9 -126 -12 -141 l-6 -29 29 21 c31 22 31 20 48
194 5 47 4 57 -9 57 -8 0 -22 2 -30 5 -11 5 -15 -15 -20 -107z"/>
<path d="M4201 5914 c-106 -39 -109 -40 -94 -55 14 -14 200 25 232 49 66 49
-13 52 -138 6z"/>
<path d="M3819 5870 c-100 -100 -150 -277 -67 -239 20 8 27 21 32 53 9 51 47
118 81 140 20 13 25 25 25 56 0 22 -5 40 -10 40 -6 0 -33 -22 -61 -50z"/>
<path d="M2266 5897 c-17 -13 -16 -15 12 -39 22 -19 50 -28 107 -37 106 -16
108 -15 94 10 -9 17 -8 23 2 30 19 11 13 14 -66 32 -84 20 -125 21 -149 4z"/>
<path d="M4420 5894 c-25 -7 -56 -14 -70 -14 -24 -1 -24 -1 -6 -15 19 -14 19
-15 0 -36 l-19 -22 65 7 c89 10 132 22 165 48 26 20 27 22 9 35 -23 17 -86 16
-144 -3z"/>
<path d="M2511 5859 c-58 -23 34 -55 162 -58 45 -1 52 25 10 35 -16 3 -44 10
-63 14 -75 17 -86 18 -109 9z"/>
<path d="M4225 5854 c-27 -7 -60 -14 -71 -14 -22 0 -51 -26 -41 -36 11 -11
186 8 204 22 17 13 17 15 -1 29 -23 18 -25 18 -91 -1z"/>
<path d="M3327 5853 c-3 -5 -8 -24 -12 -43 -3 -19 -9 -43 -11 -52 -7 -24 13
-23 25 1 16 30 25 101 13 101 -6 0 -13 -3 -15 -7z"/>
<path d="M2263 5798 c-30 -14 -29 -24 4 -45 20 -14 53 -19 137 -22 100 -3 109
-2 97 13 -7 9 -11 22 -8 29 4 11 -14 17 -76 26 -98 13 -125 13 -154 -1z"/>
<path d="M4387 5796 c-51 -8 -65 -14 -57 -22 8 -8 9 -14 1 -18 -26 -17 -5 -23
84 -25 99 -2 165 16 165 45 0 34 -67 41 -193 20z"/>
<path d="M3650 5768 c0 -38 27 -108 42 -108 4 0 8 19 8 43 -1 29 -8 51 -25 72
l-25 30 0 -37z"/>
<path d="M2526 5777 c-17 -12 -17 -14 0 -28 11 -9 41 -14 93 -14 70 0 76 2 79
21 3 18 -4 22 -35 27 -61 11 -118 8 -137 -6z"/>
<path d="M4157 5783 c-22 -4 -28 -9 -25 -26 3 -20 8 -22 80 -22 86 1 125 18
92 42 -17 12 -85 15 -147 6z"/>
<path d="M2278 5704 c-16 -8 -28 -17 -28 -20 0 -3 16 -12 35 -20 57 -24 246
-15 225 11 -6 7 -8 20 -4 29 5 14 -6 16 -97 16 -73 -1 -112 -5 -131 -16z"/>
<path d="M2537 5705 c-18 -13 -18 -14 4 -25 25 -14 124 -9 140 7 21 21 -3 33
-64 33 -37 -1 -69 -6 -80 -15z"/>
<path d="M4140 5705 c0 -8 9 -19 19 -25 25 -13 111 -13 131 0 13 9 12 12 -4
25 -27 21 -146 21 -146 0z"/>
<path d="M4317 5709 c10 -10 10 -16 -3 -30 -14 -16 -10 -18 61 -24 89 -9 159
-3 180 15 14 12 14 15 0 29 -12 12 -42 17 -133 19 -94 3 -115 1 -105 -9z"/>
<path d="M3277 5682 c-17 -18 -24 -82 -10 -82 4 0 19 12 34 26 24 23 26 30 17
50 -13 29 -20 30 -41 6z"/>
<path d="M3368 5666 c-20 -14 -23 -52 -8 -76 8 -13 13 -11 35 11 23 23 25 28
14 52 -14 31 -17 32 -41 13z"/>
<path d="M3630 5660 c-9 -17 -6 -25 17 -48 l28 -27 3 27 c3 29 -13 68 -28 68
-5 0 -14 -9 -20 -20z"/>
<path d="M3457 5651 c-14 -14 -15 -24 -8 -44 14 -37 28 -41 47 -12 14 21 15
31 6 50 -14 29 -21 30 -45 6z"/>
<path d="M3545 5650 c-18 -20 -18 -21 10 -50 21 -22 31 -27 37 -18 13 22 9 54
-10 72 -18 15 -20 15 -37 -4z"/>
<path d="M2587 5650 c-43 -8 -63 -23 -53 -39 18 -28 146 2 146 33 0 17 -27 19
-93 6z"/>
<path d="M4147 5653 c-10 -16 7 -30 48 -43 71 -21 137 1 83 28 -31 15 -125 26
-131 15z"/>
<path d="M2352 5630 c-29 -4 -60 -14 -68 -21 -14 -12 -14 -15 6 -31 26 -21 49
-22 153 -6 74 11 90 19 67 33 -8 5 -7 11 1 21 10 12 2 14 -47 13 -33 -1 -83
-5 -112 -9z"/>
<path d="M3212 5615 c-12 -15 -22 -42 -22 -59 l0 -31 30 30 c25 25 28 35 22
59 l-8 29 -22 -28z"/>
<path d="M4317 5621 c3 -12 1 -21 -6 -21 -6 0 -11 -4 -11 -8 0 -9 141 -32 191
-32 15 0 37 8 49 18 l22 18 -24 16 c-16 10 -60 19 -126 23 -99 7 -101 7 -95
-14z"/>
<path d="M3297 5601 c-23 -14 -26 -20 -21 -46 9 -45 17 -48 48 -16 25 26 27
31 14 53 -12 23 -14 24 -41 9z"/>
<path d="M3607 5583 c-6 -30 27 -87 46 -80 6 2 14 16 19 32 6 25 3 33 -20 52
-35 29 -39 28 -45 -4z"/>
<path d="M2618 5588 c-46 -12 -77 -43 -60 -60 9 -9 23 -9 60 0 50 14 74 35 65
58 -6 16 -13 16 -65 2z"/>
<path d="M3403 5581 c-26 -22 -28 -38 -9 -63 18 -24 31 -22 50 7 13 20 14 29
4 50 -13 30 -16 30 -45 6z"/>
<path d="M3506 5575 c-16 -24 -16 -28 -1 -51 19 -29 27 -30 48 -6 23 25 21 34
-7 61 l-23 22 -17 -26z"/>
<path d="M4144 5585 c-9 -23 13 -42 68 -57 73 -19 93 13 30 46 -49 25 -91 30
-98 11z"/>
<path d="M3690 5583 c0 -5 9 -21 20 -38 22 -33 27 -21 8 20 -10 23 -28 34 -28
18z"/>
<path d="M2431 5554 c-49 -9 -82 -21 -98 -36 -62 -58 8 -76 143 -36 58 16 72
24 63 34 -6 7 -8 22 -4 34 7 23 5 24 -104 4z"/>
<path d="M4292 5551 c11 -19 11 -24 -4 -35 -16 -11 -9 -16 56 -34 118 -35 190
-26 165 19 -14 27 -56 45 -118 53 -30 4 -67 10 -83 13 -29 6 -29 5 -16 -16z"/>
<path d="M3222 5529 c-25 -31 -42 -30 -42 2 0 29 -14 23 -27 -11 l-11 -30 67
0 68 0 -11 35 c-6 19 -13 35 -16 34 -3 0 -15 -13 -28 -30z"/>
<path d="M3325 5515 c-16 -13 -27 -26 -25 -27 3 -2 24 -1 47 2 42 5 42 5 25
27 l-17 22 -30 -24z"/>
<path d="M3686 5523 c-10 -26 -7 -31 24 -35 17 -3 30 -3 30 -2 0 2 -11 14 -24
27 -20 20 -26 22 -30 10z"/>
<path d="M2633 5517 c-40 -15 -68 -41 -59 -56 10 -16 42 -14 79 5 51 26 59 35
46 50 -13 16 -23 16 -66 1z"/>
<path d="M3455 5510 c-18 -20 -17 -20 14 -20 29 0 31 2 21 20 -6 11 -12 20
-14 20 -2 0 -11 -9 -21 -20z"/>
<path d="M3567 5512 c-24 -26 -22 -28 24 -24 39 4 39 5 23 23 -21 24 -27 24
-47 1z"/>
<path d="M4133 5523 c-25 -9 -12 -29 32 -51 63 -31 101 -29 88 4 -10 26 -92
58 -120 47z"/>
<path d="M2471 5461 c-83 -28 -114 -51 -109 -81 6 -29 63 -23 145 15 66 30 75
38 60 46 -12 7 -16 17 -12 30 4 10 5 19 3 18 -2 0 -41 -13 -87 -28z"/>
<path d="M4275 5470 c4 -12 -1 -22 -11 -28 -27 -15 115 -84 164 -80 80 7 32
68 -81 102 -72 22 -77 23 -72 6z"/>
<path d="M1889 5453 c-6 -15 -11 -63 -11 -105 0 -66 4 -86 28 -135 l29 -57 2
60 c2 32 8 84 14 115 10 50 9 60 -10 97 -27 54 -39 59 -52 25z"/>
<path d="M2665 5452 c-34 -18 -51 -34 -53 -49 -5 -33 26 -30 76 7 39 28 52 52
34 64 -4 2 -30 -8 -57 -22z"/>
<path d="M4103 5473 c-25 -9 -12 -32 37 -63 52 -33 84 -34 78 -3 -4 20 -96 73
-115 66z"/>
<path d="M3060 5330 l0 -140 353 2 352 3 3 138 3 137 -356 0 -355 0 0 -140z"/>
<path d="M2024 5425 c-48 -48 -66 -107 -65 -212 0 -53 2 -98 5 -100 3 -3 10
13 16 36 6 23 24 57 41 76 17 18 34 49 40 67 12 43 12 145 -1 153 -5 3 -21 -6
-36 -20z"/>
<path d="M2704 5399 c-46 -31 -62 -58 -42 -71 20 -12 25 -10 68 28 66 59 45
93 -26 43z"/>
<path d="M4066 5414 c-16 -15 -16 -18 6 -41 30 -33 73 -54 92 -47 28 11 15 33
-45 78 -34 25 -38 26 -53 10z"/>
<path d="M2527 5385 c-63 -30 -97 -60 -97 -85 0 -33 46 -25 123 22 54 33 65
43 53 50 -9 5 -16 16 -16 23 0 19 -5 18 -63 -10z"/>
<path d="M4240 5395 c0 -7 -7 -18 -16 -23 -12 -7 -8 -13 23 -34 61 -40 100
-58 128 -58 55 0 17 59 -65 100 -68 35 -70 35 -70 15z"/>
<path d="M2742 5337 c-48 -49 -53 -67 -18 -67 25 0 96 64 96 86 0 9 -21 24
-34 24 -1 0 -21 -19 -44 -43z"/>
<path d="M4016 5367 c-17 -13 -16 -16 21 -55 27 -29 48 -42 66 -42 37 0 34 13
-14 65 -46 50 -48 51 -73 32z"/>
<path d="M2559 5304 c-59 -38 -78 -61 -79 -98 0 -22 75 7 132 51 53 40 60 48
41 51 -12 2 -23 11 -25 21 -3 15 -12 12 -69 -25z"/>
<path d="M4192 5334 c2 -12 -5 -20 -21 -23 -21 -6 -16 -11 49 -59 81 -58 120
-67 120 -28 0 29 -28 57 -98 97 -44 25 -53 27 -50 13z"/>
<path d="M4847 5325 c-10 -14 -16 -25 -13 -25 2 0 11 -3 19 -6 10 -4 16 4 19
25 5 37 -1 39 -25 6z"/>
<path d="M2806 5301 c-39 -40 -50 -91 -19 -91 21 0 93 78 93 100 0 34 -37 29
-74 -9z"/>
<path d="M3962 5330 c-23 -10 -23 -10 -5 -41 21 -37 69 -79 89 -79 27 0 14 47
-23 88 -33 35 -41 40 -61 32z"/>
<path d="M2866 5251 c-27 -36 -34 -54 -29 -69 13 -32 47 -11 82 51 17 30 31
57 31 61 0 3 -11 6 -24 6 -17 0 -34 -14 -60 -49z"/>
<path d="M3880 5295 c0 -11 43 -90 58 -107 21 -25 52 -23 52 2 0 33 -61 110
-87 110 -13 0 -23 -2 -23 -5z"/>
<path d="M1756 5253 c17 -71 66 -124 132 -144 23 -7 45 -10 48 -7 8 9 -34 89
-65 121 -26 28 -80 57 -107 57 -11 0 -13 -7 -8 -27z"/>
<path d="M2621 5239 c-53 -43 -76 -84 -61 -109 11 -18 76 19 130 74 43 45 44
46 18 46 -17 0 -28 6 -30 17 -2 13 -14 7 -57 -28z"/>
<path d="M2937 5231 c-31 -55 -34 -79 -12 -87 22 -9 45 14 67 65 21 50 18 71
-10 71 -12 0 -28 -17 -45 -49z"/>
<path d="M3817 5268 c-5 -15 39 -109 57 -120 42 -28 52 13 19 76 -28 51 -65
73 -76 44z"/>
<path d="M4143 5268 c1 -6 -9 -14 -21 -17 -23 -6 -20 -10 36 -64 33 -31 65
-57 70 -57 6 0 17 -3 26 -6 13 -5 16 1 16 30 0 32 -7 41 -57 81 -60 46 -75 54
-70 33z"/>
<path d="M4935 5260 c-10 -11 -13 -20 -7 -20 7 0 15 0 19 -1 4 0 10 9 15 20 9
27 -4 27 -27 1z"/>
<path d="M2057 5231 c-21 -19 -45 -47 -53 -62 -14 -29 -19 -95 -8 -123 25 -66
111 89 102 184 l-3 34 -38 -33z"/>
<path d="M3017 5217 c-21 -45 -14 -98 10 -74 10 9 13 30 11 63 l-4 49 -17 -38z"/>
<path d="M3781 5208 c2 -42 13 -68 30 -68 13 0 11 55 -3 85 -17 37 -28 30 -27
-17z"/>
<path d="M2692 5186 c-38 -42 -52 -66 -52 -87 0 -20 5 -29 15 -29 28 0 69 27
95 61 55 73 53 69 29 66 -17 -1 -24 4 -28 22 -6 23 -9 21 -59 -33z"/>
<path d="M4687 5211 c-16 -28 -16 -29 3 -34 11 -3 20 0 20 6 0 7 3 22 6 35 9
31 -8 27 -29 -7z"/>
<path d="M4075 5210 c-5 -15 -13 -20 -26 -17 -29 8 -23 -3 34 -65 41 -44 60
-58 81 -58 27 0 28 2 22 33 -4 20 -25 51 -55 81 -46 46 -49 47 -56 26z"/>
<path d="M2771 5130 c-30 -38 -41 -61 -41 -86 0 -19 2 -34 5 -34 24 0 67 38
98 84 33 50 35 56 18 56 -11 0 -24 7 -29 16 -8 14 -16 8 -51 -36z"/>
<path d="M3060 4910 c0 -148 2 -270 4 -270 2 0 11 -3 20 -6 14 -6 16 22 16
270 0 269 0 276 -20 276 -20 0 -20 -7 -20 -270z"/>
<path d="M3120 4906 c0 -239 2 -276 15 -276 13 0 15 36 15 265 0 146 0 268 1
273 0 4 -7 8 -15 10 -14 3 -16 -28 -16 -272z"/>
<path d="M3177 5174 c-4 -4 -7 -128 -7 -276 0 -262 0 -268 20 -268 20 0 20 5
18 272 -3 257 -7 295 -31 272z"/>
<path d="M3230 4905 c0 -238 2 -275 15 -275 13 0 15 37 15 275 0 238 -2 275
-15 275 -13 0 -15 -37 -15 -275z"/>
<path d="M3287 5174 c-4 -4 -7 -128 -7 -276 0 -262 0 -268 20 -268 20 0 20 5
18 272 -3 257 -7 295 -31 272z"/>
<path d="M3337 5173 c-4 -3 -7 -127 -7 -275 0 -261 0 -268 20 -268 20 0 20 7
20 275 0 223 -3 275 -13 275 -8 0 -17 -3 -20 -7z"/>
<path d="M3390 4902 c0 -233 2 -281 14 -285 33 -13 36 17 34 289 l-3 269 -22
3 -23 3 0 -279z"/>
<path d="M3455 5167 c-3 -7 -4 -129 -3 -272 3 -238 4 -260 21 -263 16 -3 17
15 17 272 0 241 -2 276 -15 276 -9 0 -18 -6 -20 -13z"/>
<path d="M3510 4906 c0 -270 0 -276 20 -276 20 0 20 5 18 272 -3 251 -4 273
-20 276 -17 3 -18 -15 -18 -272z"/>
<path d="M3567 5173 c-4 -3 -7 -127 -7 -275 0 -261 0 -268 20 -268 20 0 20 7
20 275 0 223 -3 275 -13 275 -8 0 -17 -3 -20 -7z"/>
<path d="M3620 4906 c0 -270 0 -276 20 -276 20 0 20 5 18 272 -3 251 -4 273
-20 276 -17 3 -18 -15 -18 -272z"/>
<path d="M3677 5173 c-4 -3 -7 -127 -7 -275 0 -261 0 -268 20 -268 20 0 20 7
20 275 0 223 -3 275 -13 275 -8 0 -17 -3 -20 -7z"/>
<path d="M3730 4906 c0 -152 4 -276 9 -276 28 0 31 34 29 286 -3 237 -4 259
-20 262 -17 3 -18 -15 -18 -272z"/>
<path d="M4007 5166 c-3 -8 -15 -16 -27 -18 -19 -3 -18 -6 15 -55 29 -44 76
-83 100 -83 3 0 5 14 5 32 0 21 -13 48 -41 85 -23 29 -43 53 -44 53 -2 0 -5
-6 -8 -14z"/>
<path d="M4811 5156 c-20 -21 -20 -24 -5 -30 20 -8 19 -8 28 27 8 33 6 33 -23
3z"/>
<path d="M4637 5118 c-9 -68 3 -60 27 20 5 16 3 22 -7 22 -9 0 -16 -15 -20
-42z"/>
<path d="M4938 5142 c-32 -19 -35 -27 -13 -36 10 -3 20 5 30 24 9 17 14 30 13
29 -2 0 -15 -8 -30 -17z"/>
<path d="M2868 5113 c-13 -21 -30 -48 -37 -61 -14 -27 -5 -82 13 -82 26 0 67
43 91 96 31 67 31 66 1 58 -17 -4 -27 -1 -33 11 -8 14 -13 10 -35 -22z"/>
<path d="M3922 5134 c-6 -11 -17 -15 -31 -11 -27 7 -26 -3 4 -62 25 -50 66
-91 91 -91 27 0 16 75 -17 129 -18 28 -33 51 -35 51 -2 0 -7 -7 -12 -16z"/>
<path d="M4685 5140 c-3 -5 -1 -10 4 -10 6 0 11 5 11 10 0 6 -2 10 -4 10 -3 0
-8 -4 -11 -10z"/>
<path d="M4711 5126 c-20 -21 -20 -24 -5 -30 20 -8 19 -8 28 27 8 33 6 33 -23
3z"/>
<path d="M2957 5073 c-21 -49 -27 -75 -22 -99 7 -41 14 -42 49 -9 34 31 56 83
56 131 0 32 -2 35 -15 24 -13 -11 -18 -10 -28 3 -10 14 -16 7 -40 -50z"/>
<path d="M3830 5125 c0 -17 -16 -20 -25 -5 -14 22 -23 8 -20 -29 6 -68 69
-162 97 -145 16 10 8 83 -17 138 -25 57 -35 68 -35 41z"/>
<path d="M4596 5115 c-21 -31 -20 -35 4 -35 16 0 20 7 20 30 0 36 -3 37 -24 5z"/>
<path d="M4745 5070 c-32 -63 -32 -70 4 -36 15 15 34 26 40 24 7 -2 18 5 24
14 9 14 8 20 -8 32 -29 22 -32 21 -60 -34z"/>
<path d="M2168 5059 c-36 -47 -48 -81 -48 -139 0 -49 25 -130 40 -130 31 0 62
197 43 269 l-9 35 -26 -35z"/>
<path d="M4627 4988 c-20 -50 -35 -93 -33 -96 4 -3 96 172 96 183 0 3 -6 5
-13 5 -8 0 -30 -41 -50 -92z"/>
<path d="M4892 5067 c-11 -13 -43 -99 -38 -104 1 -2 15 11 31 27 16 17 23 30
17 30 -17 0 -15 27 3 34 16 6 21 26 6 26 -5 0 -13 -6 -19 -13z"/>
<path d="M4947 5062 c-27 -17 -31 -32 -9 -40 6 -2 18 11 27 27 8 17 14 31 13
31 -2 0 -15 -8 -31 -18z"/>
<path d="M4553 5029 c5 -52 13 -58 21 -15 4 20 8 39 9 42 1 4 -6 8 -16 10 -15
2 -17 -4 -14 -37z"/>
<path d="M1913 5044 c-9 -23 13 -40 32 -24 12 10 13 16 4 26 -15 18 -28 18
-36 -2z"/>
<path d="M4566 4929 c-21 -72 -36 -133 -34 -135 3 -2 16 29 30 69 14 39 35 95
46 124 17 41 18 53 8 62 -9 8 -21 -19 -50 -120z"/>
<path d="M4608 4878 c-109 -215 -117 -233 -87 -198 30 35 201 380 189 380 -5
0 -51 -82 -102 -182z"/>
<path d="M4509 5011 c-17 -28 -16 -29 7 -34 21 -4 24 -1 24 29 0 42 -10 43
-31 5z"/>
<path d="M1797 5021 l-28 -6 33 -32 c26 -26 92 -63 111 -63 2 0 3 17 3 38 -1
62 -38 82 -119 63z"/>
<path d="M2044 5015 c-4 -9 0 -23 9 -32 21 -21 49 -9 45 19 -4 28 -45 38 -54
13z"/>
<path d="M2298 4993 c-37 -40 -58 -87 -65 -141 -6 -51 2 -63 45 -76 17 -6 22
-3 22 11 0 10 10 41 23 68 16 37 21 65 19 108 -2 31 -6 57 -11 57 -4 0 -19
-12 -33 -27z"/>
<path d="M4735 5000 c-19 -21 -15 -36 8 -27 15 6 30 47 18 47 -5 0 -16 -9 -26
-20z"/>
<path d="M4817 4986 c-13 -10 -15 -16 -6 -21 10 -7 28 10 29 28 0 9 -2 9 -23
-7z"/>
<path d="M1934 4975 c-8 -21 2 -45 19 -45 21 0 38 25 31 44 -8 20 -43 21 -50
1z"/>
<path d="M4668 4918 c-15 -28 -26 -53 -24 -55 4 -4 66 90 66 100 0 20 -18 1
-42 -45z"/>
<path d="M2045 4950 c3 -5 8 -10 11 -10 2 0 4 5 4 10 0 6 -5 10 -11 10 -5 0
-7 -4 -4 -10z"/>
<path d="M4497 4814 c-15 -76 -25 -139 -23 -141 4 -4 64 211 68 246 2 13 -2
26 -8 28 -6 2 -21 -49 -37 -133z"/>
<path d="M1995 4929 c-9 -14 -2 -20 14 -10 8 6 9 11 3 15 -6 3 -14 1 -17 -5z"/>
<path d="M2066 4931 c-3 -5 3 -20 14 -32 l19 -24 1 33 c0 31 -21 45 -34 23z"/>
<path d="M2404 4921 c-34 -20 -68 -64 -77 -96 -18 -68 -18 -75 2 -75 21 0 76
42 91 70 5 9 18 40 29 69 19 47 19 51 3 51 -9 0 -31 -9 -48 -19z"/>
<path d="M4770 4898 c-56 -67 -57 -77 -1 -23 28 27 51 53 51 57 0 17 -16 6
-50 -34z"/>
<path d="M4726 4914 c-5 -14 -4 -15 9 -4 17 14 19 20 6 20 -5 0 -12 -7 -15
-16z"/>
<path d="M1845 4900 l-30 -5 36 -27 c50 -39 97 -56 173 -64 79 -8 85 2 25 45
-63 46 -134 64 -204 51z"/>
<path d="M4827 4879 c-9 -6 -15 -14 -12 -20 9 -14 19 -11 33 11 13 22 7 25
-21 9z"/>
<path d="M2974 4851 c-52 -24 -64 -41 -30 -41 31 0 33 -11 6 -28 -11 -7 -20
-19 -20 -28 0 -14 8 -16 46 -11 l46 5 -31 -32 c-46 -48 -38 -74 19 -61 l30 7
0 104 c0 116 0 115 -66 85z"/>
<path d="M3785 4850 c-4 -11 -5 -57 -4 -101 3 -76 5 -82 28 -90 56 -22 74 4
36 50 l-27 31 41 0 c48 0 51 8 16 40 -33 31 -32 37 6 32 43 -6 30 14 -25 39
-52 24 -63 24 -71 -1z"/>
<path d="M4739 4824 c-40 -42 -32 -44 21 -5 27 19 36 31 26 34 -7 3 -28 -10
-47 -29z"/>
<path d="M2200 4824 c0 -8 5 -12 10 -9 6 3 10 10 10 16 0 5 -4 9 -10 9 -5 0
-10 -7 -10 -16z"/>
<path d="M4795 4820 c-3 -5 -1 -10 4 -10 6 0 11 5 11 10 0 6 -2 10 -4 10 -3 0
-8 -4 -11 -10z"/>
<path d="M2837 4781 c-69 -65 -23 -78 65 -19 27 19 27 19 8 38 -11 11 -22 20
-25 20 -3 0 -25 -18 -48 -39z"/>
<path d="M3918 4800 c-15 -17 -15 -19 1 -34 15 -14 82 -46 96 -46 3 0 5 9 5
19 0 17 -65 82 -80 80 -3 0 -13 -9 -22 -19z"/>
<path d="M4653 4798 c-22 -26 -37 -48 -30 -48 3 0 17 16 31 35 30 39 30 46 -1
13z"/>
<path d="M1904 4789 c-3 -6 0 -17 8 -25 13 -13 16 -13 27 0 7 8 10 20 6 26 -8
13 -32 13 -41 -1z"/>
<path d="M2187 4788 c-20 -10 -22 -39 -5 -56 9 -9 16 -5 30 18 10 17 18 32 18
34 0 10 -28 13 -43 4z"/>
<path d="M1970 4774 c0 -8 5 -12 10 -9 6 3 10 10 10 16 0 5 -4 9 -10 9 -5 0
-10 -7 -10 -16z"/>
<path d="M2005 4780 c-4 -6 5 -10 20 -10 15 0 24 4 20 10 -3 6 -12 10 -20 10
-8 0 -17 -4 -20 -10z"/>
<path d="M2070 4777 c0 -7 20 -23 45 -35 52 -25 56 -20 18 20 -28 29 -63 38
-63 15z"/>
<path d="M4748 4783 c-10 -2 -15 -10 -11 -19 7 -19 16 -18 31 6 12 20 11 21
-20 13z"/>
<path d="M2226 4744 c-4 -9 -5 -17 -4 -18 2 -1 12 -6 24 -12 17 -10 23 -9 33
7 6 11 9 24 6 29 -10 16 -52 11 -59 -6z"/>
<path d="M4680 4739 c-17 -13 -18 -17 -5 -10 33 17 51 31 40 31 -5 0 -21 -10
-35 -21z"/>
<path d="M1935 4731 l-40 -18 34 -17 c18 -10 41 -15 50 -12 9 3 41 14 71 25
55 20 55 20 27 30 -41 16 -97 13 -142 -8z"/>
<path d="M2865 4716 c-40 -33 -26 -43 30 -21 37 14 44 20 34 31 -16 20 -29 18
-64 -10z"/>
<path d="M3900 4725 c-10 -12 -8 -16 11 -23 79 -29 107 -18 47 18 -39 24 -42
24 -58 5z"/>
<path d="M2294 4716 c-11 -28 1 -51 25 -51 32 0 49 28 32 49 -17 20 -50 21
-57 2z"/>
<path d="M2760 4702 c-16 -13 -21 -24 -16 -37 6 -17 9 -17 34 8 33 34 18 59
-18 29z"/>
<path d="M4027 4712 c-8 -11 29 -52 47 -52 22 0 20 13 -7 38 -25 24 -33 26
-40 14z"/>
<path d="M2064 4699 c-44 -10 -124 -71 -124 -95 0 -17 57 -19 110 -4 56 15
130 67 130 90 0 17 -6 20 -37 19 -21 -1 -56 -5 -79 -10z"/>
<path d="M2207 4699 c-20 -12 -22 -32 -3 -48 18 -15 46 -4 46 19 0 26 -22 40
-43 29z"/>
<path d="M2448 4679 c-15 -8 -13 -13 20 -44 l37 -35 -32 6 c-25 5 -33 2 -42
-15 -10 -17 -9 -21 3 -21 8 0 18 5 21 10 4 6 15 8 24 5 12 -4 21 3 29 20 29
63 -6 106 -60 74z"/>
<path d="M2796 4666 c-9 -14 -16 -28 -16 -31 0 -9 61 -5 81 5 26 14 24 30 -4
30 -13 0 -28 5 -34 11 -7 7 -15 2 -27 -15z"/>
<path d="M2912 4667 c-22 -23 -29 -47 -14 -47 34 1 49 14 48 41 -1 35 -6 36
-34 6z"/>
<path d="M3883 4661 c-2 -22 3 -30 20 -35 35 -9 44 11 17 39 -30 32 -35 31
-37 -4z"/>
<path d="M4000 4680 c0 -5 -14 -10 -32 -10 -30 0 -31 0 -13 -20 20 -23 85 -28
85 -7 -1 25 -40 62 -40 37z"/>
<path d="M4314 4665 c-8 -33 13 -84 34 -83 10 0 25 -3 36 -7 14 -6 17 -4 14
11 -3 14 -12 19 -35 18 -31 -2 -32 -1 -17 22 9 13 25 26 37 30 20 6 20 7 2 20
-31 23 -64 18 -71 -11z"/>
<path d="M2270 4661 c0 -5 5 -13 10 -16 6 -3 10 -2 10 4 0 5 -4 13 -10 16 -5
3 -10 2 -10 -4z"/>
<path d="M2411 4637 c-13 -13 -15 -37 -3 -37 5 0 17 8 26 19 14 15 14 19 3 24
-8 3 -20 0 -26 -6z"/>
<path d="M4392 4643 c-10 -4 -9 -9 4 -24 20 -22 34 -24 34 -5 0 18 -22 34 -38
29z"/>
<path d="M2350 4628 c-34 -12 -80 -58 -80 -79 0 -9 7 -22 16 -30 13 -10 21 -9
47 6 18 10 41 23 52 29 11 6 22 12 24 13 2 2 -3 11 -11 20 -9 10 -18 25 -19
34 -3 13 -9 15 -29 7z"/>
<path d="M2722 4628 c-17 -17 -15 -35 5 -42 19 -8 28 0 38 32 5 17 2 22 -12
22 -11 0 -24 -5 -31 -12z"/>
<path d="M2968 4626 c-16 -7 -42 -31 -59 -54 -29 -40 -29 -42 -10 -42 37 0 89
42 94 75 3 16 4 30 3 31 0 1 -13 -4 -28 -10z"/>
<path d="M3016 4618 c-8 -12 -13 -25 -10 -30 9 -14 51 -9 64 7 11 13 10 18 -6
30 -25 19 -30 19 -48 -7z"/>
<path d="M3761 4621 l-24 -19 21 -11 c32 -17 62 -14 62 7 0 17 -18 42 -29 42
-4 0 -17 -9 -30 -19z"/>
<path d="M3834 4624 c3 -9 6 -24 6 -34 0 -21 57 -60 89 -60 19 0 19 3 -12 43
-33 45 -95 82 -83 51z"/>
<path d="M4060 4627 c0 -24 25 -48 43 -41 21 8 22 18 1 38 -19 19 -44 21 -44
3z"/>
<path d="M4440 4606 c-7 -17 -15 -33 -17 -36 -1 -3 7 -10 20 -16 12 -6 36 -19
53 -30 27 -15 34 -16 48 -5 9 7 16 19 16 26 0 22 -48 72 -78 83 -26 9 -30 7
-42 -22z"/>
<path d="M2125 4607 c-47 -27 -88 -93 -83 -136 l3 -30 33 16 c58 28 106 86
126 151 6 18 4 22 -16 22 -13 0 -41 -11 -63 -23z"/>
<path d="M2217 4591 c-3 -15 -22 -49 -41 -75 -31 -40 -36 -54 -36 -101 0 -30
4 -55 8 -55 13 0 48 41 67 79 19 39 34 181 18 181 -6 0 -13 -13 -16 -29z"/>
<path d="M2250 4600 c0 -24 15 -27 24 -4 9 22 8 24 -9 24 -8 0 -15 -9 -15 -20z"/>
<path d="M2815 4613 c-38 -6 -55 -21 -36 -32 16 -11 65 4 82 25 12 15 13 15
-46 7z"/>
<path d="M3955 4611 c6 -6 27 -17 48 -26 34 -14 38 -14 43 0 8 21 8 21 -51 29
-31 4 -46 3 -40 -3z"/>
<path d="M2860 4585 c-19 -14 -40 -25 -47 -25 -7 0 -13 -9 -13 -20 0 -29 21
-25 68 16 62 53 57 74 -8 29z"/>
<path d="M3081 4584 c-19 -13 -45 -24 -58 -24 -22 0 -42 -24 -30 -36 8 -9 70
23 108 56 41 35 28 38 -20 4z"/>
<path d="M3224 4571 c-38 -58 -14 -82 40 -40 25 19 25 22 10 34 -10 7 -15 19
-11 29 12 31 -13 16 -39 -23z"/>
<path d="M3287 4603 c-12 -11 -8 -33 6 -33 6 0 23 9 37 20 l25 20 -31 0 c-17
0 -34 -3 -37 -7z"/>
<path d="M3480 4605 c0 -10 50 -36 59 -31 19 12 -1 36 -30 36 -16 0 -29 -2
-29 -5z"/>
<path d="M3565 4591 c4 -13 0 -23 -12 -29 -16 -9 -15 -12 7 -31 54 -45 79 -15
38 46 -25 36 -43 44 -33 14z"/>
<path d="M3720 4585 c26 -27 108 -71 117 -62 14 14 -8 37 -36 37 -17 0 -42 11
-59 25 -38 32 -52 32 -22 0z"/>
<path d="M3920 4601 c0 -14 80 -83 93 -78 25 8 16 27 -22 46 -22 12 -42 25
-46 31 -8 12 -25 13 -25 1z"/>
<path d="M3346 4581 c-20 -22 -18 -56 4 -56 9 0 17 14 21 38 7 41 0 46 -25 18z"/>
<path d="M3390 4557 c0 -51 16 -70 37 -42 15 22 18 85 3 85 -5 0 -10 -5 -10
-11 0 -8 -5 -8 -15 1 -13 11 -15 6 -15 -33z"/>
<path d="M3456 4570 c1 -39 19 -59 36 -42 10 10 10 18 -2 39 -21 37 -35 38
-34 3z"/>
<path d="M2507 4572 c-24 -26 -21 -39 3 -17 21 19 20 20 35 -32 3 -7 24 -11
60 -9 51 2 57 5 75 34 11 18 20 35 20 37 0 3 -40 5 -88 5 -73 0 -92 -3 -105
-18z"/>
<path d="M4135 4573 c4 -10 10 -26 12 -35 3 -11 16 -19 32 -20 70 -4 104 -2
106 7 14 49 14 49 35 30 11 -10 20 -14 20 -8 0 5 -8 17 -18 26 -14 13 -39 17
-106 17 -80 0 -87 -2 -81 -17z"/>
<path d="M2705 4550 c-19 -21 -14 -50 9 -50 23 0 70 45 62 58 -11 19 -51 14
-71 -8z"/>
<path d="M4052 4561 c-10 -6 -6 -15 18 -35 50 -41 87 -29 56 19 -17 25 -49 32
-74 16z"/>
<path d="M2435 4550 c-8 -14 3 -30 21 -30 8 0 14 9 14 20 0 21 -24 28 -35 10z"/>
<path d="M4360 4540 c0 -11 4 -20 9 -20 13 0 32 26 24 33 -13 14 -33 6 -33
-13z"/>
<path d="M2361 4520 c-22 -17 -41 -34 -41 -39 0 -48 45 -54 92 -12 l32 28 -21
26 -21 27 -41 -30z"/>
<path d="M2496 4521 c-18 -20 -16 -51 4 -51 14 0 33 51 22 62 -5 5 -16 0 -26
-11z"/>
<path d="M2940 4525 c-14 -8 -32 -15 -40 -15 -24 -1 -65 -36 -51 -44 17 -11
121 40 121 58 0 19 1 19 -30 1z"/>
<path d="M3276 4509 c-21 -24 -24 -34 -15 -45 12 -15 36 -7 58 20 10 12 10 19
-2 36 -14 21 -15 21 -41 -11z"/>
<path d="M3510 4519 c-11 -20 -10 -25 14 -46 47 -40 67 4 22 46 l-24 23 -12
-23z"/>
<path d="M3860 4526 c0 -22 103 -77 117 -62 9 9 -28 46 -46 46 -9 0 -28 7 -43
14 -23 12 -28 12 -28 2z"/>
<path d="M4398 4520 c-15 -17 -14 -20 10 -43 46 -42 67 -49 87 -28 20 23 10
49 -29 75 -32 20 -46 19 -68 -4z"/>
<path d="M4309 4503 c9 -32 28 -41 38 -17 4 11 0 22 -12 30 -28 20 -34 17 -26
-13z"/>
<path d="M2757 4502 c-10 -10 -17 -22 -17 -25 0 -15 57 -6 89 14 34 21 38 39
4 21 -12 -7 -25 -7 -34 -1 -20 12 -24 11 -42 -9z"/>
<path d="M3997 4493 c38 -23 78 -30 87 -15 10 17 -31 37 -77 37 l-47 1 37 -23z"/>
<path d="M3347 4492 c-26 -29 -38 -69 -23 -81 10 -8 17 -6 28 7 44 53 40 124
-5 74z"/>
<path d="M3440 4495 c0 -20 29 -78 43 -87 32 -20 36 31 6 73 -22 31 -49 39
-49 14z"/>
<path d="M3115 4407 c-69 -70 -86 -93 -99 -137 -9 -29 -14 -55 -11 -58 9 -9
94 49 100 68 3 11 35 60 71 109 35 50 64 92 64 96 0 3 -9 5 -21 5 -12 0 -53
-33 -104 -83z"/>
<path d="M3590 4481 c0 -6 23 -40 50 -76 28 -37 59 -84 70 -105 18 -36 81 -90
104 -90 19 0 -5 76 -39 126 -60 86 -185 184 -185 145z"/>
<path d="M2410 4440 c-42 -36 -44 -40 -29 -55 23 -23 53 -12 85 30 23 31 24
36 11 50 -9 8 -17 15 -19 15 -2 0 -23 -18 -48 -40z"/>
<path d="M3395 4459 c-8 -25 2 -86 15 -94 15 -9 32 46 25 82 -7 37 -30 44 -40
12z"/>
<path d="M4352 4464 c-12 -12 -11 -19 2 -39 22 -33 62 -59 81 -51 27 10 16 42
-24 74 -46 37 -42 36 -59 16z"/>
<path d="M4236 4429 c-75 -49 -77 -51 -43 -45 26 5 106 64 107 79 0 9 4 11
-64 -34z"/>
<path d="M2509 4444 c-11 -13 -10 -20 5 -42 35 -54 48 -98 54 -174 5 -84 15
-101 65 -114 l29 -7 -7 49 c-14 104 -51 195 -108 272 -22 29 -26 31 -38 16z"/>
<path d="M3195 4388 c-57 -75 -103 -171 -108 -225 -5 -52 5 -54 55 -13 27 22
53 65 97 156 34 69 61 127 61 129 0 1 -14 5 -30 7 -28 4 -35 -1 -75 -54z"/>
<path d="M3553 4443 c-13 -2 -23 -8 -23 -12 0 -5 15 -37 33 -72 18 -35 43 -88
55 -116 14 -32 42 -69 70 -94 l47 -41 3 43 c4 50 -41 150 -108 239 -44 59 -44
59 -77 53z"/>
<path d="M4282 4370 c-24 -28 -37 -47 -28 -44 17 7 92 94 79 94 -4 -1 -27 -23
-51 -50z"/>
<path d="M3363 4399 c-14 -18 -50 -164 -63 -257 -10 -71 -4 -182 10 -182 3 0
16 20 28 44 16 32 22 62 23 117 0 41 6 112 13 159 14 91 9 143 -11 119z"/>
<path d="M3446 4376 c-3 -13 -1 -48 4 -77 6 -29 13 -98 16 -153 4 -71 12 -114
27 -145 17 -37 21 -41 30 -26 14 25 2 216 -18 290 -9 33 -21 77 -26 98 -11 42
-24 48 -33 13z"/>
<path d="M4249 4373 l-24 -28 28 24 c25 23 32 31 24 31 -2 0 -14 -12 -28 -27z"/>
<path d="M3260 4308 c-53 -109 -90 -288 -61 -288 12 0 48 50 65 92 12 29 66
250 66 270 0 5 -7 8 -15 8 -10 0 -31 -32 -55 -82z"/>
<path d="M3494 4368 c4 -13 16 -61 27 -108 32 -133 41 -160 73 -203 26 -37 30
-39 36 -22 26 70 -73 355 -123 355 -15 0 -18 -5 -13 -22z"/>
<path d="M4336 4351 c-10 -21 -16 -47 -14 -57 3 -15 9 -9 26 23 12 23 22 49
22 58 0 27 -17 16 -34 -24z"/>
<path d="M4068 4364 c-32 -17 -33 -20 -14 -40 13 -12 19 -11 50 8 19 13 37 29
40 36 7 17 -42 15 -76 -4z"/>
<path d="M4200 4350 c-8 -5 -11 -12 -7 -16 4 -4 13 -2 19 4 15 15 7 24 -12 12z"/>
<path d="M4295 4340 c-10 -11 -13 -20 -8 -20 13 0 38 29 31 35 -3 3 -13 -4
-23 -15z"/>
<path d="M4367 4322 c-20 -46 -22 -65 -5 -60 13 5 41 98 29 98 -4 0 -15 -17
-24 -38z"/>
<path d="M3390 4268 c-16 -91 -9 -281 12 -328 l16 -35 13 30 c15 35 19 257 6
348 -12 82 -32 76 -47 -15z"/>
<path d="M4090 4300 c-39 -34 -42 -39 -22 -40 16 0 22 -6 22 -22 0 -20 4 -18
40 17 42 41 51 69 24 79 -9 3 -16 6 -17 6 -1 0 -22 -18 -47 -40z"/>
<path d="M4190 4301 c-5 -11 -17 -27 -26 -36 -11 -11 -13 -20 -7 -26 7 -7 19
0 37 24 14 18 26 39 26 45 0 19 -18 14 -30 -7z"/>
<path d="M4222 4274 c-18 -29 -20 -38 -9 -48 11 -11 17 -7 33 23 19 35 21 62
6 61 -4 -1 -17 -17 -30 -36z"/>
<path d="M4301 4231 c-17 -32 -19 -46 -11 -61 6 -11 12 -20 15 -20 2 0 11 23
20 51 23 68 6 89 -24 30z"/>
<path d="M4250 4219 c-12 -22 -20 -48 -18 -57 3 -11 14 1 31 35 30 58 31 63
17 63 -5 0 -19 -18 -30 -41z"/>
<path d="M4366 4243 c-10 -10 -36 -72 -36 -85 0 -6 6 -8 14 -5 7 3 18 1 24 -5
12 -12 17 -4 25 46 7 45 -6 69 -27 49z"/>
<path d="M3217 2982 c-21 -23 -37 -67 -37 -103 0 -38 31 -39 58 -1 20 28 42
85 42 108 0 20 -44 17 -63 -4z"/>
<path d="M3006 2980 c-30 -37 -35 -62 -8 -53 43 15 69 55 48 72 -11 9 -19 5
-40 -19z"/>
<path d="M4052 2988 c-22 -29 -42 -79 -42 -108 0 -31 6 -35 35 -23 19 7 65 97
65 126 0 20 -42 24 -58 5z"/>
<path d="M4468 2993 c-22 -25 -41 -64 -34 -70 8 -8 54 24 66 47 19 36 -5 53
-32 23z"/>
<path d="M2997 2441 l-37 -51 35 0 c40 0 48 11 43 65 l-3 36 -38 -50z"/>
<path d="M2277 2452 c-22 -24 -46 -122 -37 -147 20 -54 73 -2 86 84 10 65 -17
99 -49 63z"/>
<path d="M3676 2439 c-14 -17 -26 -37 -26 -45 0 -12 4 -12 30 1 32 16 55 49
45 65 -10 17 -22 11 -49 -21z"/>
<path d="M4429 2439 c-39 -42 -53 -129 -20 -129 30 0 90 112 78 145 -9 23 -26
18 -58 -16z"/>
</g>
</svg>
