<?xml version="1.0" standalone="no"?>
<!DOCTYPE svg PUBLIC "-//W3C//DTD SVG 20010904//EN"
 "http://www.w3.org/TR/2001/REC-SVG-20010904/DTD/svg10.dtd">
<svg version="1.0" xmlns="http://www.w3.org/2000/svg"
 width="674.000000pt" height="1000.000000pt" viewBox="0 0 674.000000 1000.000000"
 preserveAspectRatio="xMidYMid meet">
<rect width="674.000000pt" height="1000.000000pt" fill="#FBBB6A" />
<g transform="translate(0.000000,1000.000000) scale(0.100000,-0.100000)"
fill="#192D74" stroke="none">
<path d="M0 5000 l0 -5000 3370 0 3370 0 0 5000 0 5000 -3370 0 -3370 0 0
-5000z m3750 3791 c0 -10 -7 -25 -17 -32 -15 -13 -16 -11 -9 15 6 26 5 28 -8
17 -13 -11 -16 -11 -16 3 0 10 9 16 25 16 18 0 25 -5 25 -19z m-3078 -8 c26
-23 22 -35 -7 -21 -19 8 -28 8 -40 -2 -23 -19 -31 -3 -10 20 22 24 33 25 57 3z
m979 -10 c21 -23 22 -25 4 -18 -11 4 -28 10 -37 12 -19 6 -23 15 -11 26 11 12
19 8 44 -20z m684 17 c5 -8 11 -7 21 1 15 12 19 2 6 -17 -5 -9 -72 -15 -72 -7
0 27 32 43 45 23z m547 -7 c25 -22 23 -36 -3 -22 -16 8 -28 8 -45 0 -28 -12
-31 -5 -7 21 20 22 31 23 55 1z m1763 7 c5 -8 12 -7 22 2 13 10 15 9 12 -7 -3
-16 -12 -20 -42 -20 -20 0 -37 1 -37 2 0 27 32 43 45 23z m768 -15 c20 -28 16
-31 -13 -13 -16 10 -24 10 -41 0 -28 -18 -37 -7 -14 18 24 27 46 25 68 -5z
m-4910 -42 c2 -5 0 -19 -4 -33 -7 -25 -7 -25 -14 -3 -10 32 -31 35 -61 9 -23
-19 -27 -31 -28 -79 0 -47 4 -61 24 -82 21 -22 31 -26 60 -21 32 5 34 4 16 -9
-32 -24 -83 -19 -111 11 -73 78 -25 214 75 214 21 0 41 -3 43 -7z m212 -17
c30 -30 40 -81 26 -134 -22 -81 -106 -109 -162 -53 -26 26 -29 36 -29 91 0 55
3 65 29 91 39 38 100 41 136 5z m171 -53 l49 -78 3 65 c2 39 -1 66 -7 68 -21
7 -11 22 14 22 14 0 25 -4 25 -10 0 -5 -5 -10 -10 -10 -7 0 -10 -39 -8 -107 1
-60 -2 -108 -6 -108 -5 0 -32 37 -60 82 -28 45 -54 82 -58 83 -5 0 -8 -34 -8
-75 0 -43 4 -75 10 -75 6 0 10 -4 10 -9 0 -5 -11 -8 -25 -8 -24 0 -33 11 -17
20 9 7 8 166 -2 195 -6 19 -4 22 17 22 20 0 34 -15 73 -77z m284 47 c0 -16 -4
-30 -10 -30 -5 0 -10 9 -10 19 0 39 -57 33 -80 -9 -5 -10 -10 -43 -10 -73 0
-59 19 -93 55 -99 17 -3 20 3 21 35 1 20 -3 37 -7 37 -5 0 -9 5 -9 10 0 6 16
10 35 10 19 0 35 -4 35 -10 0 -5 -4 -10 -9 -10 -5 0 -8 -18 -7 -40 1 -44 -6
-50 -59 -50 -73 0 -120 79 -96 160 16 53 53 80 107 80 42 0 44 -1 44 -30z
m192 -20 l-5 -50 41 0 c40 0 40 0 40 38 0 20 -5 43 -10 50 -8 9 -1 12 33 12
37 -1 41 -3 28 -13 -16 -12 -16 -17 -6 -177 4 -45 3 -45 -30 -46 -32 0 -43 9
-23 21 6 3 10 26 10 51 l0 44 -41 0 -41 0 4 -57 4 -58 -33 0 c-18 0 -33 3 -33
8 0 4 5 7 10 7 6 0 10 39 10 96 0 80 -3 99 -17 110 -16 12 -13 13 23 14 l41 0
-5 -50z m343 26 c30 -30 41 -87 26 -136 -24 -80 -107 -106 -162 -51 -24 25
-29 37 -29 81 0 55 19 103 47 119 33 19 92 13 118 -13z m179 -31 c9 -30 23
-80 32 -110 8 -30 20 -55 25 -55 5 0 9 -3 9 -7 0 -5 -18 -9 -40 -11 -36 -2
-56 11 -29 20 7 2 7 12 0 31 -8 20 -17 27 -36 27 -19 0 -28 -7 -36 -27 -7 -19
-7 -29 0 -31 22 -7 10 -19 -19 -19 -31 0 -40 11 -17 20 7 3 28 53 46 111 18
58 37 106 41 106 5 0 16 -25 24 -55z m229 44 c-9 -9 -8 -19 4 -42 15 -30 16
-30 30 -11 8 10 12 29 10 42 -4 18 0 22 24 22 l28 0 -34 -51 -35 -50 30 -60
c17 -32 35 -59 40 -59 6 0 10 -3 10 -8 0 -4 -18 -7 -40 -7 -30 0 -39 3 -35 13
5 12 -20 72 -30 72 -10 0 -34 -60 -30 -72 4 -10 -2 -13 -22 -12 -39 2 -40 2
-17 18 11 8 29 33 39 55 18 40 18 42 -1 83 -10 23 -27 50 -38 60 -19 18 -19
18 29 18 37 0 46 -3 38 -11z m252 -90 c15 -55 34 -107 41 -114 20 -20 18 -21
-26 -20 -33 0 -39 3 -34 18 17 54 -47 83 -67 30 -7 -19 -7 -29 0 -31 22 -7 10
-19 -19 -19 -16 0 -30 4 -30 9 0 4 4 8 9 8 5 0 26 50 46 110 20 61 40 110 44
110 4 0 20 -45 36 -101z m217 89 c-7 -7 -12 -29 -12 -50 0 -38 0 -38 40 -38
40 0 40 0 40 38 0 21 -5 43 -12 50 -9 9 -3 12 30 12 23 0 42 -4 42 -10 0 -5
-4 -10 -10 -10 -6 0 -10 -40 -10 -100 0 -60 4 -100 10 -100 6 0 10 -4 10 -8 0
-5 -15 -8 -33 -8 l-33 1 4 58 4 57 -41 0 -41 0 0 -50 c0 -27 5 -50 10 -50 6 0
10 -3 10 -7 0 -5 -19 -9 -41 -10 -30 -1 -38 2 -30 10 15 15 15 199 -1 215 -9
9 -2 12 32 12 34 0 41 -3 32 -12z m342 -11 c29 -29 40 -85 26 -136 -21 -80
-105 -107 -161 -52 -26 26 -29 36 -29 89 0 50 4 66 26 91 22 26 33 31 70 31
34 0 51 -6 68 -23z m148 11 c-15 -15 -17 -208 -2 -208 6 0 10 -4 10 -9 0 -4
-18 -8 -40 -8 -22 0 -40 4 -40 8 0 5 5 9 10 9 6 0 10 40 10 100 0 60 -4 100
-10 100 -5 0 -10 5 -10 10 0 6 19 10 42 10 33 0 39 -3 30 -12z m268 -18 c0
-16 -4 -30 -10 -30 -5 0 -10 9 -10 19 0 10 -7 22 -16 25 -64 25 -100 -128 -42
-186 15 -15 28 -19 49 -14 30 6 40 -8 13 -18 -37 -14 -76 -6 -105 23 -24 25
-29 37 -29 81 0 90 33 128 113 129 35 1 37 -1 37 -29z m112 18 c-7 -7 -12 -29
-12 -50 0 -38 0 -38 40 -38 40 0 40 0 40 38 0 21 -5 43 -12 50 -9 9 -2 12 32
12 34 0 41 -3 32 -12 -15 -15 -17 -208 -2 -208 6 0 10 -3 10 -8 0 -4 -18 -7
-40 -7 -25 0 -36 3 -30 9 6 6 10 32 10 59 l0 48 -37 -3 c-38 -3 -38 -3 -41
-50 -2 -29 1 -48 7 -48 6 0 11 -3 11 -8 0 -4 -18 -7 -40 -7 -22 0 -40 3 -40 7
0 5 5 8 10 8 15 0 13 193 -2 208 -9 9 -2 12 32 12 34 0 41 -3 32 -12z m240 0
c-15 -15 -16 -161 -2 -189 13 -23 53 -25 71 -3 15 18 23 184 8 184 -5 0 -9 5
-9 10 0 6 11 10 25 10 14 0 25 -4 25 -10 0 -5 -4 -10 -8 -10 -5 0 -9 -33 -10
-72 0 -40 -1 -81 -1 -90 -1 -30 -38 -58 -75 -58 -56 0 -76 35 -76 134 0 51 -5
87 -12 94 -9 9 -2 12 32 12 34 0 41 -3 32 -12z m317 -58 c23 -38 46 -72 49
-74 11 -7 1 118 -10 132 -8 9 -3 12 23 12 26 0 30 -3 21 -12 -8 -8 -12 -49
-12 -120 0 -59 -3 -108 -7 -108 -5 0 -30 37 -57 81 -27 44 -53 82 -58 85 -4 3
-8 -29 -8 -70 0 -44 4 -76 10 -76 6 0 10 -4 10 -8 0 -5 -14 -9 -30 -9 -21 0
-27 4 -20 11 14 14 13 199 -2 214 -9 9 -5 12 18 12 26 0 35 -9 73 -70z m287
56 c3 -8 1 -23 -5 -33 -9 -15 -10 -16 -11 -2 -1 50 -61 44 -85 -8 -29 -60 0
-163 45 -163 16 0 20 7 20 33 0 18 -5 38 -12 45 -9 9 -2 12 31 12 34 0 41 -3
33 -13 -6 -7 -12 -30 -14 -52 -3 -45 -20 -52 -85 -40 -80 15 -100 150 -32 214
27 25 106 30 115 7z m136 2 c-7 -7 -12 -29 -12 -50 0 -38 0 -38 40 -38 40 0
40 0 40 38 0 21 -5 43 -12 50 -9 9 -2 12 32 12 34 0 41 -3 32 -12 -15 -15 -17
-208 -2 -208 6 0 10 -4 10 -9 0 -5 -18 -9 -40 -8 -22 1 -40 5 -40 10 0 4 5 7
10 7 6 0 10 23 10 50 l0 50 -41 0 -41 0 4 -57 4 -58 -33 0 c-18 0 -33 3 -33 8
0 4 5 7 10 7 6 0 10 40 10 100 0 60 -4 100 -10 100 -5 0 -10 5 -10 10 0 6 19
10 42 10 33 0 39 -3 30 -12z m240 0 c-15 -15 -17 -208 -2 -208 6 0 10 -3 10
-8 0 -4 -18 -7 -40 -7 -22 0 -40 3 -40 7 0 5 5 8 10 8 15 0 13 193 -2 208 -9
9 -2 12 32 12 34 0 41 -3 32 -12z m152 -35 c8 -27 22 -76 32 -110 9 -35 21
-63 25 -63 5 0 9 -3 9 -7 0 -5 -18 -8 -40 -8 -37 -1 -54 9 -29 17 7 2 7 12 0
31 -20 53 -84 24 -67 -30 5 -14 -1 -18 -25 -20 -29 -2 -30 -1 -16 15 8 9 30
63 48 120 18 56 36 102 40 102 4 0 14 -21 23 -47z m223 10 c1 -21 8 -58 16
-83 l14 -45 21 69 c17 52 19 72 11 82 -9 11 -5 14 20 14 17 0 31 -4 31 -10 0
-5 -4 -10 -9 -10 -5 0 -26 -50 -46 -111 -21 -61 -41 -107 -45 -102 -4 4 -20
51 -35 103 -15 52 -34 103 -42 113 -15 16 -14 17 23 17 38 0 39 -1 41 -37z
m212 24 c-14 -10 -17 -29 -15 -102 1 -50 5 -97 9 -106 6 -12 0 -16 -34 -18
-39 -2 -41 -1 -28 15 21 26 23 183 2 207 -15 16 -13 17 33 17 41 -1 46 -3 33
-13z m181 -17 c0 -16 -4 -30 -10 -30 -5 0 -10 9 -10 20 0 15 -7 20 -25 20 -23
0 -25 -4 -25 -45 0 -48 13 -58 36 -27 12 15 13 13 14 -20 0 -21 -4 -38 -10
-38 -5 0 -10 7 -10 15 0 8 -7 15 -15 15 -11 0 -15 -12 -15 -50 0 -47 1 -50 26
-50 17 0 28 6 31 20 3 11 9 20 14 20 10 0 11 -7 3 -37 -5 -20 -12 -21 -70 -20
-35 1 -64 5 -64 10 0 4 5 7 10 7 6 0 10 40 10 100 0 60 -4 100 -10 100 -5 0
-10 5 -10 10 0 6 28 10 65 10 l65 0 0 -30z m200 0 c0 -16 -4 -30 -10 -30 -5 0
-10 9 -10 20 0 13 -7 20 -20 20 -19 0 -20 -7 -20 -100 0 -60 4 -100 10 -100 6
0 10 -4 10 -9 0 -5 -18 -8 -40 -8 -22 1 -40 5 -40 10 0 4 5 7 10 7 6 0 10 40
10 100 0 93 -1 100 -20 100 -11 0 -20 -6 -20 -14 0 -8 -4 -18 -10 -21 -6 -4
-10 7 -10 24 l0 31 80 0 80 0 0 -30z m196 -47 l49 -78 3 65 c2 39 -1 66 -7 68
-24 8 -9 22 22 22 28 -1 30 -2 15 -13 -13 -11 -16 -31 -16 -115 0 -57 -2 -105
-4 -108 -3 -3 -30 33 -59 80 -30 47 -57 85 -61 86 -5 0 -8 -34 -8 -75 0 -43 4
-75 10 -75 6 0 10 -4 10 -9 0 -5 -11 -8 -25 -8 -14 0 -25 3 -25 8 0 5 5 9 10
9 6 0 10 39 10 96 0 80 -3 99 -17 110 -16 12 -15 13 13 14 29 0 36 -7 80 -77z
m234 5 c12 -40 26 -90 32 -110 6 -21 15 -38 20 -38 4 0 8 -3 8 -7 0 -5 -18 -8
-40 -8 -37 -1 -54 9 -29 17 7 2 7 12 0 31 -14 37 -53 37 -70 0 -9 -19 -9 -29
-2 -31 22 -7 10 -19 -19 -20 -30 -1 -41 12 -17 21 7 3 28 53 46 111 18 58 37
106 42 106 4 0 18 -33 29 -72z m176 -10 l27 -83 26 80 c26 78 27 80 61 83 28
3 33 1 23 -9 -16 -16 -18 -209 -3 -209 6 0 10 -4 10 -8 0 -5 -18 -8 -40 -8
-29 0 -37 3 -29 12 5 7 9 45 7 86 l-3 73 -29 -87 c-17 -48 -33 -85 -37 -83 -3
3 -18 43 -33 90 -15 47 -29 85 -31 85 -5 0 2 -98 10 -150 3 -21 -1 -25 -21
-25 -13 0 -24 3 -24 8 0 4 5 7 10 7 6 0 10 40 10 100 0 60 -4 100 -10 100 -5
0 -10 5 -10 10 0 6 13 10 29 10 28 0 31 -4 57 -82z m-5581 -203 c0 -28 -29
-25 -33 3 -3 19 0 23 15 20 10 -2 18 -12 18 -23z m2209 16 c9 -14 -4 -41 -20
-41 -8 0 -14 10 -14 25 0 25 23 35 34 16z m2523 -7 c8 -21 -13 -42 -28 -27
-13 13 -5 43 11 43 6 0 13 -7 17 -16z m-4314 -121 c3 -5 1 -17 -3 -27 -6 -19
-7 -19 -12 2 -7 27 -34 29 -48 3 -8 -16 -4 -24 30 -51 59 -47 54 -105 -10
-111 -49 -4 -60 0 -60 26 0 14 5 25 10 25 6 0 10 -9 10 -20 0 -25 32 -27 51
-4 12 14 8 21 -29 53 -45 38 -52 63 -25 93 16 18 77 25 86 11z m207 -13 c47
-47 34 -137 -26 -165 -98 -46 -180 69 -108 154 22 26 33 31 70 31 30 0 50 -6
64 -20z m212 14 c8 -8 -3 -44 -13 -44 -5 0 -9 9 -9 20 0 30 -34 25 -60 -7 -17
-22 -21 -37 -17 -67 7 -50 28 -70 72 -69 19 1 32 -3 29 -8 -3 -5 -25 -9 -50
-9 -34 0 -51 6 -69 25 -59 58 -12 165 73 165 21 0 41 -3 44 -6z m110 -6 c-17
-17 -16 -165 1 -171 6 -3 -4 -6 -23 -6 l-35 -1 3 81 c2 52 -1 85 -8 95 -11 12
-6 14 31 14 33 0 40 -3 31 -12z m162 -85 c15 -45 33 -84 39 -87 7 -2 -4 -5
-24 -5 -23 -1 -37 4 -36 12 1 38 -4 47 -28 47 -30 0 -55 -38 -34 -51 9 -6 2
-8 -21 -8 -19 0 -30 3 -23 5 7 3 26 42 44 87 17 45 33 86 36 90 9 15 20 -6 47
-90z m137 83 c-7 -9 -11 -42 -9 -87 3 -63 6 -74 22 -77 12 -3 27 5 37 19 l19
24 0 -27 c0 -28 -1 -28 -67 -28 -52 0 -64 3 -55 12 7 7 12 41 12 83 0 42 -5
76 -12 83 -9 9 -4 12 26 12 32 0 36 -2 27 -14z m171 2 c-17 -17 -16 -165 1
-171 6 -3 -8 -5 -33 -5 -25 0 -39 2 -32 5 16 6 17 154 0 171 -9 9 -2 12 32 12
34 0 41 -3 32 -12z m151 5 c3 -5 1 -17 -3 -28 -7 -19 -7 -19 -14 3 -8 25 -28
29 -45 8 -16 -19 -6 -37 32 -61 59 -37 43 -106 -26 -108 -44 -1 -50 4 -44 35
l4 23 8 -22 c8 -26 37 -30 55 -8 15 18 1 39 -42 61 -32 17 -39 62 -12 88 16
16 79 22 87 9z m187 -18 c0 -14 -4 -25 -10 -25 -5 0 -10 7 -10 15 0 8 -9 15
-20 15 -19 0 -20 -6 -18 -76 1 -56 6 -78 18 -84 10 -7 2 -9 -29 -10 -35 0 -42
3 -33 12 7 7 12 42 12 85 0 61 -3 73 -16 73 -9 0 -23 -8 -30 -17 -12 -16 -13
-15 -14 10 l0 27 75 0 c73 0 75 -1 75 -25z m218 9 c27 -19 28 -41 3 -68 -19
-21 -19 -21 9 -63 l30 -43 -25 0 c-18 0 -30 10 -47 40 -13 22 -26 40 -30 40
-13 0 -9 -68 5 -73 6 -3 -4 -6 -23 -6 l-35 -1 0 95 0 95 45 0 c25 0 56 -7 68
-16z m202 -3 c0 -11 -4 -23 -10 -26 -5 -3 -10 1 -10 9 0 10 -9 16 -25 16 -22
0 -25 -4 -25 -35 0 -24 5 -35 15 -35 8 0 15 5 15 10 0 6 5 10 10 10 6 0 10
-11 10 -25 0 -14 -4 -25 -10 -25 -5 0 -10 5 -10 10 0 6 -7 10 -16 10 -11 0
-14 -9 -12 -37 4 -44 19 -52 47 -24 l21 21 0 -25 c0 -24 -2 -25 -67 -24 -38 0
-62 3 -55 6 16 6 17 154 0 171 -9 9 3 12 55 12 60 0 67 -2 67 -19z m168 3 c41
-29 15 -94 -39 -94 -26 0 -29 -3 -29 -34 0 -19 6 -37 13 -39 6 -3 -8 -5 -33
-5 -25 0 -39 2 -32 5 16 6 17 154 0 171 -19 19 92 16 120 -4z m112 1 c-9 -10
-11 -35 -7 -76 6 -64 19 -89 47 -89 32 0 42 25 38 105 -3 74 -3 75 22 75 19 0
21 -3 12 -12 -7 -7 -12 -40 -12 -77 -1 -91 -33 -125 -96 -101 -39 15 -44 25
-44 101 0 37 -5 70 -12 77 -9 9 -4 12 26 12 33 0 37 -2 26 -15z m278 -1 c26
-18 28 -36 7 -54 -14 -12 -14 -15 0 -30 8 -9 15 -26 15 -38 0 -35 -27 -52 -83
-52 l-52 0 5 86 c3 48 1 89 -4 95 -17 16 88 10 112 -7z m134 4 c-7 -7 -12 -43
-12 -90 0 -71 2 -78 19 -78 11 0 27 10 35 22 l16 22 0 -27 c0 -27 -1 -27 -67
-26 -38 0 -62 3 -55 6 16 6 17 154 0 171 -9 9 -2 12 32 12 34 0 41 -3 32 -12z
m160 0 c-17 -17 -16 -165 1 -171 6 -3 -4 -6 -23 -6 l-35 -1 0 95 0 95 35 0
c26 0 31 -3 22 -12z m191 5 c3 -5 1 -17 -3 -28 -7 -19 -7 -19 -14 3 -9 26 -23
28 -53 7 -27 -19 -37 -59 -23 -101 14 -40 40 -57 75 -48 32 8 33 -4 1 -16 -35
-13 -91 5 -111 37 -24 37 -15 101 20 130 26 23 98 33 108 16z m268 -19 c35
-38 34 -104 -4 -141 -38 -38 -101 -37 -134 1 -41 47 -25 140 27 159 40 14 87
7 111 -19z m189 -1 c-1 -25 -2 -26 -14 -10 -7 9 -23 17 -35 17 -17 0 -21 -6
-21 -35 0 -28 4 -35 19 -35 11 0 22 6 24 13 3 6 6 -1 6 -17 1 -24 -1 -26 -14
-16 -8 6 -19 9 -25 5 -14 -9 -13 -58 2 -73 9 -9 4 -12 -26 -12 -29 0 -36 3
-29 13 10 13 9 150 -2 167 -4 6 15 10 54 10 60 0 61 0 61 -27z m155 16 c-7
-11 12 -97 25 -112 8 -10 43 100 35 113 -3 6 5 10 20 10 24 0 25 -1 11 -22 -8
-13 -27 -56 -42 -95 -14 -40 -30 -73 -34 -73 -5 0 -21 37 -36 83 -14 45 -31
88 -37 95 -7 9 -1 12 27 12 24 0 35 -4 31 -11z m197 -1 c-17 -17 -16 -165 1
-171 6 -3 -8 -5 -33 -5 -25 0 -39 2 -32 5 16 6 17 154 0 171 -9 9 -2 12 32 12
34 0 41 -3 32 -12z m173 2 c3 -5 1 -18 -4 -27 -10 -17 -10 -17 -11 0 0 11 -8
17 -25 17 -22 0 -25 -4 -25 -35 0 -24 5 -35 15 -35 8 0 15 5 15 10 0 6 4 10 9
10 5 0 9 -11 9 -25 0 -14 -4 -25 -9 -25 -5 0 -9 5 -9 10 0 6 -7 10 -15 10 -11
0 -15 -11 -15 -41 0 -37 2 -40 23 -34 12 4 28 14 35 23 10 14 12 12 12 -11 0
-27 -1 -27 -67 -26 -38 0 -62 3 -55 6 16 6 17 154 0 171 -9 9 2 12 49 12 34 0
65 -4 68 -10z m188 3 c3 -5 1 -17 -3 -27 -6 -17 -7 -18 -13 -3 -3 9 -13 17
-22 17 -12 0 -15 -15 -15 -79 0 -54 4 -81 13 -84 6 -3 -8 -5 -33 -5 -25 0 -39
2 -32 5 8 3 12 30 12 84 0 72 -2 79 -20 79 -11 0 -20 -7 -20 -15 0 -8 -4 -15
-10 -15 -5 0 -10 11 -10 25 0 24 2 25 74 25 41 0 77 -3 79 -7z m185 -54 l47
-62 3 47 c2 27 -2 54 -9 62 -9 12 -6 14 17 14 22 0 25 -3 16 -12 -7 -7 -12
-44 -12 -95 0 -46 -3 -83 -7 -83 -5 1 -32 32 -60 71 l-53 71 0 -65 c0 -43 4
-67 13 -70 6 -3 1 -6 -13 -6 -25 -1 -25 -1 -22 80 2 52 -1 85 -8 95 -10 12 -8
14 14 14 20 0 37 -14 74 -61z m215 19 c8 -24 21 -61 27 -83 7 -22 19 -46 28
-52 13 -11 9 -13 -29 -13 -28 0 -39 3 -30 9 21 13 -4 51 -34 51 -24 0 -42 -30
-30 -50 4 -6 -5 -10 -22 -9 -15 0 -23 3 -16 5 6 3 26 45 44 95 19 49 36 89 40
89 3 0 13 -19 22 -42z m171 -20 c12 -32 23 -58 26 -58 3 0 16 27 28 60 22 56
26 60 55 60 24 0 28 -3 19 -12 -17 -17 -16 -165 1 -171 6 -3 -4 -6 -24 -6 -32
-1 -36 2 -33 22 9 63 11 118 4 110 -4 -4 -18 -36 -30 -70 -13 -35 -26 -63 -30
-63 -4 0 -19 30 -33 68 l-26 67 2 -68 c2 -66 1 -67 -23 -66 -14 0 -19 3 -12 6
8 3 12 29 12 82 0 48 -5 82 -12 90 -11 10 -6 12 21 9 32 -3 36 -7 55 -60z
m-2350 -1614 c9 -3 16 -10 16 -15 0 -9 -64 -29 -95 -29 -17 0 -18 2 -5 11 11
8 12 12 2 16 -38 15 42 32 82 17z m291 -4 c3 -6 -1 -7 -9 -4 -9 3 -16 1 -16
-5 0 -6 5 -11 10 -11 6 0 10 -5 10 -11 0 -8 -14 -9 -42 -5 -47 8 -64 19 -54
35 9 14 93 15 101 1z m-395 -20 c0 -14 -30 -27 -75 -34 -25 -4 -33 -3 -21 2
18 8 18 9 2 15 -9 4 -14 11 -11 17 8 13 105 13 105 0z m495 0 c-4 -6 -1 -18 7
-27 12 -15 9 -15 -27 -9 -75 14 -89 46 -19 46 29 0 43 -4 39 -10z m-621 -25
c-1 -13 -86 -57 -93 -48 -3 3 0 8 7 10 10 4 8 8 -5 18 -16 12 -15 14 17 23 42
12 75 11 74 -3z m751 -7 c7 -8 6 -9 -2 -4 -7 4 -13 3 -13 -1 0 -5 6 -15 13
-22 10 -11 6 -13 -22 -7 -43 8 -84 33 -75 47 7 12 84 2 99 -13z m-865 -32 c0
-15 -92 -59 -100 -47 -3 5 -12 10 -20 13 -10 3 -2 12 25 26 46 24 95 29 95 8z
m350 4 c19 -12 5 -26 -33 -35 -22 -6 -26 -4 -21 9 3 9 1 16 -5 16 -6 0 -11 5
-11 10 0 13 50 13 70 0z m242 3 c-10 -4 -10 -8 -1 -19 17 -20 6 -27 -30 -19
-52 11 -37 43 19 43 14 0 19 -2 12 -5z m368 -9 c22 -9 38 -20 35 -24 -3 -5 -1
-11 5 -15 5 -3 10 -10 10 -15 0 -10 -96 25 -117 42 -36 30 4 37 67 12z m-694
-5 c9 -15 -5 -26 -41 -34 -20 -5 -26 -4 -16 3 9 7 10 12 2 16 -6 4 -11 11 -11
17 0 13 57 11 66 -2z m410 -15 c2 -23 -1 -25 -25 -19 -51 13 -54 45 -3 45 22
0 27 -5 28 -26z m-497 7 c18 -12 7 -27 -28 -39 -25 -9 -29 -8 -24 4 3 8 0 14
-6 14 -18 0 -13 18 7 23 28 8 36 7 51 -2z m579 -2 c11 0 13 -2 4 -6 -10 -4
-10 -8 -1 -19 7 -8 10 -17 7 -19 -9 -9 -68 17 -68 29 0 18 12 27 28 21 7 -3
21 -5 30 -6z m-660 -30 c2 -10 -8 -21 -27 -29 -26 -10 -33 -10 -47 4 -19 19
-18 21 16 35 33 13 54 9 58 -10z m738 11 c20 -7 30 -17 30 -31 0 -18 -5 -20
-31 -15 -35 8 -60 30 -51 45 9 14 15 14 52 1z m-978 -22 c-2 -6 -15 -20 -29
-30 -18 -13 -31 -16 -54 -10 l-30 9 35 21 c38 24 84 30 78 10z m1242 -8 c21
-12 28 -19 18 -20 -11 0 -15 -5 -12 -15 4 -8 2 -15 -3 -15 -15 0 -76 44 -81
58 -6 18 38 14 78 -8z m-1100 -8 c0 -9 -25 -33 -49 -47 -11 -6 -13 -4 -8 8 4
11 1 17 -8 17 -8 0 -15 -7 -15 -15 0 -8 -13 -21 -30 -30 -26 -13 -29 -14 -24
0 4 10 0 15 -11 15 -26 0 -8 18 27 25 18 4 38 14 46 21 15 15 72 19 72 6z
m347 -9 c4 -11 -54 -33 -87 -33 -13 0 -13 1 0 11 11 8 12 12 2 16 -6 2 -9 9
-6 14 8 14 87 7 91 -8z m267 2 c-4 -8 -1 -15 5 -15 6 0 11 -5 11 -11 0 -8 -12
-9 -37 -4 -72 13 -81 45 -13 45 31 0 38 -3 34 -15z m336 5 c11 -7 12 -10 2
-10 -9 0 -11 -7 -7 -21 6 -19 5 -20 -17 -9 -35 19 -48 31 -42 41 7 12 45 11
64 -1z m-710 -21 c0 -5 -16 -17 -35 -25 -40 -16 -68 -19 -45 -4 13 8 12 10 -2
10 -21 0 -24 16 -5 23 23 10 87 7 87 -4z m487 -3 c-3 -7 0 -19 6 -25 16 -16
-16 -14 -59 4 -44 18 -36 35 18 35 30 0 39 -3 35 -14z m299 -12 c10 -8 13 -12
5 -8 -10 5 -11 1 -6 -15 3 -11 3 -21 0 -21 -11 0 -50 23 -57 34 -18 27 26 36
58 10z m199 -34 c4 -6 -1 -7 -12 -3 -16 6 -16 5 -4 -10 21 -27 6 -32 -27 -9
-39 28 -55 49 -47 61 6 11 78 -20 90 -39z m-1475 27 c0 -12 -30 -39 -70 -62
-13 -7 -13 -6 -2 7 11 14 10 17 -10 20 -22 3 -21 5 12 26 39 25 70 29 70 9z
m40 9 c0 -3 -4 -8 -10 -11 -5 -3 -10 -1 -10 4 0 6 5 11 10 11 6 0 10 -2 10 -4z
m340 -17 c0 -15 -64 -43 -68 -30 -2 6 -10 11 -18 11 -26 0 -14 17 19 27 34 10
67 6 67 -8z m705 1 c11 -5 14 -9 7 -9 -9 -1 -11 -8 -7 -21 6 -18 4 -19 -20
-10 -43 16 -65 30 -65 40 0 12 57 12 85 0z m-485 -12 c0 -15 169 -12 185 3 19
19 66 9 91 -18 16 -18 24 -22 20 -11 -7 23 5 29 42 22 17 -4 35 -16 43 -30 7
-13 19 -24 27 -24 12 0 12 3 2 15 -10 12 -9 15 6 15 22 0 84 -36 84 -49 0 -4
28 -21 63 -35 77 -34 246 -145 309 -204 50 -47 203 -240 196 -247 -2 -3 -18
13 -34 35 -16 22 -32 40 -36 40 -4 0 -28 28 -55 61 -70 89 -215 206 -330 266
-235 123 -459 158 -709 113 -269 -48 -414 -131 -651 -373 -81 -84 -143 -145
-137 -137 116 161 198 255 262 299 82 56 171 108 245 143 37 17 67 36 67 40 0
5 5 6 12 2 7 -5 9 -2 5 9 -4 12 3 19 29 27 42 14 55 6 28 -16 -18 -14 -18 -15
6 -8 13 4 30 13 38 20 11 12 11 14 -5 14 -15 1 -15 2 -3 9 46 25 116 16 79
-11 -11 -8 -10 -8 4 -4 10 3 25 6 33 6 8 0 14 5 14 10 0 6 -7 10 -15 10 -8 0
-15 5 -15 10 0 6 23 10 50 10 33 0 50 -4 50 -12z m-510 -12 c0 -7 -11 -21 -25
-30 -30 -20 -36 -20 -29 -1 4 9 0 15 -7 15 -21 1 21 30 43 30 10 0 18 -6 18
-14z m1266 -1 c18 -14 18 -15 0 -9 -15 6 -17 3 -11 -15 6 -21 5 -22 -17 -10
-23 12 -38 28 -38 42 0 13 46 7 66 -8z m-1082 -4 c13 -21 -64 -64 -99 -55 -30
8 -25 18 23 44 40 21 68 25 76 11z m904 -10 c24 -12 38 -27 39 -40 2 -26 3
-26 -52 0 -49 23 -60 33 -50 49 9 14 21 13 63 -9z m-1278 -13 c-1 -15 -16 -35
-48 -62 -22 -19 -23 -19 -16 -1 6 14 4 17 -9 12 -34 -13 -24 10 16 36 46 30
57 33 57 15z m1630 -8 c39 -20 65 -45 34 -33 -13 5 -15 2 -9 -15 3 -12 4 -22
1 -22 -13 0 -76 63 -76 76 0 18 3 18 50 -6z m-1515 -10 c0 -19 -58 -52 -79
-44 -23 9 -20 16 17 42 35 24 62 25 62 2z m1405 5 c21 -11 30 -23 30 -41 0
-24 -1 -24 -29 -9 -38 19 -63 44 -56 56 8 13 22 11 55 -6z m-1150 -16 c0 -11
-89 -54 -97 -46 -3 3 17 17 44 31 57 30 53 29 53 15z m960 -50 c0 -9 -32 1
-87 28 -58 27 -35 32 27 6 33 -15 60 -30 60 -34z m-1090 27 c0 -8 -13 -24 -29
-35 -31 -23 -46 -27 -36 -11 3 6 -1 10 -9 10 -24 0 -19 13 12 32 33 21 62 23
62 4z m1170 -6 c24 -13 29 -19 16 -20 -12 0 -16 -5 -12 -15 7 -20 -4 -19 -34
2 -68 46 -43 73 30 33z m160 -68 c113 -84 328 -322 291 -322 -5 0 -12 8 -15
18 -4 10 -33 48 -66 83 -33 35 -60 67 -60 72 0 4 -5 7 -11 7 -7 0 -5 -10 6
-26 26 -39 11 -39 -19 1 -17 21 -21 32 -11 29 8 -3 15 -4 15 -1 0 10 -109 110
-164 150 -28 21 -55 43 -61 49 -15 15 43 -21 95 -60z m-1660 46 c0 -7 -18 -31
-41 -54 -28 -29 -47 -40 -60 -37 -28 8 -24 16 26 62 44 40 75 52 75 29z m110
4 c0 -13 -31 -52 -41 -52 -6 0 -7 5 -4 10 3 6 -4 10 -17 10 l-23 1 24 19 c23
20 61 27 61 12z m50 -20 c-122 -96 -248 -221 -343 -344 -19 -23 -19 -23 -2 7
51 88 178 223 288 306 77 58 125 84 57 31z m1556 6 c10 -12 13 -18 7 -14 -8 4
-13 1 -13 -8 0 -9 -4 -16 -8 -16 -14 0 -53 46 -45 53 13 14 40 7 59 -15z m118
-12 c24 -22 36 -42 36 -60 l0 -27 -35 27 c-33 25 -75 74 -75 88 0 18 43 2 74
-28z m-1594 -4 c0 -10 -18 -32 -48 -57 -20 -16 -22 -17 -16 -2 4 12 1 17 -12
17 -16 1 -15 5 9 25 27 24 67 34 67 17z m1346 -13 c35 -22 45 -36 18 -25 -12
4 -14 1 -9 -14 4 -11 3 -20 -1 -20 -11 0 -74 62 -74 72 0 15 32 8 66 -13z
m-1546 -12 c0 -16 -29 -57 -40 -57 -5 0 -7 7 -4 15 5 11 2 13 -10 9 -24 -9
-19 12 6 30 27 19 48 21 48 3z m1731 -7 c13 -10 18 -19 12 -20 -7 0 -13 -8
-13 -17 0 -14 -5 -13 -26 9 -15 14 -23 31 -20 37 10 16 20 14 47 -9z m-799
-282 c2 -16 15 -17 138 -13 75 2 142 0 149 -4 9 -6 -21 -33 -100 -91 -63 -45
-115 -85 -116 -88 -2 -4 17 -68 41 -142 25 -74 43 -136 41 -139 -5 -4 -15 2
-140 94 l-90 66 -6 72 -5 72 -2 -66 c-2 -54 -6 -69 -24 -86 -46 -40 -210 -155
-215 -149 -6 6 75 256 90 274 6 8 6 12 -2 12 -21 0 -241 164 -228 170 7 3 76
3 154 0 77 -3 139 -2 137 2 -4 6 58 216 83 278 5 14 91 -222 95 -262z m-822
238 c0 -7 -14 -25 -31 -42 -17 -17 -28 -22 -24 -12 5 13 2 16 -17 12 -19 -5
-17 0 16 30 37 34 56 38 56 12z m1520 -8 c32 -23 40 -41 15 -32 -11 5 -13 2
-9 -10 3 -9 2 -16 -4 -16 -12 0 -62 57 -62 71 0 16 30 10 60 -13z m-1695 2 c3
-5 0 -18 -7 -29 -15 -25 -39 -36 -31 -15 4 10 0 12 -11 8 -21 -8 -20 4 1 28
18 20 38 23 48 8z m1860 -6 c14 -11 16 -18 8 -21 -7 -3 -13 -12 -13 -21 -1
-13 -7 -10 -25 11 -37 42 -14 65 30 31z m-1955 0 c0 -10 -22 -48 -43 -74 -13
-16 -18 -19 -14 -7 6 15 3 17 -13 12 -29 -9 -25 6 11 43 28 28 59 42 59 26z
m2040 -4 c10 -5 29 -25 41 -42 14 -20 17 -28 7 -20 -14 11 -17 10 -20 -10 -3
-21 -6 -19 -36 21 -43 59 -40 77 8 51z m-2003 -56 c7 -20 -36 -62 -57 -57 -26
7 -25 11 7 45 27 28 43 32 50 12z m153 0 c0 -28 -59 -91 -85 -91 -25 0 -25 0
-7 29 18 32 67 78 83 78 5 0 9 -7 9 -16z m1689 -28 c23 -24 37 -76 21 -76 -10
0 -90 87 -90 98 0 29 30 20 69 -22z m141 17 c14 -18 17 -29 9 -33 -6 -4 -10
-10 -10 -14 3 -18 -17 -6 -36 23 -36 53 -3 74 37 24z m-1926 -30 c-15 -21 -29
-40 -31 -42 -2 -2 -6 -1 -10 2 -6 6 54 77 65 77 2 0 -8 -17 -24 -37z m-174 1
c0 -9 -9 -32 -21 -50 -22 -36 -32 -44 -22 -18 5 14 3 15 -15 5 -32 -17 -28 2
9 44 34 38 49 44 49 19z m2184 10 c8 -3 27 -22 42 -42 20 -25 23 -34 11 -29
-11 4 -17 1 -17 -8 0 -26 -16 -16 -38 24 -30 53 -30 67 2 55z m-2134 -58 c0
-8 -9 -24 -21 -37 -11 -13 -18 -19 -15 -12 4 7 -3 13 -15 15 -21 3 -21 4 5 31
26 28 46 29 46 3z m2112 -3 c10 -9 18 -21 18 -26 0 -6 -3 -7 -7 -4 -3 4 -12
-1 -18 -10 -11 -15 -14 -14 -29 15 -9 17 -16 33 -16 37 0 11 34 4 52 -12z
m-2065 -50 c-20 -20 -40 -33 -44 -29 -4 4 9 23 30 43 50 45 62 33 14 -14z
m2009 -11 c17 -26 17 -26 -1 -12 -10 8 -20 14 -22 12 -5 -3 -43 43 -43 52 0
13 49 -26 66 -52z m-1951 -6 c-18 -37 -40 -61 -28 -30 5 13 2 15 -15 9 -29 -9
-28 -2 9 40 40 45 59 34 34 -19z m1901 6 c20 -25 23 -34 11 -29 -11 4 -17 1
-17 -8 0 -8 -4 -15 -8 -15 -12 0 -42 56 -42 79 0 28 22 18 56 -27z m-2121 18
c3 -5 -6 -31 -20 -57 -14 -26 -24 -40 -21 -30 5 15 2 17 -14 12 -23 -7 -24 -2
-9 28 25 48 51 67 64 47z m2332 -12 c11 -13 26 -34 33 -48 12 -23 12 -24 -3
-11 -15 12 -17 11 -17 -3 0 -27 -15 -18 -33 19 -30 62 -19 85 20 43z m-53 -24
c13 -19 13 -22 2 -18 -9 3 -16 -2 -18 -12 -2 -15 -6 -13 -21 10 -20 30 -16 59
7 50 8 -3 22 -16 30 -30z m-2214 14 c-1 -18 -29 -66 -30 -50 0 6 -7 12 -15 12
-19 0 -19 14 1 34 19 19 44 21 44 4z m60 -42 c0 -19 -46 -66 -66 -66 -14 0
-15 3 -3 18 45 59 69 76 69 48z m2103 -35 c15 -26 16 -30 2 -25 -9 4 -15 1
-15 -7 0 -8 -11 4 -24 26 -13 22 -22 43 -20 47 8 13 38 -8 57 -41z m-2058 19
c3 -5 -4 -27 -15 -50 -20 -40 -35 -55 -23 -24 5 13 2 15 -16 9 -21 -6 -22 -5
-11 17 26 49 52 69 65 48z m1981 2 c15 -10 44 -55 44 -67 0 -5 -5 -3 -10 5 -5
8 -10 12 -11 8 -1 -5 -3 -12 -4 -18 -1 -5 -3 -13 -4 -17 -3 -13 -40 61 -41 80
0 18 8 21 26 9z m-2132 -11 c4 -5 1 -22 -5 -38 -6 -15 -13 -23 -16 -16 -2 7
-11 9 -19 6 -19 -7 -18 16 3 39 18 20 29 23 37 9z m2301 -21 c13 -26 14 -29 0
-24 -9 4 -15 1 -15 -7 -1 -21 -30 21 -30 43 0 28 28 21 45 -12z m-2381 -18
c-11 -46 -32 -79 -54 -85 -24 -6 -25 2 -5 50 29 69 73 95 59 35z m2466 -17
c16 -34 19 -49 11 -59 -6 -7 -8 -16 -4 -19 3 -4 2 -7 -4 -7 -12 0 -64 111 -57
122 12 19 34 5 54 -37z m-2429 -58 c-12 -37 -47 -75 -58 -64 -9 10 15 83 34
102 24 25 38 4 24 -38z m89 39 c0 -27 -26 -61 -48 -63 l-23 -3 22 40 c22 39
49 54 49 26z m2210 -18 c20 -33 29 -67 10 -38 -8 13 -10 12 -10 -2 0 -29 -15
-21 -33 17 -21 44 -21 55 -2 55 8 0 24 -15 35 -32z m80 0 c23 -37 27 -92 8
-86 -18 6 -58 87 -51 104 8 22 22 17 43 -18z m-2240 -7 c0 -27 -21 -81 -31
-81 -5 0 -9 -8 -9 -19 0 -33 -22 -81 -42 -92 -11 -6 -22 -9 -24 -7 -2 3 3 28
12 57 11 38 21 54 40 61 13 5 24 14 24 20 0 8 -6 8 -20 0 -18 -10 -19 -8 -10
14 22 60 60 90 60 47z m46 -18 c-26 -46 -66 -144 -66 -162 0 -9 -12 -24 -26
-35 l-26 -18 15 28 c8 16 20 47 27 68 15 47 80 160 87 152 3 -2 -2 -17 -11
-33z m1997 -15 c40 -64 91 -191 74 -185 -7 2 -18 14 -25 28 -21 40 -90 209
-86 209 2 0 19 -24 37 -52z m67 12 c15 -29 16 -38 6 -34 -9 3 -16 -2 -18 -13
-3 -13 -9 -8 -21 21 -21 47 -21 66 -2 66 8 0 24 -18 35 -40z m-2345 -40 c3 -5
1 -29 -6 -52 -6 -24 -14 -37 -16 -30 -4 10 -8 10 -19 1 -25 -20 -27 -3 -5 45
19 45 34 56 46 36z m2569 -12 c8 -13 17 -36 20 -53 4 -16 3 -24 0 -17 -8 18
-24 15 -24 -5 -1 -33 -29 30 -30 65 0 37 13 41 34 10z m-2434 -10 c0 -36 -23
-89 -36 -84 -7 3 -15 0 -17 -7 -10 -27 -16 2 -7 32 19 66 60 107 60 59z m2311
-25 c16 -32 19 -48 11 -51 -15 -5 -16 -32 -1 -32 5 0 17 -16 25 -35 13 -33 13
-37 -4 -56 l-19 -20 -7 23 c-3 13 -6 34 -6 48 0 14 -11 48 -25 75 -13 28 -25
60 -25 73 0 38 27 25 51 -25z m-2124 11 c4 -12 -64 -94 -78 -94 -20 0 -7 41
22 75 30 34 49 40 56 19z m1964 -45 c11 -23 18 -43 15 -46 -18 -18 -93 66 -82
92 9 25 42 1 67 -46z m101 14 c14 -32 17 -48 9 -51 -6 -2 -11 -11 -11 -20 0
-26 -17 -1 -34 51 -27 80 3 95 36 20z m-2346 -16 c1 -14 -3 -32 -7 -39 -7 -11
-9 -11 -9 1 0 7 -6 11 -15 7 -18 -6 -20 16 -4 45 14 27 34 19 35 -14z m2482
21 c17 -22 26 -62 12 -53 -7 4 -16 2 -21 -6 -6 -10 -11 -6 -18 14 -16 42 3 74
27 45z m-2564 -110 c-4 -29 -9 -45 -12 -35 -3 14 -7 16 -18 6 -11 -9 -14 -7
-14 15 0 15 7 41 16 58 23 45 38 23 28 -44z m2657 10 c5 -22 8 -43 5 -46 -3
-3 -6 3 -6 14 -1 18 -1 18 -14 1 -16 -21 -21 -16 -30 36 -13 73 25 69 45 -5z
m-2527 -26 c-4 -21 -11 -29 -20 -25 -8 3 -14 0 -14 -6 0 -6 -5 -11 -11 -11
-14 0 -4 46 18 79 13 20 17 22 24 9 5 -9 6 -30 3 -46z m2471 11 c5 -18 3 -22
-9 -17 -9 3 -16 1 -16 -5 0 -6 -4 -11 -10 -11 -11 0 -14 63 -3 74 9 9 29 -13
38 -41z m-2539 24 c2 -7 0 -24 -5 -38 -5 -13 -10 -19 -10 -12 -1 7 -8 10 -16
7 -16 -6 -20 12 -9 40 7 19 33 21 40 3z m129 -17 c3 -5 3 -26 -1 -46 -4 -22
-10 -31 -14 -24 -5 9 -9 9 -14 1 -14 -21 -26 -11 -20 17 13 54 34 77 49 52z
m70 0 c9 -14 -36 -103 -54 -108 -11 -4 -13 3 -8 33 10 60 45 103 62 75z m2127
-7 c18 -20 39 -89 30 -97 -12 -13 -22 -4 -42 34 -32 63 -24 104 12 63z m67 4
c6 -8 14 -29 17 -48 4 -23 3 -30 -4 -21 -7 11 -11 10 -16 -4 -11 -27 -26 1
-26 49 0 38 10 47 29 24z m-2473 -70 c3 -13 1 -39 -4 -58 -6 -19 -11 -26 -11
-15 -1 20 -1 20 -16 0 -14 -18 -14 -17 -15 13 0 35 18 83 31 83 5 0 11 -11 15
-23z m62 -17 c3 -30 2 -32 -12 -21 -11 9 -16 10 -16 2 0 -6 -4 -11 -10 -11
-13 0 -13 26 1 51 15 29 33 18 37 -21z m2566 24 c9 -24 7 -46 -4 -39 -5 3 -10
1 -10 -4 0 -6 -4 -11 -9 -11 -11 0 -24 48 -16 60 9 15 32 12 39 -6z m54 -1 c5
-10 12 -36 15 -58 4 -27 4 -33 -2 -20 -8 18 -9 19 -16 3 -14 -34 -25 -17 -25
37 0 55 11 70 28 38z m-2356 -20 c-24 -44 -45 -187 -39 -267 6 -97 11 -110 44
-125 23 -10 24 -14 12 -26 -13 -13 -22 -11 -74 14 -33 16 -118 58 -189 92
-109 52 -140 73 -198 129 -64 64 -68 70 -68 113 0 25 5 49 10 52 6 4 10 -5 10
-20 0 -15 5 -36 11 -48 14 -26 80 -97 91 -97 4 0 8 15 8 33 0 40 23 77 35 57
12 -19 9 -94 -4 -98 -7 -2 -6 -8 3 -18 21 -20 26 -18 26 15 0 34 18 51 31 30
12 -19 11 -62 0 -54 -21 12 -20 -15 1 -29 31 -22 35 -20 42 15 5 27 8 30 21
19 8 -7 15 -28 15 -46 0 -42 15 -44 29 -3 13 39 29 30 37 -22 10 -58 24 -47
17 14 -6 48 -5 51 10 38 12 -9 17 -29 17 -62 0 -27 4 -49 10 -49 6 0 9 32 8
78 -1 48 5 99 16 137 20 65 64 160 72 152 3 -3 1 -14 -4 -24z m-202 -41 c0
-30 -3 -42 -9 -33 -6 9 -11 10 -15 2 -14 -22 -25 -10 -19 22 15 79 43 85 43 9z
m2251 -35 c27 -69 32 -96 33 -169 1 -47 4 -90 9 -94 4 -4 7 12 7 35 0 45 15
85 29 76 5 -2 7 -26 5 -52 -4 -48 -4 -48 7 -13 6 19 13 41 15 48 6 23 24 12
31 -18 7 -38 23 -39 23 -2 0 16 7 37 14 48 14 18 15 18 26 -13 12 -32 12 -32
41 -18 16 9 29 20 29 25 0 14 -14 12 -28 -2 -9 -9 -12 -5 -12 19 0 17 7 36 15
43 12 10 16 8 25 -15 5 -14 11 -32 12 -38 1 -7 4 19 7 57 4 41 11 71 18 73 13
5 18 -10 32 -97 1 -2 19 14 42 35 46 45 69 83 70 117 l0 23 10 -24 c34 -86
-70 -189 -301 -298 -74 -35 -151 -72 -172 -83 -30 -16 -38 -17 -47 -6 -9 11
-6 18 16 34 26 19 28 24 31 123 3 96 -7 172 -34 258 -5 16 -4 22 4 17 6 -3 25
-43 43 -89z m195 27 c4 -26 3 -35 -4 -25 -7 9 -12 10 -16 2 -15 -23 -26 -9
-26 32 0 24 3 47 7 51 12 12 34 -20 39 -60z m-2383 17 c2 -11 1 -35 -3 -53 -4
-18 -8 -27 -9 -19 -1 11 -4 11 -16 1 -13 -11 -15 -8 -15 19 0 56 32 94 43 52z
m2316 -18 c13 -45 14 -78 1 -48 -7 18 -8 19 -15 3 -13 -33 -25 -18 -25 32 0
62 24 69 39 13z m-2454 -14 c9 -26 -2 -72 -15 -64 -6 3 -10 1 -10 -4 0 -6 -4
-11 -10 -11 -13 0 -13 56 0 81 14 25 27 24 35 -2z m2595 -35 c0 -19 -2 -34 -4
-34 -2 0 -11 -3 -19 -6 -18 -7 -29 52 -15 79 14 27 38 3 38 -39z m-2420 2 c0
-47 -11 -96 -21 -96 -10 0 -11 39 -3 93 8 46 24 49 24 3z m2224 18 c11 -28 7
-119 -5 -107 -14 14 -25 123 -11 123 5 0 13 -7 16 -16z m-2335 -77 c-1 -29 -3
-44 -6 -34 -4 14 -8 16 -19 6 -12 -9 -14 -6 -14 20 0 38 17 74 31 66 5 -4 8
-30 8 -58z m2455 55 c3 -5 8 -29 11 -53 5 -32 4 -40 -4 -29 -9 13 -12 12 -25
-5 -15 -19 -15 -18 -16 22 0 60 17 92 34 65z m-2390 -44 c3 -13 6 -36 6 -53 0
-24 -2 -27 -11 -15 -8 11 -12 12 -16 3 -9 -24 -23 -13 -23 18 0 33 15 69 29
69 5 0 11 -10 15 -22z m2330 6 c3 -9 5 -32 5 -52 -1 -20 -3 -29 -6 -19 -5 18
-5 18 -19 0 -12 -16 -13 -13 -14 28 0 44 5 59 21 59 4 0 10 -7 13 -16z m305
-41 c-5 -15 -12 -64 -14 -111 -3 -70 -8 -89 -29 -116 -24 -32 -180 -134 -321
-211 -38 -21 -82 -47 -97 -57 -34 -23 -41 -23 -33 2 7 23 -12 90 -26 90 -16 0
-10 31 11 57 11 14 20 38 20 52 0 30 -9 24 243 146 104 50 152 80 195 121 31
29 58 53 59 54 1 0 -2 -12 -8 -27z m-2821 -102 c45 -27 117 -64 160 -81 127
-53 172 -80 172 -105 0 -12 11 -39 25 -59 l25 -37 -20 -26 c-12 -16 -20 -41
-20 -64 0 -22 -2 -39 -4 -39 -3 0 -26 13 -53 29 -26 16 -112 67 -190 113 -218
131 -224 137 -234 261 -4 51 -10 101 -14 112 -6 14 4 9 31 -17 21 -20 76 -59
122 -87z m594 53 c-5 -36 -35 -95 -46 -91 -16 6 -7 79 12 100 19 21 38 17 34
-9z m222 -38 c-38 -35 -85 -88 -104 -119 -25 -40 -43 -58 -67 -65 -18 -6 -33
-8 -33 -6 0 21 52 97 94 140 41 40 148 110 175 114 2 0 -27 -29 -65 -64z
m1042 28 c70 -42 124 -92 165 -153 39 -60 38 -72 -4 -59 -24 7 -40 22 -56 54
-13 24 -59 78 -102 119 -43 41 -75 75 -71 75 5 0 35 -16 68 -36z m253 17 c17
-30 25 -101 13 -101 -17 0 -42 43 -49 84 -4 29 -2 36 10 36 9 0 21 -8 26 -19z
m-1405 -21 c17 -17 -7 -30 -55 -30 -49 0 -56 4 -41 26 14 23 73 25 96 4z
m1349 3 c4 -2 7 -11 7 -19 0 -20 -83 -19 -100 1 -10 12 -8 16 11 24 22 8 61 5
82 -6z m-1645 -60 c4 -28 -25 -96 -38 -88 -13 8 -13 71 1 96 13 25 33 20 37
-8z m450 15 c30 -30 2 -50 -39 -27 -16 8 -18 13 -8 25 14 17 31 18 47 2z m992
-3 c16 -19 12 -23 -28 -31 -25 -5 -32 -3 -32 9 0 14 24 36 41 37 4 0 12 -7 19
-15z m439 1 c13 -16 18 -93 7 -104 -9 -8 -24 15 -35 56 -15 51 2 79 28 48z
m-1769 -25 c0 -20 -9 -37 -31 -56 -17 -14 -34 -24 -36 -21 -15 15 35 106 58
106 5 0 9 -13 9 -29z m1658 7 c23 -25 46 -78 37 -86 -12 -12 -73 60 -71 84 1
30 7 30 34 2z m-1637 -133 c-11 -47 -15 -54 -27 -44 -17 14 -18 69 -2 104 10
23 13 24 26 11 13 -13 14 -23 3 -71z m1607 63 c17 -17 15 -93 -2 -107 -12 -10
-17 -6 -25 26 -21 75 -7 115 27 81z m-1754 -121 c5 -44 4 -47 -13 -37 -26 13
-41 59 -29 89 7 21 11 23 22 10 7 -8 16 -35 20 -62z m47 43 c-1 -14 -9 -36
-16 -49 -12 -24 -13 -24 -20 17 -8 47 -1 65 23 60 12 -2 16 -11 13 -28z m1817
-3 c2 -16 1 -36 -3 -45 -5 -14 -9 -13 -20 8 -8 14 -14 35 -15 48 0 35 34 25
38 -11z m56 17 c3 -9 6 -24 6 -33 0 -22 -38 -73 -50 -66 -7 4 1 54 16 103 5
17 21 15 28 -4z m-1619 -34 c8 -13 -33 -37 -77 -45 -32 -6 -38 -4 -38 9 0 29
100 61 115 36z m1363 -10 c46 -28 42 -43 -10 -35 -49 8 -91 31 -83 45 10 16
58 11 93 -10z m-1588 -51 c0 -3 -6 -12 -14 -18 -19 -16 -28 1 -20 35 7 26 8
26 20 9 8 -11 14 -22 14 -26z m1760 -13 c-6 -5 -15 -4 -24 3 -12 10 -13 17 -3
32 11 18 12 18 24 -4 7 -13 8 -26 3 -31z m-2212 24 c12 -12 22 -28 21 -38 0
-14 -2 -14 -8 3 -7 18 -8 18 -18 1 -11 -20 -17 -15 -27 27 -8 32 2 34 32 7z
m1251 -4 c-9 -9 -58 -10 -59 -1 -2 13 42 24 54 14 5 -5 8 -11 5 -13z m199 -4
c3 -9 -4 -11 -25 -6 -37 9 -44 14 -38 24 7 11 58 -3 63 -18z m1212 9 c0 -12
-12 -26 -30 -35 -36 -18 -39 -4 -5 29 29 30 35 31 35 6z m-2135 -10 c7 -12
-29 -47 -67 -67 -44 -23 -47 4 -5 43 37 33 61 41 72 24z m1644 -20 c28 -26 42
-61 24 -61 -18 1 -88 57 -91 73 -5 27 32 21 67 -12z m-1550 -38 c-10 -66 3
-150 32 -228 10 -27 19 -51 19 -53 0 -1 -15 13 -34 31 -19 19 -37 49 -41 68
-4 19 -16 50 -27 69 -17 29 -19 46 -14 93 7 72 10 77 45 77 l28 0 -8 -57z
m1441 31 c17 -43 11 -97 -15 -148 -14 -27 -25 -61 -25 -76 0 -18 -10 -34 -30
-48 -16 -13 -30 -18 -30 -13 0 5 4 12 8 15 17 10 37 123 37 209 0 84 1 87 23
87 15 0 26 -8 32 -26z m-790 -4 c14 -26 70 -27 93 -2 25 28 76 17 88 -17 11
-33 57 -53 82 -37 27 17 71 -12 75 -49 5 -40 29 -65 63 -65 39 0 74 -49 55
-75 -18 -26 3 -78 35 -85 33 -8 44 -63 18 -86 -26 -23 -25 -79 1 -97 14 -9 18
-21 14 -33 -5 -17 -4 -17 8 -4 7 8 27 23 44 32 l30 17 -4 -29 c-14 -98 62
-150 144 -99 73 45 124 43 124 -4 0 -71 -98 -77 -259 -17 -58 22 -135 48 -171
59 l-65 20 0 103 c0 95 -2 107 -30 156 -113 205 -374 245 -536 83 -77 -77
-102 -145 -97 -259 l4 -82 -38 -10 c-21 -6 -99 -33 -175 -60 -166 -61 -238
-67 -272 -24 -20 25 -18 52 3 66 15 10 54 -1 103 -28 48 -28 89 -31 120 -9 46
32 39 137 -12 185 -27 26 -33 50 -11 50 18 0 88 -78 81 -91 -4 -5 -11 -7 -16
-4 -5 4 -9 2 -9 -4 0 -5 14 -15 30 -23 17 -7 30 -18 30 -24 0 -6 7 -17 15 -24
13 -11 14 -8 8 20 -4 25 -2 35 10 42 21 11 22 71 2 88 -21 17 -19 56 5 80 11
11 24 20 28 20 19 0 32 49 20 75 -15 34 12 75 51 75 34 0 58 25 63 65 4 37 48
66 75 49 24 -15 71 5 86 36 10 20 35 34 69 39 4 1 12 -8 18 -19z m65 10 c3 -5
-3 -10 -14 -10 -12 0 -21 5 -21 10 0 6 6 10 14 10 8 0 18 -4 21 -10z m-1264
-10 c10 -6 19 -15 19 -21 0 -6 -4 -8 -9 -4 -5 3 -12 1 -16 -5 -9 -15 -25 -2
-25 21 0 22 4 23 31 9z m2518 3 c-1 -16 -18 -48 -18 -36 -1 6 -11 9 -23 6
l-23 -5 24 21 c24 21 42 27 40 14z m-2185 -29 c7 -19 6 -21 -14 -25 -16 -4
-20 1 -20 26 0 20 26 19 34 -1z m126 -18 c0 -44 -16 -55 -31 -22 -9 20 -9 29
1 41 20 24 30 18 30 -19z m530 24 c0 -14 -49 -44 -58 -36 -4 4 4 16 18 26 28
22 40 25 40 10z m90 1 c0 -12 -20 -25 -27 -18 -7 7 6 27 18 27 5 0 9 -4 9 -9z
m359 0 c9 -6 10 -11 2 -15 -13 -8 -31 1 -31 15 0 11 11 11 29 0z m121 -32 c0
-13 -13 -11 -38 7 -12 8 -20 20 -17 25 7 10 55 -18 55 -32z m490 26 c10 -12
10 -21 2 -40 -17 -37 -32 -30 -32 15 0 42 9 50 30 25z m138 -14 c3 -19 0 -22
-13 -17 -9 3 -20 6 -25 6 -4 0 -6 9 -3 20 7 28 37 21 41 -9z m-2225 -13 c23
-52 30 -78 18 -78 -6 0 -11 -7 -11 -16 0 -28 -18 -4 -35 46 -25 75 -3 113 28
48z m2597 8 c0 -38 -21 -86 -42 -97 -28 -15 -32 -6 -18 38 23 73 60 110 60 59z
m-2451 -36 c0 -10 -2 -11 -6 -2 -7 18 -23 15 -23 -5 -1 -14 -4 -12 -15 7 -23
41 -19 51 15 32 16 -9 30 -24 29 -32z m162 -17 c-9 -16 -10 -16 -11 4 0 12 3
30 7 40 7 16 8 16 11 -4 2 -12 -1 -30 -7 -40z m1948 14 c0 -27 -2 -29 -9 -12
-12 28 -12 57 0 50 6 -3 10 -21 9 -38z m211 36 c-1 -21 -13 -53 -21 -53 -5 0
-5 8 -2 18 6 15 5 15 -10 3 -10 -8 -21 -11 -25 -7 -4 4 4 16 17 27 24 20 41
24 41 12z m-2403 -15 c19 -25 23 -47 7 -41 -7 3 -14 0 -14 -6 0 -21 -18 -11
-24 14 -10 40 10 60 31 33z m390 -15 c6 -16 13 -47 16 -70 3 -23 15 -57 28
-75 27 -37 91 -190 83 -197 -9 -9 -52 52 -76 106 -24 55 -38 67 -38 33 0 -16
-4 -19 -15 -12 -12 6 -16 31 -19 103 -2 51 -7 104 -11 117 -11 33 17 29 32 -5z
m1676 -15 c-4 -24 -7 -77 -6 -118 1 -48 -3 -78 -10 -82 -20 -13 -27 -9 -27 12
0 30 -17 24 -23 -7 -7 -32 -66 -125 -84 -130 -10 -4 36 130 58 167 28 46 49
98 49 122 0 37 20 78 37 78 12 0 13 -8 6 -42z m396 20 c0 -13 -4 -32 -9 -43
-7 -17 -9 -17 -9 -3 -1 11 -6 15 -16 12 -17 -7 -19 9 -5 37 15 26 40 24 39 -3z
m-2149 -10 c0 -21 -44 -91 -59 -96 -20 -7 -8 64 15 89 19 22 44 25 44 7z
m1862 -34 c15 -35 17 -49 8 -58 -8 -8 -15 -6 -27 9 -21 28 -42 78 -37 87 13
20 37 4 56 -38z m-2044 24 c14 -14 16 -28 2 -28 -5 0 -14 9 -20 20 -12 22 -1
27 18 8z m447 2 c3 -5 2 -10 -4 -10 -5 0 -16 -3 -25 -6 -11 -4 -16 -1 -16 10
0 18 35 22 45 6z m1315 -6 c0 -11 -5 -14 -16 -10 -9 3 -18 6 -20 6 -3 0 -2 5
1 10 10 16 35 12 35 -6z m420 -14 c-6 -12 -14 -19 -17 -17 -2 3 1 15 7 27 6
12 14 19 17 17 2 -3 -1 -15 -7 -27z m-2201 -39 c14 -26 20 -46 14 -50 -6 -3
-12 -13 -15 -21 -7 -21 -48 61 -48 95 0 37 20 27 49 -24z m2247 -14 c-12 -33
-23 -46 -41 -50 -14 -2 -25 0 -25 5 0 14 42 92 54 100 23 15 29 -12 12 -55z
m-1467 27 c-14 -18 -24 -11 -15 11 3 9 11 13 16 10 8 -5 7 -11 -1 -21z m675
-6 c-3 -5 -12 -4 -20 3 -7 6 -11 15 -8 21 3 5 12 4 20 -3 7 -6 11 -15 8 -21z
m-1109 -2 c21 -31 32 -96 16 -96 -17 0 -51 61 -51 93 0 33 14 35 35 3z m1545
-2 c0 -27 -40 -94 -56 -94 -11 0 -14 6 -10 20 3 11 9 30 12 43 13 46 54 70 54
31z m-1966 -6 c18 -25 21 -42 6 -33 -5 3 -10 1 -10 -4 0 -21 -21 -11 -30 15
-17 45 8 60 34 22z m156 -12 c20 -34 20 -93 -1 -80 -13 8 -49 80 -49 99 0 27
28 16 50 -19z m2090 12 c0 -34 -34 -83 -58 -85 -26 -2 -26 -1 -6 40 32 63 64
86 64 45z m149 5 c-1 -23 -17 -63 -18 -45 -1 9 -8 11 -22 7 -20 -7 -20 -6 -4
24 17 33 45 42 44 14z m-2209 -13 c0 -5 14 -23 30 -40 29 -29 41 -70 21 -70
-12 0 -19 11 -48 73 -12 26 -18 47 -13 47 6 0 10 -4 10 -10z m590 5 c0 -11
-24 -55 -30 -55 -17 0 -18 14 -2 36 15 21 32 31 32 19z m845 -21 c9 -14 14
-29 10 -32 -7 -7 -45 34 -45 49 0 17 18 9 35 -17z m565 19 c-1 -18 -56 -107
-69 -111 -23 -8 -3 50 25 71 13 10 24 25 24 33 0 8 5 14 10 14 6 0 10 -3 10
-7z m-1883 -34 c17 -32 17 -82 1 -77 -19 6 -51 76 -44 94 8 21 28 13 43 -17z
m1793 11 c0 -29 -32 -90 -47 -90 -17 0 -17 32 1 75 16 38 46 48 46 15z m-2135
-30 c28 -45 32 -58 11 -41 -12 10 -15 8 -18 -11 -3 -22 -4 -21 -21 9 -19 35
-23 83 -7 83 5 0 21 -18 35 -40z m2481 15 c-10 -38 -25 -75 -31 -75 -4 0 -3 5
0 10 4 7 -3 8 -20 4 -26 -6 -27 -6 -15 17 27 49 43 69 57 69 11 0 13 -7 9 -25z
m-1138 -16 c104 -51 155 -131 156 -244 1 -100 -1 -105 -63 -92 l-51 10 6 38
c10 58 -3 102 -42 147 -62 73 -169 82 -240 20 -53 -47 -67 -82 -61 -149 l5
-57 -50 -7 c-61 -9 -68 -2 -68 76 0 84 25 146 85 206 89 88 211 108 323 52z
m-1258 -29 c9 -18 3 -60 -10 -60 -14 0 -43 68 -36 85 5 14 9 15 22 4 8 -7 19
-20 24 -29z m2313 2 c-11 -29 -27 -47 -45 -48 -23 -2 -23 13 2 54 17 27 24 31
35 22 8 -6 11 -19 8 -28z m-2211 -45 c18 -25 19 -30 5 -24 -11 4 -17 1 -17 -9
0 -21 -17 -8 -36 28 -19 37 -12 67 12 48 8 -7 25 -27 36 -43z m2118 33 c0 -12
-7 -34 -15 -50 -16 -32 -29 -41 -18 -14 5 13 2 15 -15 9 -29 -8 -28 1 4 42 29
38 44 42 44 13z m-2017 -65 c9 -18 9 -19 -6 -6 -15 12 -17 11 -17 -8 0 -12 -4
-19 -10 -16 -18 11 -42 66 -35 82 5 14 10 12 31 -8 14 -13 31 -33 37 -44z
m1915 4 c-21 -38 -43 -54 -32 -24 5 11 2 13 -10 9 -23 -9 -20 4 10 43 21 27
29 32 40 22 12 -10 11 -17 -8 -50z m-253 43 c-5 -4 -18 -24 -27 -44 -17 -36
-63 -76 -74 -65 -11 11 41 91 66 104 28 14 52 18 35 5z m-1416 -23 c24 -27 46
-77 37 -87 -11 -11 -76 65 -76 88 0 26 14 25 39 -1z m261 12 c0 -6 -4 -13 -10
-16 -5 -3 -10 1 -10 9 0 9 5 16 10 16 6 0 10 -4 10 -9z m878 -10 c3 -8 -1 -12
-9 -9 -7 2 -15 10 -17 17 -3 8 1 12 9 9 7 -2 15 -10 17 -17z m-1610 -35 c17
-28 20 -37 9 -33 -10 4 -17 0 -19 -11 -3 -13 -10 -8 -26 18 -12 19 -22 43 -22
53 0 30 31 16 58 -27z m2362 24 c0 -12 -7 -34 -15 -50 -16 -32 -29 -41 -18
-14 5 13 2 15 -15 9 -29 -8 -28 1 4 42 29 38 44 42 44 13z m-2085 -35 l14 -40
-29 34 c-16 19 -27 38 -24 43 11 17 26 2 39 -37z m1789 36 c3 -5 -8 -27 -24
-50 -32 -44 -53 -57 -26 -16 9 13 16 33 16 43 0 29 22 43 34 23z m-2002 -18
c25 -30 31 -43 14 -37 -9 3 -16 -2 -18 -13 -3 -14 -8 -11 -21 15 -25 46 -7 71
25 35z m254 9 c15 -9 44 -67 44 -87 0 -23 -16 -18 -44 16 -36 42 -35 95 0 71z
m1697 -4 c10 -28 -53 -111 -71 -94 -7 7 18 67 36 89 18 20 29 22 35 5z m263
-2 c3 -8 0 -25 -7 -38 -7 -13 -14 -18 -16 -11 -3 7 -11 9 -19 6 -18 -7 -18 7
2 35 17 25 32 28 40 8z m-1666 -16 c6 -12 10 -38 8 -58 l-3 -37 -22 36 c-26
42 -30 79 -8 79 8 0 19 -9 25 -20z m631 -5 c44 -33 63 -67 67 -119 4 -56 -13
-91 -39 -81 -13 5 -14 12 -6 44 28 103 -84 178 -174 118 -41 -27 -59 -82 -42
-128 10 -27 10 -29 -12 -29 -69 0 -32 164 47 204 42 21 125 17 159 -9z m513 6
c6 -9 -44 -80 -56 -81 -5 0 -8 12 -8 27 0 42 47 82 64 54z m-1587 -23 c30 -34
37 -49 18 -42 -11 5 -14 2 -9 -10 3 -9 1 -16 -5 -16 -13 0 -51 58 -51 78 0 19
25 14 47 -10z m499 6 c-3 -9 -6 -24 -6 -35 0 -10 -4 -19 -10 -19 -11 0 -13 30
-4 54 3 9 11 16 16 16 6 0 7 -7 4 -16z m1002 -25 c4 -40 -12 -30 -22 14 -5 21
-3 28 6 25 7 -3 14 -20 16 -39z m512 23 c0 -10 -12 -34 -26 -53 -15 -19 -24
-26 -21 -17 4 11 0 18 -14 20 -17 3 -16 6 12 36 34 36 49 41 49 14z m-1636
-32 c-6 -5 -24 21 -24 34 0 6 6 1 14 -10 8 -10 12 -21 10 -24z m-275 4 c17
-14 31 -30 31 -36 0 -6 -6 -5 -15 2 -13 10 -15 9 -15 -10 0 -19 -2 -21 -16 -9
-14 12 -44 61 -44 74 0 13 31 3 59 -21z m1821 11 c0 -8 -14 -29 -30 -47 -17
-18 -28 -25 -24 -16 4 13 1 15 -18 11 -21 -5 -20 -2 11 31 36 38 61 46 61 21z
m-252 -24 c-13 -21 -58 -30 -58 -11 0 6 8 10 19 10 10 0 24 7 31 15 18 22 24
11 8 -14z m-1718 -6 c19 -20 20 -25 7 -25 -8 0 -17 -8 -19 -17 -2 -14 -7 -11
-21 11 -18 26 -17 56 1 56 5 0 19 -11 32 -25z m382 5 c23 0 24 -18 2 -27 -11
-4 -22 1 -30 12 -17 23 -18 43 -2 27 7 -7 20 -12 30 -12z m1728 1 c0 -10 -9
-29 -20 -42 -14 -17 -18 -19 -14 -6 5 13 2 16 -10 11 -22 -9 -20 12 4 36 25
25 40 26 40 1z m-2170 -32 c28 -36 30 -40 11 -34 -16 5 -20 3 -15 -9 11 -29
-11 -16 -33 19 -46 71 -17 90 37 24z m2243 35 c7 -7 -28 -80 -43 -89 -6 -4 -7
1 -3 11 5 13 2 15 -15 9 -29 -9 -28 -2 9 40 31 35 40 40 52 29z m-2274 -107
c39 -54 71 -100 71 -102 0 -3 -18 -5 -40 -5 -80 0 -120 41 -120 122 0 41 9 92
15 86 2 -2 35 -47 74 -101z m1169 73 c27 -26 28 -64 2 -90 -26 -26 -60 -25
-88 0 -28 26 -28 60 -2 88 26 28 60 28 88 2z m568 8 c7 -12 -67 -88 -86 -88
-20 0 -9 29 24 64 35 38 50 44 62 24z m594 -71 c0 -52 -20 -101 -45 -111 -20
-7 -95 -8 -95 -1 0 3 22 36 49 73 26 38 54 79 61 92 17 32 30 9 30 -53z
m-2115 33 c16 -16 25 -33 22 -37 -4 -3 -7 -1 -7 6 0 7 -4 10 -10 6 -5 -3 -7
-12 -3 -20 10 -28 -12 -14 -39 24 -41 57 -13 73 37 21z m115 20 c0 -5 -5 -10
-11 -10 -5 0 -7 5 -4 10 3 6 8 10 11 10 2 0 4 -4 4 -10z m1600 0 c0 -5 -4 -10
-10 -10 -5 0 -10 5 -10 10 0 6 5 10 10 10 6 0 10 -4 10 -10z m160 5 c0 -13
-30 -62 -45 -75 -13 -11 -15 -10 -9 5 6 14 3 16 -14 10 -31 -9 -27 9 9 39 28
24 59 34 59 21z m-1790 -23 c24 -19 21 -42 -5 -42 -16 0 -46 40 -39 52 8 12
20 10 44 -10z m70 9 c0 -12 -20 -25 -27 -18 -7 7 6 27 18 27 5 0 9 -4 9 -9z
m1530 -6 c0 -9 -6 -12 -15 -9 -8 4 -15 10 -15 15 0 5 7 9 15 9 8 0 15 -7 15
-15z m85 5 c7 -11 -16 -50 -30 -50 -5 0 -17 5 -25 10 -13 9 -11 13 10 30 28
22 36 24 45 10z m-1847 -20 c23 -21 30 -36 12 -25 -5 3 -10 -1 -10 -9 0 -24
-17 -19 -36 9 -15 22 -13 45 5 45 4 0 17 -9 29 -20z m2012 6 c0 -8 -9 -24 -21
-37 -11 -13 -18 -18 -14 -11 4 8 -2 12 -16 12 l-22 0 23 25 c26 27 50 33 50
11z m-1630 -65 c10 -30 12 -46 4 -58 -23 -36 -39 -37 -107 -3 -99 49 -153 33
-158 -46 -3 -44 8 -68 43 -89 55 -32 134 -24 274 29 246 91 416 123 609 113
161 -9 293 -40 515 -124 132 -49 215 -50 266 -2 36 33 34 100 -3 129 -34 27
-71 23 -148 -16 -53 -27 -55 -27 -75 -9 -27 24 -25 64 3 106 31 44 50 42 152
-20 161 -98 247 -131 338 -131 56 0 62 2 98 39 22 21 39 35 39 30 0 -5 -17
-26 -38 -47 -40 -40 -74 -59 -205 -112 -43 -18 -95 -48 -115 -67 -20 -20 -47
-35 -60 -35 -12 0 -25 -5 -29 -11 -10 -16 -11 -77 -1 -83 5 -3 8 -18 6 -34 -1
-15 3 -35 11 -44 8 -10 11 -26 7 -42 -4 -15 -2 -32 5 -40 7 -8 9 -30 7 -52 -4
-24 -1 -42 8 -50 15 -13 18 -49 8 -76 -7 -18 -44 -21 -89 -7 -17 5 -104 32
-195 59 -91 28 -211 65 -268 82 -68 21 -107 28 -115 22 -15 -12 -125 -13 -132
-1 -3 5 -15 3 -25 -4 -16 -9 -24 -9 -40 0 -12 8 -21 9 -25 3 -10 -17 -43 -11
-58 10 l-14 21 -6 -21 c-5 -21 -50 -29 -62 -11 -6 11 -33 3 -350 -95 -121 -37
-237 -69 -257 -72 -34 -4 -39 -1 -48 23 -8 21 -7 34 4 57 9 17 13 42 9 59 -3
18 0 35 8 45 12 15 17 50 19 128 0 16 4 34 9 40 4 6 8 28 8 48 1 36 0 37 -42
44 -27 4 -51 15 -64 30 -23 26 -78 56 -195 104 -86 36 -176 111 -176 146 1 13
7 8 21 -18 55 -104 206 -90 424 42 122 73 145 82 170 66 11 -7 27 -32 35 -55z
m144 54 c-4 -8 -10 -15 -15 -15 -5 0 -9 7 -9 15 0 8 7 15 15 15 9 0 12 -6 9
-15z m946 0 c0 -8 -4 -15 -10 -15 -5 0 -10 7 -10 15 0 8 5 15 10 15 6 0 10 -7
10 -15z m-1506 -54 c36 -37 41 -61 11 -61 -17 0 -75 66 -75 85 0 26 25 16 64
-24z m2096 26 c0 -24 -51 -87 -70 -87 -33 0 -32 18 6 60 36 40 64 52 64 27z
m-1995 -37 c3 -5 -3 -14 -14 -19 -23 -13 -47 10 -37 34 4 12 10 14 25 5 11 -5
23 -14 26 -20z m55 21 c0 -5 -7 -11 -15 -15 -9 -3 -15 0 -15 9 0 8 7 15 15 15
8 0 15 -4 15 -9z m1750 -1 c0 -5 -4 -10 -9 -10 -6 0 -13 5 -16 10 -3 6 1 10 9
10 9 0 16 -4 16 -10z m83 -2 c2 -7 0 -21 -5 -30 -7 -15 -12 -16 -34 -6 l-25
12 23 18 c28 21 35 22 41 6z m27 -1773 c0 -9 -71 -57 -76 -52 -4 3 4 22 16 41
18 30 25 34 41 26 10 -6 19 -13 19 -15z m-1710 -60 c18 -19 31 -37 28 -41 -3
-3 -24 4 -47 16 l-41 20 -41 -20 c-23 -12 -44 -19 -47 -16 -12 13 62 76 88 76
17 0 38 -13 60 -35z m1625 -5 c42 -43 38 -49 -19 -25 -32 14 -40 14 -72 0 -54
-22 -61 -18 -28 16 25 27 55 46 74 48 3 1 24 -17 45 -39z m-1585 -75 c63 -32
90 -86 90 -177 0 -124 -65 -196 -182 -205 -52 -4 -71 0 -108 19 -65 33 -90 82
-90 176 0 114 44 179 136 201 45 11 118 4 154 -14z m-610 6 c0 -5 -9 -13 -20
-16 -17 -6 -20 -15 -20 -76 l0 -69 81 0 80 0 -2 63 c-3 73 -6 87 -25 87 -8 0
-14 5 -14 11 0 10 136 12 153 2 5 -3 -2 -11 -15 -17 -23 -11 -23 -15 -25 -174
l-2 -163 25 -9 c13 -5 24 -12 24 -15 0 -3 -36 -5 -80 -5 -75 0 -105 11 -60 23
18 5 20 14 20 86 l0 81 -80 0 -80 0 0 -81 c0 -72 2 -81 20 -86 45 -12 15 -23
-61 -23 -51 0 -78 4 -74 10 3 6 13 10 21 10 12 0 14 29 14 171 0 162 -1 171
-20 176 -45 12 -15 23 60 23 44 0 80 -4 80 -9z m1205 -1 c8 -13 -5 -100 -15
-100 -4 0 -12 17 -17 37 -11 47 -45 61 -97 39 -92 -38 -104 -222 -19 -296 35
-31 39 -32 102 -27 65 5 66 5 43 -13 -27 -22 -99 -35 -145 -26 -105 21 -169
139 -138 254 14 50 63 109 106 128 35 16 171 18 180 4z m245 1 c0 -5 -9 -11
-20 -14 -18 -5 -20 -14 -20 -76 l0 -71 75 0 75 0 0 70 c0 54 -4 72 -15 76 -35
14 -10 24 60 24 72 0 97 -12 55 -25 -19 -6 -20 -15 -20 -172 0 -156 1 -165 20
-170 44 -12 16 -23 -55 -23 -43 0 -75 4 -75 10 0 6 6 10 14 10 11 0 15 19 18
81 2 44 1 83 -1 85 -2 2 -37 4 -78 4 l-73 0 0 -79 c0 -70 2 -80 23 -94 21 -15
17 -16 -60 -16 -78 -1 -108 10 -63 22 19 5 20 14 20 170 0 157 -1 166 -20 172
-43 14 -16 25 60 25 44 0 80 -4 80 -9z m470 0 c0 -5 -9 -11 -20 -14 -19 -5
-20 -14 -20 -172 0 -158 1 -167 20 -172 45 -12 15 -23 -61 -23 -51 0 -78 4
-74 10 3 6 13 10 21 10 12 0 14 29 14 169 0 161 -1 170 -20 176 -43 14 -16 25
60 25 44 0 80 -4 80 -9z m340 -10 c0 -32 -12 -81 -20 -81 -4 0 -11 16 -14 35
-7 34 -8 35 -56 35 l-50 0 0 -75 0 -75 34 0 c28 0 35 4 40 25 11 43 21 27 23
-35 2 -61 -10 -78 -26 -37 -7 17 -17 23 -37 22 l-29 0 -3 -77 -3 -78 50 0 c49
0 51 1 73 43 l23 42 3 -44 c5 -72 8 -71 -138 -71 -118 0 -162 9 -110 23 19 5
20 14 20 170 0 157 -1 166 -20 172 -50 16 -11 25 110 25 120 0 130 -1 130 -19z
m240 10 c0 -5 -9 -11 -20 -14 -19 -5 -20 -14 -20 -145 0 -124 2 -142 20 -165
39 -50 116 -43 145 12 11 23 15 62 15 161 0 123 -1 132 -20 137 -40 11 -18 23
40 23 58 0 79 -13 41 -25 -17 -5 -19 -19 -23 -143 -3 -86 -10 -147 -18 -165
-41 -85 -201 -90 -257 -9 -15 22 -19 53 -21 171 -4 131 -6 144 -23 148 -44 12
-14 23 61 23 44 0 80 -4 80 -9z m-1960 -436 c26 -32 -13 -81 -47 -59 -35 22
-23 74 17 74 10 0 23 -7 30 -15z m-220 -183 c32 -15 35 -22 38 -63 3 -41 0
-49 -28 -73 -22 -18 -43 -26 -71 -26 l-39 0 0 -55 c0 -42 3 -55 15 -55 8 0 15
-4 15 -10 0 -6 -29 -10 -66 -10 -41 0 -63 4 -59 10 3 6 13 10 21 10 11 0 14
23 14 129 0 122 -1 129 -22 144 -22 15 -18 16 62 16 62 1 95 -4 120 -17z m274
-99 c51 -160 56 -173 72 -173 8 0 14 -4 14 -10 0 -6 -29 -10 -67 -10 -59 1
-66 2 -50 14 20 16 21 26 5 61 -10 23 -17 26 -52 23 -37 -3 -42 -6 -52 -38
-10 -29 -9 -36 2 -38 32 -8 10 -22 -33 -22 -46 0 -46 0 -27 18 11 11 44 80 73
155 29 76 58 137 65 137 6 0 29 -53 50 -117z m300 108 c8 -12 -4 -71 -14 -71
-4 0 -10 14 -13 30 -5 24 -12 30 -31 30 -25 0 -56 -23 -56 -41 0 -24 23 -50
60 -69 64 -33 84 -78 59 -134 -14 -31 -61 -51 -117 -50 -53 1 -61 9 -55 57 6
47 19 48 27 2 6 -32 10 -35 40 -35 74 0 74 59 1 108 -59 40 -79 72 -70 113 10
45 49 69 111 69 29 0 55 -4 58 -9z m238 4 c9 -4 13 -17 10 -40 -5 -43 -18 -45
-27 -5 -5 25 -12 30 -35 30 -15 0 -33 -7 -40 -14 -22 -28 -7 -60 45 -93 58
-39 77 -69 69 -113 -12 -56 -95 -94 -158 -70 -25 9 -27 14 -23 46 7 48 16 54
23 15 11 -54 68 -60 94 -11 14 27 -2 55 -43 76 -56 28 -77 54 -77 93 1 59 37
90 107 91 23 0 48 -2 55 -5z m267 -6 c92 -32 53 -169 -48 -169 l-41 0 0 -55
c0 -42 3 -55 15 -55 8 0 15 -4 15 -10 0 -6 -29 -10 -67 -10 -66 0 -67 1 -47
18 20 16 21 27 22 137 1 112 -1 121 -21 137 -21 17 -20 18 59 18 45 0 95 -5
113 -11z m372 -28 c37 -37 39 -42 39 -102 0 -116 -53 -174 -157 -173 -92 2
-143 57 -143 154 0 107 53 160 159 160 60 0 65 -2 102 -39z m318 15 c32 -29
28 -82 -7 -114 l-29 -26 29 -51 c16 -27 41 -60 56 -73 l27 -23 -50 3 -49 3
-37 65 c-21 35 -43 66 -48 68 -7 2 -11 -18 -11 -54 0 -42 4 -60 18 -70 15 -12
9 -13 -45 -14 -36 0 -63 4 -63 10 0 6 7 10 15 10 13 0 15 22 15 135 0 113 -2
135 -15 135 -8 0 -15 5 -15 11 0 7 30 10 94 7 75 -2 98 -7 115 -22z m344 -13
c-8 -51 -20 -61 -28 -24 -5 26 -11 31 -36 31 l-29 0 0 -130 c0 -107 3 -130 14
-130 8 0 18 -4 21 -10 4 -6 -20 -10 -64 -10 -41 0 -71 4 -71 10 0 6 9 10 20
10 19 0 20 7 20 130 l0 130 -31 0 c-25 0 -32 -5 -42 -32 l-11 -33 -7 40 c-4
22 -5 43 -2 48 2 4 60 7 128 7 l124 0 -6 -37z"/>
<path d="M616 8714 c-23 -22 -29 -58 -23 -116 7 -60 20 -78 57 -78 34 0 50 32
50 101 0 88 -43 135 -84 93z"/>
<path d="M1607 8712 c-24 -26 -31 -99 -15 -147 11 -33 18 -41 43 -43 42 -5 55
19 55 100 0 55 -4 72 -20 88 -25 25 -42 25 -63 2z"/>
<path d="M1836 8636 c-8 -32 -4 -39 17 -34 13 2 13 8 3 33 l-13 30 -7 -29z"/>
<path d="M2303 8633 c-10 -27 -9 -32 8 -36 26 -7 29 2 15 38 l-12 30 -11 -32z"/>
<path d="M2825 8716 c-14 -10 -20 -29 -22 -77 -5 -80 10 -113 53 -117 38 -4
54 26 54 99 0 88 -37 130 -85 95z"/>
<path d="M4776 8638 c-9 -34 -8 -38 12 -38 15 0 18 6 14 30 -5 36 -17 39 -26
8z"/>
<path d="M6016 8638 c-9 -34 -8 -38 12 -38 15 0 18 6 14 30 -5 36 -17 39 -26
8z"/>
<path d="M1190 8325 c-18 -22 -23 -96 -8 -125 15 -28 52 -38 73 -20 18 15 29
72 21 104 -12 50 -60 72 -86 41z"/>
<path d="M1707 8259 c-3 -12 0 -22 9 -26 20 -8 27 2 19 26 -8 27 -21 27 -28 0z"/>
<path d="M2576 8333 c-3 -3 -6 -21 -6 -40 0 -26 4 -33 19 -33 19 0 31 18 31
45 0 16 -34 38 -44 28z"/>
<path d="M2940 8290 c0 -43 17 -53 40 -25 18 21 4 65 -20 65 -17 0 -20 -7 -20
-40z"/>
<path d="M3330 8301 c0 -17 4 -32 9 -36 14 -8 43 25 37 42 -3 8 -6 17 -6 19 0
2 -9 4 -20 4 -15 0 -20 -7 -20 -29z"/>
<path d="M3330 8211 c0 -26 5 -41 13 -41 25 0 39 18 35 46 -2 21 -9 30 -25 32
-21 3 -23 -1 -23 -37z"/>
<path d="M4046 8318 c-9 -12 -16 -41 -16 -63 0 -50 23 -85 55 -85 31 0 45 27
45 88 0 74 -50 109 -84 60z"/>
<path d="M5410 8271 c0 -5 -3 -16 -6 -25 -4 -12 0 -16 16 -16 16 0 20 4 16 16
-3 9 -6 20 -6 25 0 5 -4 9 -10 9 -5 0 -10 -4 -10 -9z"/>
<path d="M3300 5936 c0 -2 8 -10 18 -17 15 -13 16 -12 3 4 -13 16 -21 21 -21
13z"/>
<path d="M3423 5918 c-15 -20 -25 -38 -20 -38 3 0 12 11 21 25 17 26 16 35 -1
13z"/>
<path d="M3576 5911 c-4 -5 3 -7 14 -4 23 6 26 13 6 13 -8 0 -17 -4 -20 -9z"/>
<path d="M3208 5893 c7 -3 16 -2 19 1 4 3 -2 6 -13 5 -11 0 -14 -3 -6 -6z"/>
<path d="M3330 5896 c0 -2 8 -10 18 -17 15 -13 16 -12 3 4 -13 16 -21 21 -21
13z"/>
<path d="M3345 5843 c-16 -13 -17 -15 -2 -10 9 4 17 2 17 -3 0 -5 7 -7 15 -4
18 7 20 34 3 34 -7 0 -22 -8 -33 -17z"/>
<path d="M3399 5805 c6 -11 20 -31 31 -45 15 -17 18 -19 11 -5 -6 11 -20 31
-31 45 -15 17 -18 19 -11 5z"/>
<path d="M3490 5806 c0 -2 7 -7 16 -10 8 -3 12 -2 9 4 -6 10 -25 14 -25 6z"/>
<path d="M3289 5733 c-13 -16 -12 -17 4 -4 16 13 21 21 13 21 -2 0 -10 -8 -17
-17z"/>
<path d="M3480 5690 c12 -16 24 -30 26 -30 3 0 -4 14 -16 30 -12 17 -24 30
-26 30 -3 0 4 -13 16 -30z"/>
<path d="M3530 5620 c12 -16 24 -30 26 -30 3 0 -4 14 -16 30 -12 17 -24 30
-26 30 -3 0 4 -13 16 -30z"/>
<path d="M3179 5583 c-13 -16 -12 -17 4 -4 16 13 21 21 13 21 -2 0 -10 -8 -17
-17z"/>
<path d="M3560 5576 c0 -2 8 -10 18 -17 15 -13 16 -12 3 4 -13 16 -21 21 -21
13z"/>
<path d="M3281 4278 c-9 -25 -14 -30 -20 -19 -5 8 -7 19 -5 25 3 7 -4 12 -14
12 -14 0 -19 -8 -19 -28 0 -19 4 -25 10 -19 7 7 15 7 24 0 9 -9 17 -8 28 1 12
10 18 10 30 0 8 -7 15 -9 15 -6 0 9 -30 66 -34 66 -2 0 -9 -15 -15 -32z"/>
<path d="M3420 4290 c-8 -15 -8 -25 3 -40 14 -20 14 -20 33 1 13 15 16 24 8
36 -16 25 -31 26 -44 3z m38 -18 c2 -7 -3 -12 -12 -12 -9 0 -16 7 -16 16 0 17
22 14 28 -4z"/>
<path d="M3084 4276 c-8 -34 2 -58 23 -54 25 5 27 41 4 62 -20 18 -20 18 -27
-8z m34 -23 c-4 -22 -22 -20 -26 1 -2 10 3 16 13 16 10 0 15 -7 13 -17z"/>
<path d="M3360 4275 c0 -23 3 -27 10 -15 8 12 12 13 19 2 6 -10 10 -7 13 12 5
26 -6 36 -15 14 -4 -10 -8 -9 -16 2 -9 12 -11 9 -11 -15z"/>
<path d="M3482 4270 c0 -19 2 -27 5 -17 2 9 2 25 0 35 -3 9 -5 1 -5 -18z"/>
<path d="M3150 4276 c0 -8 -3 -23 -7 -33 -6 -15 -4 -16 9 -5 8 7 23 9 33 6 17
-7 17 -6 0 19 -19 29 -35 35 -35 13z"/>
<path d="M3523 4274 c-3 -8 2 -23 11 -32 13 -14 18 -14 28 -3 11 11 10 13 -4
8 -14 -5 -18 -1 -18 14 0 15 5 19 15 15 8 -3 15 -1 15 4 0 16 -40 11 -47 -6z"/>
<path d="M3587 4270 c-10 -37 -9 -44 8 -30 12 10 15 10 15 -4 0 -9 5 -16 10
-16 6 0 10 15 9 33 0 17 -3 26 -6 20 -7 -19 -21 -16 -25 5 -3 13 -5 11 -11 -8z"/>
<path d="M3675 4274 c7 -26 -4 -56 -16 -48 -6 3 -7 15 -3 27 5 17 3 19 -6 11
-16 -16 -9 -48 12 -52 22 -4 34 39 18 65 -10 16 -10 16 -5 -3z"/>
<path d="M3050 4262 c0 -8 -7 -11 -19 -7 -15 5 -18 1 -13 -20 5 -27 22 -35 22
-10 0 18 16 20 23 3 4 -9 6 -8 6 2 0 8 -4 22 -9 30 -7 11 -10 12 -10 2z"/>
<path d="M3721 4230 c-6 -18 -6 -30 0 -30 5 0 9 6 9 13 0 6 5 4 11 -7 9 -15
13 -16 20 -5 5 8 9 21 9 29 0 13 -1 13 -10 0 -8 -13 -10 -13 -10 2 0 30 -18
29 -29 -2z"/>
<path d="M2936 4233 c-8 -21 17 -48 38 -40 17 7 22 37 6 37 -5 0 -10 -7 -10
-16 0 -8 -4 -12 -10 -9 -16 10 -12 33 8 38 13 4 12 5 -4 6 -12 0 -25 -7 -28
-16z"/>
<path d="M3786 4221 c-13 -15 -14 -20 -2 -36 8 -11 20 -16 30 -12 17 7 22 27
6 27 -5 0 -10 -5 -10 -11 0 -5 -4 -7 -10 -4 -19 12 -11 38 10 32 23 -6 28 8 6
16 -8 3 -21 -2 -30 -12z"/>
<path d="M2911 4223 c-1 -6 -10 -9 -20 -6 -16 4 -19 1 -14 -16 3 -12 10 -24
16 -28 7 -4 8 0 3 12 -5 15 -4 16 9 5 21 -17 31 -5 17 22 -6 13 -11 18 -11 11z"/>
<path d="M3842 4197 c-15 -36 -15 -44 0 -29 17 17 31 15 24 -3 -3 -8 -2 -15 3
-15 10 0 24 50 16 58 -3 3 -5 0 -5 -6 0 -19 -18 -14 -23 6 -3 13 -6 11 -15
-11z"/>
<path d="M2827 4203 c-4 -3 -7 -14 -7 -23 0 -10 -7 -23 -16 -31 -13 -10 -17
-10 -24 2 -7 9 -5 15 5 17 16 4 21 22 6 22 -15 0 -33 -29 -27 -45 7 -19 45
-20 52 0 4 10 11 12 22 6 22 -12 44 17 31 41 -10 18 -30 24 -42 11z m28 -21
c0 -18 -20 -15 -23 4 -3 10 1 15 10 12 7 -3 13 -10 13 -16z"/>
<path d="M3900 4181 c-14 -36 -7 -51 20 -44 11 3 20 0 20 -6 0 -26 16 -8 18
20 2 21 -1 29 -10 26 -7 -2 -11 -11 -10 -18 2 -8 0 -11 -4 -7 -4 4 -14 2 -22
-5 -13 -10 -14 -8 -7 13 4 14 12 31 17 38 7 8 7 12 0 12 -5 0 -15 -13 -22 -29z"/>
<path d="M3110 4190 c-12 -8 -10 -10 8 -10 13 0 20 4 17 10 -7 12 -6 12 -25 0z"/>
<path d="M3253 4183 c-24 -2 -43 -8 -43 -14 0 -5 11 -7 25 -3 24 6 25 4 27
-42 0 -27 1 -55 1 -61 -1 -7 9 -13 22 -13 21 0 22 2 12 56 -10 62 0 87 28 64
12 -10 15 -10 15 4 0 10 -8 15 -22 14 -13 -1 -42 -3 -65 -5z"/>
<path d="M3426 4147 c3 -66 6 -75 13 -33 l6 40 40 -60 40 -59 6 61 c3 33 9 66
13 72 4 7 1 12 -7 12 -9 0 -14 -11 -15 -31 -1 -44 -6 -44 -36 1 -36 55 -61 54
-60 -3z"/>
<path d="M3093 4163 c-19 -4 -21 -8 -13 -22 5 -10 10 -41 12 -69 3 -50 3 -50
33 -46 65 11 75 15 75 31 0 15 -1 15 -18 0 -27 -25 -49 -21 -55 9 -4 21 -1 25
14 21 15 -4 19 0 19 21 0 20 -3 23 -12 14 -19 -19 -28 -14 -28 13 0 27 26 35
48 13 9 -9 12 -8 12 5 0 17 -31 21 -87 10z"/>
<path d="M3601 4102 c-29 -44 -37 -61 -27 -65 8 -3 13 1 12 11 -2 27 48 23 52
-4 2 -14 12 -24 28 -27 20 -3 24 -1 19 12 -4 9 -13 41 -21 71 -8 30 -16 56
-19 58 -2 2 -21 -23 -44 -56z m33 -7 c4 -10 -1 -15 -16 -15 -17 0 -18 2 -8 15
7 8 14 15 15 15 2 0 5 -7 9 -15z"/>
<path d="M3003 4142 c-10 -6 -9 -19 3 -57 8 -28 13 -58 10 -68 -3 -13 0 -17
11 -13 8 3 21 6 28 6 11 0 11 6 -2 31 -8 16 -16 48 -17 70 -1 38 -9 46 -33 31z"/>
<path d="M3737 4083 c-21 -73 -21 -77 -6 -82 6 -2 9 1 5 7 -3 6 -1 31 6 56 15
55 27 42 28 -29 l1 -50 45 50 c48 52 51 47 18 -32 -7 -18 -9 -33 -4 -33 4 0
16 -3 26 -7 11 -4 15 -2 11 4 -7 11 19 99 35 119 5 8 1 14 -14 17 -16 5 -29
-3 -54 -31 l-33 -37 -1 33 c0 40 -16 72 -34 72 -8 0 -20 -24 -29 -57z"/>
<path d="M2926 4122 c-2 -4 -1 -14 3 -21 4 -7 6 -24 4 -39 -4 -33 2 -20 16 31
7 29 7 37 -4 37 -8 0 -16 -4 -19 -8z"/>
<path d="M2852 4097 c-22 -13 -22 -13 26 -67 46 -51 50 -53 56 -33 6 18 0 29
-29 54 -20 18 -34 38 -31 45 6 17 7 17 -22 1z"/>
<path d="M4060 4095 c-16 -19 -14 -21 26 -29 42 -9 57 20 18 34 -32 12 -29 13
-44 -5z"/>
<path d="M2640 4080 c0 -22 25 -27 50 -10 13 9 13 11 0 20 -25 17 -50 12 -50
-10z"/>
<path d="M3415 4060 c-3 -5 1 -10 10 -10 9 0 13 5 10 10 -3 6 -8 10 -10 10 -2
0 -7 -4 -10 -10z"/>
<path d="M4015 4040 c-22 -24 -24 -22 46 -43 69 -21 64 -22 67 7 1 21 -6 27
-45 40 -26 9 -47 16 -48 16 -1 0 -10 -9 -20 -20z"/>
<path d="M2662 4039 c-28 -8 -32 -13 -26 -32 3 -12 7 -23 8 -24 1 -1 25 5 54
13 46 14 51 18 42 35 -12 21 -27 22 -78 8z"/>
<path d="M3131 4002 c-6 -12 -32 -23 -68 -32 -32 -7 -93 -24 -136 -37 -59 -19
-81 -22 -92 -13 -10 8 -38 4 -118 -21 l-105 -32 2 -38 c1 -26 5 -38 13 -35 17
7 426 132 500 153 46 13 63 23 63 36 0 9 -7 17 -15 17 -8 0 -15 5 -15 10 0 17
-19 11 -29 -8z"/>
<path d="M3260 3999 c0 -5 5 -7 10 -4 6 3 10 8 10 11 0 2 -4 4 -10 4 -5 0 -10
-5 -10 -11z"/>
<path d="M3290 3930 c0 -73 2 -80 20 -80 18 0 20 7 20 80 0 73 -2 80 -20 80
-18 0 -20 -7 -20 -80z"/>
<path d="M3360 3930 c0 -73 2 -80 20 -80 18 0 20 7 20 80 0 73 -2 80 -20 80
-18 0 -20 -7 -20 -80z"/>
<path d="M3437 3943 c1 -37 2 -74 2 -80 1 -7 9 -13 19 -13 15 0 17 9 15 78 -1
66 -4 77 -20 80 -16 2 -18 -5 -16 -65z"/>
<path d="M3510 3929 c0 -72 2 -79 20 -79 18 0 20 7 20 74 0 65 -2 74 -20 79
-19 5 -20 0 -20 -74z"/>
<path d="M2697 3976 c-38 -11 -68 -24 -68 -28 1 -5 1 -19 1 -32 l0 -23 85 25
c47 14 85 28 85 31 0 3 -8 16 -18 27 l-17 21 -68 -21z"/>
<path d="M3210 3925 c0 -68 2 -75 20 -75 18 0 20 7 20 75 0 68 -2 75 -20 75
-18 0 -20 -7 -20 -75z"/>
<path d="M3560 3985 c0 -9 24 -21 68 -34 37 -11 168 -51 292 -89 124 -38 225
-69 226 -68 1 0 4 18 7 38 5 34 4 37 -24 43 -16 4 -67 19 -113 34 -72 24 -87
26 -98 14 -12 -11 -26 -9 -94 12 -83 27 -230 65 -251 65 -7 0 -13 -7 -13 -15z"/>
<path d="M3962 3977 l-23 -24 48 -16 c56 -18 124 -36 138 -37 5 0 11 12 12 27
3 27 0 29 -64 47 -38 11 -73 21 -78 23 -6 2 -21 -7 -33 -20z"/>
<path d="M3260 3929 c0 -22 4 -38 8 -35 12 7 13 76 2 76 -6 0 -10 -18 -10 -41z"/>
<path d="M3412 3945 c0 -16 2 -22 5 -12 2 9 2 23 0 30 -3 6 -5 -1 -5 -18z"/>
<path d="M3145 3934 c-37 -12 -490 -150 -526 -160 -13 -3 -17 -15 -15 -44 1
-30 5 -39 16 -35 198 57 557 169 563 175 5 4 7 23 5 42 l-3 35 -40 -13z"/>
<path d="M3560 3912 l0 -41 88 -26 c330 -101 506 -154 508 -152 0 1 4 18 7 38
l5 36 -291 88 c-161 49 -298 90 -304 93 -9 3 -13 -8 -13 -36z"/>
<path d="M2547 2509 c-67 -39 -74 -250 -10 -313 18 -18 36 -26 60 -26 78 0
107 46 107 170 0 92 -15 136 -56 164 -25 18 -74 20 -101 5z"/>
<path d="M2310 1840 c0 -67 1 -70 24 -70 33 0 51 25 51 72 0 42 -22 68 -57 68
-16 0 -18 -9 -18 -70z"/>
<path d="M2592 1791 c-16 -52 -16 -51 19 -51 24 0 29 4 25 18 -3 9 -8 29 -12
45 -9 37 -19 34 -32 -12z"/>
<path d="M3400 1840 c0 -67 1 -70 24 -70 40 0 63 51 45 98 -12 30 -26 42 -51
42 -16 0 -18 -10 -18 -70z"/>
<path d="M3691 1884 c-17 -22 -21 -41 -21 -101 0 -47 6 -85 15 -104 30 -57 95
-58 132 -3 26 41 23 162 -7 203 -29 42 -88 44 -119 5z"/>
<path d="M4060 1845 c0 -56 2 -65 18 -65 34 0 56 25 56 65 0 40 -22 65 -56 65
-16 0 -18 -9 -18 -65z"/>
</g>
</svg>
